%TF.GenerationSoftware,KiCad,Pcbnew,10.0.1*%
%TF.CreationDate,2026-08-30T16:40:09-07:00*%
%TF.ProjectId,EPS_V1,4550535f-5631-42e6-9b69-6361645f7063,rev?*%
%TF.SameCoordinates,Original*%
%TF.FileFunction,Soldermask,Top*%
%TF.FilePolarity,Negative*%
%FSLAX46Y46*%
G04 Gerber Fmt 4.6, Leading zero omitted, Abs format (unit mm)*
G04 Created by KiCad (PCBNEW 10.0.1) date 2026-08-30 16:40:09*
%MOMM*%
%LPD*%
G01*
G04 APERTURE LIST*
G04 Aperture macros list*
%AMRoundRect*
0 Rectangle with rounded corners*
0 $1 Rounding radius*
0 $2 $3 $4 $5 $6 $7 $8 $9 X,Y pos of 4 corners*
0 Add a 4 corners polygon primitive as box body*
4,1,4,$2,$3,$4,$5,$6,$7,$8,$9,$2,$3,0*
0 Add four circle primitives for the rounded corners*
1,1,$1+$1,$2,$3*
1,1,$1+$1,$4,$5*
1,1,$1+$1,$6,$7*
1,1,$1+$1,$8,$9*
0 Add four rect primitives between the rounded corners*
20,1,$1+$1,$2,$3,$4,$5,0*
20,1,$1+$1,$4,$5,$6,$7,0*
20,1,$1+$1,$6,$7,$8,$9,0*
20,1,$1+$1,$8,$9,$2,$3,0*%
%AMFreePoly0*
4,1,17,0.324495,0.719900,0.719900,0.324495,0.738500,0.279594,0.738500,-0.279594,0.719900,-0.324495,0.324495,-0.719900,0.279594,-0.738500,-0.279594,-0.738500,-0.324495,-0.719900,-0.719900,-0.324495,-0.738500,-0.279594,-0.738500,0.279594,-0.719900,0.324495,-0.324495,0.719900,-0.279594,0.738500,0.279594,0.738500,0.324495,0.719900,0.324495,0.719900,$1*%
%AMFreePoly1*
4,1,21,0.390081,-0.275075,1.025081,-0.275075,1.025081,-3.325082,0.390081,-3.325082,0.390078,-4.050006,0.160078,-4.050006,0.160081,-3.725081,-0.159918,-3.725081,-0.159921,-4.050003,-0.389920,-4.050003,-0.389918,-3.325082,-1.024918,-3.325082,-1.024918,-0.275075,-0.389918,-0.275075,-0.389920,0.449996,-0.159921,0.449996,-0.159918,0.124924,0.160081,0.124924,0.160078,0.449998,0.390078,0.449998,
0.390081,-0.275075,0.390081,-0.275075,$1*%
G04 Aperture macros list end*
%ADD10C,0.000000*%
%ADD11R,0.203200X0.711200*%
%ADD12R,2.387600X1.701800*%
%ADD13RoundRect,0.250000X0.475000X-0.250000X0.475000X0.250000X-0.475000X0.250000X-0.475000X-0.250000X0*%
%ADD14RoundRect,0.250000X-1.500000X-0.550000X1.500000X-0.550000X1.500000X0.550000X-1.500000X0.550000X0*%
%ADD15RoundRect,0.200000X0.275000X-0.200000X0.275000X0.200000X-0.275000X0.200000X-0.275000X-0.200000X0*%
%ADD16RoundRect,0.200000X-0.275000X0.200000X-0.275000X-0.200000X0.275000X-0.200000X0.275000X0.200000X0*%
%ADD17RoundRect,0.225000X0.250000X-0.225000X0.250000X0.225000X-0.250000X0.225000X-0.250000X-0.225000X0*%
%ADD18R,0.889000X0.203200*%
%ADD19RoundRect,0.243750X0.456250X-0.243750X0.456250X0.243750X-0.456250X0.243750X-0.456250X-0.243750X0*%
%ADD20RoundRect,0.250000X0.800000X-0.450000X0.800000X0.450000X-0.800000X0.450000X-0.800000X-0.450000X0*%
%ADD21RoundRect,0.225000X-0.250000X0.225000X-0.250000X-0.225000X0.250000X-0.225000X0.250000X0.225000X0*%
%ADD22R,0.599999X0.240000*%
%ADD23R,0.240000X0.599999*%
%ADD24R,1.679999X1.679999*%
%ADD25C,0.499999*%
%ADD26RoundRect,0.225000X-0.225000X-0.250000X0.225000X-0.250000X0.225000X0.250000X-0.225000X0.250000X0*%
%ADD27RoundRect,0.102000X-1.000000X0.400000X-1.000000X-0.400000X1.000000X-0.400000X1.000000X0.400000X0*%
%ADD28R,4.013200X2.006600*%
%ADD29RoundRect,0.250000X-0.250000X-0.475000X0.250000X-0.475000X0.250000X0.475000X-0.250000X0.475000X0*%
%ADD30R,0.711200X0.254000*%
%ADD31R,0.254000X0.711200*%
%ADD32R,0.254000X1.193800*%
%ADD33RoundRect,0.225000X0.225000X0.250000X-0.225000X0.250000X-0.225000X-0.250000X0.225000X-0.250000X0*%
%ADD34R,2.006600X4.013200*%
%ADD35R,1.700000X1.700000*%
%ADD36C,1.700000*%
%ADD37RoundRect,0.200000X-0.200000X-0.275000X0.200000X-0.275000X0.200000X0.275000X-0.200000X0.275000X0*%
%ADD38R,1.050000X0.399999*%
%ADD39R,0.200000X0.599999*%
%ADD40RoundRect,0.200000X0.200000X0.275000X-0.200000X0.275000X-0.200000X-0.275000X0.200000X-0.275000X0*%
%ADD41RoundRect,0.102000X-1.475000X-1.750000X1.475000X-1.750000X1.475000X1.750000X-1.475000X1.750000X0*%
%ADD42FreePoly0,315.000000*%
%ADD43FreePoly0,225.000000*%
%ADD44FreePoly0,270.000000*%
%ADD45FreePoly0,45.000000*%
%ADD46FreePoly0,90.000000*%
%ADD47R,0.711200X0.203200*%
%ADD48R,1.701800X2.387600*%
%ADD49RoundRect,0.250000X0.650000X-0.325000X0.650000X0.325000X-0.650000X0.325000X-0.650000X-0.325000X0*%
%ADD50C,1.500000*%
%ADD51RoundRect,0.250000X-0.450000X-0.800000X0.450000X-0.800000X0.450000X0.800000X-0.450000X0.800000X0*%
%ADD52RoundRect,0.250000X-0.800000X0.450000X-0.800000X-0.450000X0.800000X-0.450000X0.800000X0.450000X0*%
%ADD53RoundRect,0.250000X-0.475000X0.250000X-0.475000X-0.250000X0.475000X-0.250000X0.475000X0.250000X0*%
%ADD54RoundRect,0.250000X0.250000X0.475000X-0.250000X0.475000X-0.250000X-0.475000X0.250000X-0.475000X0*%
%ADD55RoundRect,0.250000X1.500000X0.550000X-1.500000X0.550000X-1.500000X-0.550000X1.500000X-0.550000X0*%
%ADD56O,0.240000X0.599999*%
%ADD57O,0.599999X0.240000*%
%ADD58FreePoly1,180.000000*%
%ADD59R,0.850000X0.280000*%
%ADD60R,0.280000X0.850000*%
%ADD61C,0.508000*%
G04 APERTURE END LIST*
D10*
%TO.C,U12*%
G36*
X127847862Y-111797697D02*
G01*
X127847862Y-111850897D01*
X126857262Y-111850897D01*
X126857262Y-111647697D01*
X127697862Y-111647697D01*
X127847862Y-111797697D01*
G37*
%TO.C,U1*%
G36*
X92896361Y-78457197D02*
G01*
X92896361Y-78510397D01*
X91905761Y-78510397D01*
X91905761Y-78307197D01*
X92746361Y-78307197D01*
X92896361Y-78457197D01*
G37*
%TO.C,U10*%
G36*
X121021361Y-79982197D02*
G01*
X121021361Y-80035397D01*
X120030761Y-80035397D01*
X120030761Y-79832197D01*
X120871361Y-79832197D01*
X121021361Y-79982197D01*
G37*
%TO.C,U8*%
G36*
X85246361Y-113557197D02*
G01*
X85246361Y-113610397D01*
X84255761Y-113610397D01*
X84255761Y-113407197D01*
X85096361Y-113407197D01*
X85246361Y-113557197D01*
G37*
%TO.C,U2*%
G36*
X72213358Y-106462093D02*
G01*
X71224167Y-106462093D01*
X71224167Y-106042899D01*
X72213358Y-106042899D01*
X72213358Y-106462093D01*
G37*
G36*
X72213358Y-106962092D02*
G01*
X71224167Y-106962092D01*
X71224167Y-106542901D01*
X72213358Y-106542901D01*
X72213358Y-106962092D01*
G37*
G36*
X72213358Y-107462091D02*
G01*
X71224167Y-107462091D01*
X71224167Y-107042900D01*
X72213358Y-107042900D01*
X72213358Y-107462091D01*
G37*
G36*
X72213358Y-107962093D02*
G01*
X71224167Y-107962093D01*
X71224167Y-107542899D01*
X72213358Y-107542899D01*
X72213358Y-107962093D01*
G37*
G36*
X72653169Y-106022092D02*
G01*
X72233977Y-106022092D01*
X72233977Y-105032901D01*
X72653169Y-105032901D01*
X72653169Y-106022092D01*
G37*
G36*
X72653169Y-108972091D02*
G01*
X72233977Y-108972091D01*
X72233977Y-107982900D01*
X72653169Y-107982900D01*
X72653169Y-108972091D01*
G37*
G36*
X72600062Y-107915996D02*
G01*
X72280262Y-107915996D01*
X72280262Y-106088996D01*
X72600062Y-106088996D01*
X72600062Y-107915996D01*
G37*
G36*
X74107262Y-106408796D02*
G01*
X72280262Y-106408796D01*
X72280262Y-106088996D01*
X74107262Y-106088996D01*
X74107262Y-106408796D01*
G37*
G36*
X74107262Y-107196196D02*
G01*
X72280262Y-107196196D01*
X72280262Y-106808796D01*
X74107262Y-106808796D01*
X74107262Y-107196196D01*
G37*
G36*
X74107262Y-107915996D02*
G01*
X72280262Y-107915996D01*
X72280262Y-107596196D01*
X74107262Y-107596196D01*
X74107262Y-107915996D01*
G37*
G36*
X73153295Y-106022092D02*
G01*
X72734103Y-106022092D01*
X72734103Y-105032901D01*
X73153295Y-105032901D01*
X73153295Y-106022092D01*
G37*
G36*
X73153295Y-108972091D02*
G01*
X72734103Y-108972091D01*
X72734103Y-107982900D01*
X73153295Y-107982900D01*
X73153295Y-108972091D01*
G37*
G36*
X73653421Y-106022092D02*
G01*
X73234229Y-106022092D01*
X73234229Y-105032901D01*
X73653421Y-105032901D01*
X73653421Y-106022092D01*
G37*
G36*
X73653421Y-108972091D02*
G01*
X73234229Y-108972091D01*
X73234229Y-107982900D01*
X73653421Y-107982900D01*
X73653421Y-108972091D01*
G37*
G36*
X73387462Y-107915996D02*
G01*
X73000062Y-107915996D01*
X73000062Y-106088996D01*
X73387462Y-106088996D01*
X73387462Y-107915996D01*
G37*
G36*
X74153547Y-106022092D02*
G01*
X73734355Y-106022092D01*
X73734355Y-105032901D01*
X74153547Y-105032901D01*
X74153547Y-106022092D01*
G37*
G36*
X74153547Y-108972091D02*
G01*
X73734355Y-108972091D01*
X73734355Y-107982900D01*
X74153547Y-107982900D01*
X74153547Y-108972091D01*
G37*
G36*
X74107262Y-107915996D02*
G01*
X73787462Y-107915996D01*
X73787462Y-106088996D01*
X74107262Y-106088996D01*
X74107262Y-107915996D01*
G37*
G36*
X75163357Y-106462093D02*
G01*
X74174166Y-106462093D01*
X74174166Y-106042899D01*
X75163357Y-106042899D01*
X75163357Y-106462093D01*
G37*
G36*
X75163357Y-106962092D02*
G01*
X74174166Y-106962092D01*
X74174166Y-106542901D01*
X75163357Y-106542901D01*
X75163357Y-106962092D01*
G37*
G36*
X75163357Y-107462091D02*
G01*
X74174166Y-107462091D01*
X74174166Y-107042900D01*
X75163357Y-107042900D01*
X75163357Y-107462091D01*
G37*
G36*
X75163357Y-107962093D02*
G01*
X74174166Y-107962093D01*
X74174166Y-107542899D01*
X75163357Y-107542899D01*
X75163357Y-107962093D01*
G37*
%TD*%
D11*
%TO.C,U9*%
X85975062Y-127781596D03*
X86375061Y-127781596D03*
X86775063Y-127781596D03*
X87175062Y-127781596D03*
X87575061Y-127781596D03*
X87975063Y-127781596D03*
X88375062Y-127781596D03*
X88375062Y-124784396D03*
X87975063Y-124784396D03*
X87575061Y-124784396D03*
X87175062Y-124784396D03*
X86775063Y-124784396D03*
X86375061Y-124784396D03*
X85975062Y-124784396D03*
D12*
X87175062Y-126282996D03*
%TD*%
D13*
%TO.C,C_IN4*%
X124840562Y-110836296D03*
X124840562Y-108936296D03*
%TD*%
D14*
%TO.C,C16*%
X110150000Y-127150000D03*
X115750000Y-127150000D03*
%TD*%
D15*
%TO.C,R_ACOK2*%
X84500062Y-107196296D03*
X84500062Y-105546296D03*
%TD*%
D16*
%TO.C,R_T6*%
X123225062Y-85108796D03*
X123225062Y-86758796D03*
%TD*%
D17*
%TO.C,C_VCC2*%
X83950062Y-120158796D03*
X83950062Y-118608796D03*
%TD*%
D18*
%TO.C,U12*%
X127301562Y-111749297D03*
X127301562Y-112149296D03*
X127301562Y-112549296D03*
X127301562Y-112949295D03*
D11*
X127351562Y-113799296D03*
X127751564Y-113799296D03*
X128151563Y-113799296D03*
X128551562Y-113799296D03*
X128951564Y-113799296D03*
D18*
X129001564Y-112949295D03*
X129001564Y-112549296D03*
X129001564Y-112149296D03*
X129001564Y-111749297D03*
D11*
X128951564Y-110899296D03*
X128551562Y-110899296D03*
X128151563Y-110899296D03*
X127751564Y-110899296D03*
X127351562Y-110899296D03*
%TD*%
D19*
%TO.C,LED_ACOK4*%
X126790562Y-108761296D03*
X126790562Y-106886296D03*
%TD*%
D15*
%TO.C,R_ACOK3*%
X120225062Y-73658796D03*
X120225062Y-72008796D03*
%TD*%
D20*
%TO.C,D1*%
X105750062Y-93508796D03*
X105750062Y-89108796D03*
%TD*%
D21*
%TO.C,C11*%
X104700000Y-131225000D03*
X104700000Y-132775000D03*
%TD*%
%TO.C,C5*%
X73800000Y-83341100D03*
X73800000Y-84891100D03*
%TD*%
D22*
%TO.C,U3*%
X71721942Y-95218077D03*
X71721942Y-95718076D03*
X71721942Y-96218078D03*
X71721942Y-96718077D03*
D23*
X72371943Y-97368078D03*
X72871942Y-97368078D03*
X73371944Y-97368078D03*
X73871943Y-97368078D03*
D22*
X74521941Y-96718077D03*
X74521941Y-96218078D03*
X74521941Y-95718076D03*
X74521941Y-95218077D03*
D23*
X73871943Y-94568079D03*
X73371944Y-94568079D03*
X72871942Y-94568079D03*
X72371943Y-94568079D03*
D24*
X73121944Y-95968078D03*
D25*
X73711940Y-95378080D03*
X73711940Y-96558077D03*
X72531943Y-96558077D03*
X72531943Y-95378080D03*
X73121942Y-95968078D03*
%TD*%
D19*
%TO.C,LED_STAT1*%
X93800062Y-75446296D03*
X93800062Y-73571296D03*
%TD*%
D15*
%TO.C,R_ACOK4*%
X126990562Y-105448796D03*
X126990562Y-103798796D03*
%TD*%
D26*
%TO.C,C_REG3*%
X98255638Y-67408797D03*
X99805638Y-67408797D03*
%TD*%
D27*
%TO.C,L_3*%
X116525062Y-80383796D03*
X116525062Y-82383796D03*
%TD*%
D19*
%TO.C,LED_STAT2*%
X86200062Y-110508796D03*
X86200062Y-108633796D03*
%TD*%
D17*
%TO.C,C_VCC4*%
X126628562Y-118486296D03*
X126628562Y-116936296D03*
%TD*%
%TO.C,C12*%
X107350000Y-130900000D03*
X107350000Y-129350000D03*
%TD*%
D28*
%TO.C,L_SW2*%
X68700062Y-106855096D03*
X68700062Y-104137296D03*
%TD*%
D29*
%TO.C,C_SYS5*%
X125175062Y-79383796D03*
X127075062Y-79383796D03*
%TD*%
%TO.C,C_BATT5*%
X125175062Y-81733796D03*
X127075062Y-81733796D03*
%TD*%
D30*
%TO.C,U4*%
X103000000Y-126808709D03*
X103000000Y-127308710D03*
X103000000Y-127808710D03*
X103000000Y-128308711D03*
D31*
X103699938Y-129008796D03*
D32*
X104200064Y-128767496D03*
X104700000Y-128767496D03*
D31*
X105200062Y-129008796D03*
D30*
X105900000Y-128308711D03*
X105900000Y-127808710D03*
X105900000Y-127308710D03*
X105900000Y-126808709D03*
D31*
X105200001Y-126108710D03*
D32*
X104700000Y-126350000D03*
X104200000Y-126350000D03*
D31*
X103699999Y-126108710D03*
%TD*%
D33*
%TO.C,C14*%
X106725000Y-123950000D03*
X105175000Y-123950000D03*
%TD*%
D16*
%TO.C,R_T8*%
X130028562Y-116886296D03*
X130028562Y-118536296D03*
%TD*%
D34*
%TO.C,L1*%
X84058900Y-80891100D03*
X81341100Y-80891100D03*
%TD*%
D27*
%TO.C,L_1*%
X88500062Y-78908796D03*
X88500062Y-80908796D03*
%TD*%
D35*
%TO.C,J2*%
X62700000Y-69560000D03*
D36*
X62700000Y-72100000D03*
X62700000Y-74640000D03*
X62700000Y-77180000D03*
X62700000Y-79720000D03*
X62700000Y-82260000D03*
X62700000Y-84800000D03*
X62700000Y-87340000D03*
X62700000Y-89880000D03*
X62700000Y-92420000D03*
X62700000Y-94960000D03*
X62700000Y-97500000D03*
X62700000Y-100040000D03*
X62700000Y-102580000D03*
X62700000Y-105120000D03*
X62700000Y-107660000D03*
X62700000Y-110200000D03*
X62700000Y-112740000D03*
X62700000Y-115280000D03*
X62700000Y-117820000D03*
X62700000Y-120360000D03*
X62700000Y-122900000D03*
X62700000Y-125440000D03*
X62700000Y-127980000D03*
X62700000Y-130520000D03*
%TD*%
D17*
%TO.C,C9*%
X73900000Y-79766100D03*
X73900000Y-78216100D03*
%TD*%
D13*
%TO.C,C_IN3*%
X118025062Y-78983796D03*
X118025062Y-77083796D03*
%TD*%
D37*
%TO.C,R_SDA4*%
X133075000Y-98170000D03*
X134725000Y-98170000D03*
%TD*%
D26*
%TO.C,C_REG9*%
X121315562Y-120536296D03*
X122865562Y-120536296D03*
%TD*%
D21*
%TO.C,C_AVIN2*%
X74250062Y-101821196D03*
X74250062Y-103371196D03*
%TD*%
D38*
%TO.C,U7*%
X117375062Y-97983798D03*
X117375062Y-98683797D03*
D39*
X117300061Y-99458796D03*
X117800062Y-99458796D03*
X118300062Y-99458796D03*
X118800063Y-99458796D03*
D38*
X118725062Y-98683797D03*
X118725062Y-97983798D03*
D39*
X118800063Y-97158798D03*
X118300062Y-97158798D03*
X117800062Y-97158798D03*
X117300061Y-97158798D03*
%TD*%
D40*
%TO.C,R12*%
X117375062Y-101258796D03*
X115725062Y-101258796D03*
%TD*%
D17*
%TO.C,C_SS2*%
X76150062Y-109871196D03*
X76150062Y-108321196D03*
%TD*%
D28*
%TO.C,L_SW1*%
X68671942Y-95876978D03*
X68671942Y-93159178D03*
%TD*%
D37*
%TO.C,R_SDA1*%
X133075000Y-80370000D03*
X134725000Y-80370000D03*
%TD*%
D16*
%TO.C,R15*%
X118800062Y-94233796D03*
X118800062Y-95883796D03*
%TD*%
D17*
%TO.C,C_BST4*%
X125690562Y-113836296D03*
X125690562Y-112286296D03*
%TD*%
D26*
%TO.C,C10*%
X98775000Y-132050000D03*
X100325000Y-132050000D03*
%TD*%
D33*
%TO.C,C_REG2*%
X99805638Y-69258797D03*
X98255638Y-69258797D03*
%TD*%
D35*
%TO.C,J1*%
X76500000Y-136800000D03*
D36*
X79040000Y-136800000D03*
X81580000Y-136800000D03*
X84120000Y-136800000D03*
X86660000Y-136800000D03*
X89200000Y-136800000D03*
X91740000Y-136800000D03*
X94280000Y-136800000D03*
X96820000Y-136800000D03*
X99360000Y-136800000D03*
X101900000Y-136800000D03*
X104440000Y-136800000D03*
X106980000Y-136800000D03*
X109520000Y-136800000D03*
X112060000Y-136800000D03*
X114600000Y-136800000D03*
X117140000Y-136800000D03*
X119680000Y-136800000D03*
X122220000Y-136800000D03*
%TD*%
D17*
%TO.C,C_BST2*%
X83050062Y-115646296D03*
X83050062Y-114096296D03*
%TD*%
D15*
%TO.C,R11*%
X103200000Y-132825000D03*
X103200000Y-131175000D03*
%TD*%
D13*
%TO.C,C_IN2*%
X82350062Y-112621296D03*
X82350062Y-110721296D03*
%TD*%
D29*
%TO.C,C_BATT7*%
X132040562Y-113486296D03*
X133940562Y-113486296D03*
%TD*%
D18*
%TO.C,U1*%
X92350061Y-78408797D03*
X92350061Y-78808796D03*
X92350061Y-79208796D03*
X92350061Y-79608795D03*
D11*
X92400061Y-80458796D03*
X92800063Y-80458796D03*
X93200062Y-80458796D03*
X93600061Y-80458796D03*
X94000063Y-80458796D03*
D18*
X94050063Y-79608795D03*
X94050063Y-79208796D03*
X94050063Y-78808796D03*
X94050063Y-78408797D03*
D11*
X94000063Y-77558796D03*
X93600061Y-77558796D03*
X93200062Y-77558796D03*
X92800063Y-77558796D03*
X92400061Y-77558796D03*
%TD*%
D40*
%TO.C,R_MID2*%
X90975062Y-117250000D03*
X89325062Y-117250000D03*
%TD*%
D19*
%TO.C,LED_STAT4*%
X128690562Y-108761296D03*
X128690562Y-106886296D03*
%TD*%
D16*
%TO.C,R_T2*%
X95100062Y-83533796D03*
X95100062Y-85183796D03*
%TD*%
D15*
%TO.C,R_L2*%
X86050062Y-120208796D03*
X86050062Y-118558796D03*
%TD*%
D16*
%TO.C,R_T4*%
X87550062Y-118558796D03*
X87550062Y-120208796D03*
%TD*%
D40*
%TO.C,R_MID4*%
X133578562Y-115389296D03*
X131928562Y-115389296D03*
%TD*%
D41*
%TO.C,L2*%
X101675000Y-119650000D03*
X107125000Y-119650000D03*
%TD*%
D11*
%TO.C,U11*%
X114694378Y-71210196D03*
X114294379Y-71210196D03*
X113894377Y-71210196D03*
X113494378Y-71210196D03*
X113094379Y-71210196D03*
X112694377Y-71210196D03*
X112294378Y-71210196D03*
X112294378Y-74207396D03*
X112694377Y-74207396D03*
X113094379Y-74207396D03*
X113494378Y-74207396D03*
X113894377Y-74207396D03*
X114294379Y-74207396D03*
X114694378Y-74207396D03*
D12*
X113494378Y-72708796D03*
%TD*%
D17*
%TO.C,C_REG4*%
X83775062Y-131133796D03*
X83775062Y-129583796D03*
%TD*%
D15*
%TO.C,R_L4*%
X128528562Y-118536296D03*
X128528562Y-116886296D03*
%TD*%
D40*
%TO.C,R_MID1*%
X98625062Y-82058796D03*
X96975062Y-82058796D03*
%TD*%
D17*
%TO.C,C_BST1*%
X90700062Y-80483796D03*
X90700062Y-78933796D03*
%TD*%
D42*
%TO.C,SW3*%
X101900062Y-102658796D03*
D43*
X96900062Y-102658796D03*
D44*
X99400062Y-102658796D03*
%TD*%
D19*
%TO.C,D5*%
X122050062Y-96896296D03*
X122050062Y-95021296D03*
%TD*%
D29*
%TO.C,C_SYS8*%
X132040562Y-109168296D03*
X133940562Y-109168296D03*
%TD*%
D42*
%TO.C,SW1*%
X101950062Y-96858796D03*
D43*
X96950062Y-96858796D03*
D44*
X99450062Y-96858796D03*
%TD*%
D45*
%TO.C,NT10*%
X101950062Y-99658796D03*
D46*
X98950062Y-99658796D03*
%TD*%
D27*
%TO.C,L_2*%
X80850062Y-114021296D03*
X80850062Y-116021296D03*
%TD*%
D47*
%TO.C,U13*%
X119514162Y-120186296D03*
X119514162Y-119786297D03*
X119514162Y-119386295D03*
X119514162Y-118986296D03*
X119514162Y-118586297D03*
X119514162Y-118186295D03*
X119514162Y-117786296D03*
X116516962Y-117786296D03*
X116516962Y-118186295D03*
X116516962Y-118586297D03*
X116516962Y-118986296D03*
X116516962Y-119386295D03*
X116516962Y-119786297D03*
X116516962Y-120186296D03*
D48*
X118015562Y-118986296D03*
%TD*%
D18*
%TO.C,U10*%
X120475061Y-79933797D03*
X120475061Y-80333796D03*
X120475061Y-80733796D03*
X120475061Y-81133795D03*
D11*
X120525061Y-81983796D03*
X120925063Y-81983796D03*
X121325062Y-81983796D03*
X121725061Y-81983796D03*
X122125063Y-81983796D03*
D18*
X122175063Y-81133795D03*
X122175063Y-80733796D03*
X122175063Y-80333796D03*
X122175063Y-79933797D03*
D11*
X122125063Y-79083796D03*
X121725061Y-79083796D03*
X121325062Y-79083796D03*
X120925063Y-79083796D03*
X120525061Y-79083796D03*
%TD*%
D21*
%TO.C,C2*%
X82400000Y-75866100D03*
X82400000Y-77416100D03*
%TD*%
D37*
%TO.C,R_SENSE1*%
X98205638Y-70758797D03*
X99855638Y-70758797D03*
%TD*%
D17*
%TO.C,C3*%
X77750000Y-84916100D03*
X77750000Y-83366100D03*
%TD*%
D16*
%TO.C,R_STAT4*%
X128490562Y-103798796D03*
X128490562Y-105448796D03*
%TD*%
D29*
%TO.C,C_BATT1*%
X97100062Y-80158796D03*
X99000062Y-80158796D03*
%TD*%
%TO.C,C_SYS3*%
X89400062Y-112958796D03*
X91300062Y-112958796D03*
%TD*%
D37*
%TO.C,R6*%
X120225062Y-99658796D03*
X121875062Y-99658796D03*
%TD*%
D49*
%TO.C,C4b1*%
X72000000Y-79666100D03*
X72000000Y-76716100D03*
%TD*%
D50*
%TO.C,TP1*%
X114350000Y-121700000D03*
%TD*%
D19*
%TO.C,LED_ACOK2*%
X84300062Y-110508796D03*
X84300062Y-108633796D03*
%TD*%
D40*
%TO.C,R_MID3*%
X126700062Y-83633796D03*
X125050062Y-83633796D03*
%TD*%
D29*
%TO.C,C_SYS1*%
X97100062Y-77858796D03*
X99000062Y-77858796D03*
%TD*%
D51*
%TO.C,D3*%
X105200062Y-96058796D03*
X109600062Y-96058796D03*
%TD*%
D16*
%TO.C,R_STAT1*%
X93600062Y-70483796D03*
X93600062Y-72133796D03*
%TD*%
%TO.C,R_STAT2*%
X86000062Y-105546296D03*
X86000062Y-107196296D03*
%TD*%
D21*
%TO.C,C_REG6*%
X116994378Y-67833796D03*
X116994378Y-69383796D03*
%TD*%
%TO.C,C_AVIN1*%
X74221942Y-90793078D03*
X74221942Y-92343078D03*
%TD*%
D17*
%TO.C,C_REG7*%
X115044378Y-69383796D03*
X115044378Y-67833796D03*
%TD*%
D15*
%TO.C,R_L1*%
X93600062Y-85183796D03*
X93600062Y-83533796D03*
%TD*%
D52*
%TO.C,D2*%
X105750062Y-101608796D03*
X105750062Y-106008796D03*
%TD*%
D37*
%TO.C,R_SDA2*%
X133075000Y-93070000D03*
X134725000Y-93070000D03*
%TD*%
%TO.C,R_SCL1*%
X133075000Y-82920000D03*
X134725000Y-82920000D03*
%TD*%
D19*
%TO.C,LED_ACOK3*%
X119975062Y-76971296D03*
X119975062Y-75096296D03*
%TD*%
D26*
%TO.C,C13*%
X102175000Y-123950000D03*
X103725000Y-123950000D03*
%TD*%
D29*
%TO.C,C_SYS2*%
X97100062Y-75858796D03*
X99000062Y-75858796D03*
%TD*%
D19*
%TO.C,LED_ACOK1*%
X91850062Y-75446296D03*
X91850062Y-73571296D03*
%TD*%
D37*
%TO.C,R_SCL2*%
X133075000Y-95620000D03*
X134725000Y-95620000D03*
%TD*%
D13*
%TO.C,C_IN1*%
X89900062Y-77458796D03*
X89900062Y-75558796D03*
%TD*%
D17*
%TO.C,C_VCC1*%
X91600062Y-85133796D03*
X91600062Y-83583796D03*
%TD*%
D37*
%TO.C,R_SDA3*%
X133075000Y-85470000D03*
X134725000Y-85470000D03*
%TD*%
D29*
%TO.C,C_BATT3*%
X89400062Y-115158796D03*
X91300062Y-115158796D03*
%TD*%
D53*
%TO.C,C_OUT1*%
X72471942Y-90418078D03*
X72471942Y-92318078D03*
%TD*%
D49*
%TO.C,C4*%
X67400000Y-79666100D03*
X67400000Y-76716100D03*
%TD*%
D17*
%TO.C,C_BST3*%
X118725062Y-82008796D03*
X118725062Y-80458796D03*
%TD*%
D40*
%TO.C,R_SENSE4*%
X122915562Y-119036296D03*
X121265562Y-119036296D03*
%TD*%
D15*
%TO.C,R10*%
X100300000Y-130625000D03*
X100300000Y-128975000D03*
%TD*%
D37*
%TO.C,R_SCL3*%
X133075000Y-88020000D03*
X134725000Y-88020000D03*
%TD*%
D17*
%TO.C,C_VCC3*%
X119775062Y-86708796D03*
X119775062Y-85158796D03*
%TD*%
D19*
%TO.C,LED_STAT3*%
X121925062Y-76971296D03*
X121925062Y-75096296D03*
%TD*%
D37*
%TO.C,R8*%
X118725062Y-101258796D03*
X120375062Y-101258796D03*
%TD*%
D54*
%TO.C,C_PVIN1*%
X77971942Y-95418078D03*
X76071942Y-95418078D03*
%TD*%
D55*
%TO.C,C8*%
X98750000Y-127200000D03*
X93150000Y-127200000D03*
%TD*%
D47*
%TO.C,U5*%
X101732038Y-69658797D03*
X101732038Y-70058796D03*
X101732038Y-70458798D03*
X101732038Y-70858797D03*
X101732038Y-71258796D03*
X101732038Y-71658798D03*
X101732038Y-72058797D03*
X104729238Y-72058797D03*
X104729238Y-71658798D03*
X104729238Y-71258796D03*
X104729238Y-70858797D03*
X104729238Y-70458798D03*
X104729238Y-70058796D03*
X104729238Y-69658797D03*
D48*
X103230638Y-70858797D03*
%TD*%
D43*
%TO.C,SW2*%
X96950000Y-93550000D03*
D42*
X101950000Y-93550000D03*
D44*
X99450000Y-93550000D03*
%TD*%
D49*
%TO.C,C4a1*%
X69700000Y-79666100D03*
X69700000Y-76716100D03*
%TD*%
D29*
%TO.C,C_SYS7*%
X132040562Y-111168296D03*
X133940562Y-111168296D03*
%TD*%
D37*
%TO.C,R_ALRT1*%
X133075000Y-90520000D03*
X134725000Y-90520000D03*
%TD*%
D40*
%TO.C,R5*%
X73975000Y-81691100D03*
X72325000Y-81691100D03*
%TD*%
D16*
%TO.C,R14*%
X120300062Y-95383796D03*
X120300062Y-97033796D03*
%TD*%
D15*
%TO.C,R_SENSE2*%
X87125062Y-131183796D03*
X87125062Y-129533796D03*
%TD*%
D51*
%TO.C,D4*%
X105200062Y-99108796D03*
X109600062Y-99108796D03*
%TD*%
D50*
%TO.C,TP2*%
X110500000Y-109150000D03*
%TD*%
D29*
%TO.C,C_SYS6*%
X125175062Y-77383796D03*
X127075062Y-77383796D03*
%TD*%
D16*
%TO.C,R_SENSE3*%
X113544378Y-67783796D03*
X113544378Y-69433796D03*
%TD*%
D29*
%TO.C,C_SYS4*%
X89400062Y-110958796D03*
X91300062Y-110958796D03*
%TD*%
D37*
%TO.C,R_SCL4*%
X133075000Y-100720000D03*
X134725000Y-100720000D03*
%TD*%
D54*
%TO.C,C_PVIN2*%
X78100062Y-106596196D03*
X76200062Y-106596196D03*
%TD*%
D35*
%TO.C,J3*%
X137200000Y-80380000D03*
D36*
X137200000Y-82920000D03*
X137200000Y-85460000D03*
X137200000Y-88000000D03*
X137200000Y-90540000D03*
X137200000Y-93080000D03*
X137200000Y-95620000D03*
X137200000Y-98160000D03*
X137200000Y-100700000D03*
%TD*%
D17*
%TO.C,C_SS1*%
X76071942Y-98693078D03*
X76071942Y-97143078D03*
%TD*%
D56*
%TO.C,U6*%
X77724920Y-82191180D03*
D57*
X78624999Y-81791099D03*
X78624999Y-81291100D03*
X78624999Y-80791099D03*
X78624999Y-80291100D03*
X78624999Y-79791101D03*
X78624999Y-79291099D03*
X78624999Y-78791100D03*
X78624999Y-78291099D03*
D56*
X77724920Y-77891178D03*
X76224918Y-77891178D03*
D57*
X75325001Y-78291099D03*
X75325001Y-78791100D03*
X75325001Y-79291099D03*
X75325001Y-79791101D03*
X75325001Y-80291100D03*
X75325001Y-80791099D03*
X75325001Y-81291100D03*
X75325001Y-81791099D03*
D56*
X76224918Y-82191180D03*
D58*
X76975000Y-81841179D03*
%TD*%
D18*
%TO.C,U8*%
X84700061Y-113508797D03*
X84700061Y-113908796D03*
X84700061Y-114308796D03*
X84700061Y-114708795D03*
D11*
X84750061Y-115558796D03*
X85150063Y-115558796D03*
X85550062Y-115558796D03*
X85950061Y-115558796D03*
X86350063Y-115558796D03*
D18*
X86400063Y-114708795D03*
X86400063Y-114308796D03*
X86400063Y-113908796D03*
X86400063Y-113508797D03*
D11*
X86350063Y-112658796D03*
X85950061Y-112658796D03*
X85550062Y-112658796D03*
X85150063Y-112658796D03*
X84750061Y-112658796D03*
%TD*%
D53*
%TO.C,C_OUT2*%
X72500062Y-101446196D03*
X72500062Y-103346196D03*
%TD*%
D16*
%TO.C,R_STAT3*%
X121725062Y-72008796D03*
X121725062Y-73658796D03*
%TD*%
D33*
%TO.C,C15*%
X117325062Y-95808796D03*
X115775062Y-95808796D03*
%TD*%
D59*
%TO.C,U2*%
X71718761Y-106252495D03*
X71718761Y-106752496D03*
X71718761Y-107252496D03*
X71718761Y-107752497D03*
D60*
X72443573Y-108477497D03*
X72943699Y-108477497D03*
X73443825Y-108477497D03*
X73943951Y-108477497D03*
D59*
X74668763Y-107752497D03*
X74668763Y-107252496D03*
X74668763Y-106752496D03*
X74668763Y-106252495D03*
D60*
X73943951Y-105527495D03*
X73443825Y-105527495D03*
X72943699Y-105527495D03*
X72443573Y-105527495D03*
D61*
X72800062Y-106608796D03*
X72800062Y-107396196D03*
X73587462Y-106608796D03*
X73587462Y-107396196D03*
%TD*%
D21*
%TO.C,C_REG5*%
X85625062Y-129583796D03*
X85625062Y-131133796D03*
%TD*%
D53*
%TO.C,C1*%
X84150000Y-75491100D03*
X84150000Y-77391100D03*
%TD*%
D35*
%TO.C,J4*%
X137200000Y-105618796D03*
D36*
X137200000Y-108158796D03*
%TD*%
D16*
%TO.C,R4*%
X75300000Y-83291100D03*
X75300000Y-84941100D03*
%TD*%
D27*
%TO.C,L_4*%
X123490562Y-112236296D03*
X123490562Y-114236296D03*
%TD*%
D33*
%TO.C,C_REG8*%
X122865562Y-122386296D03*
X121315562Y-122386296D03*
%TD*%
D15*
%TO.C,R_L3*%
X121725062Y-86758796D03*
X121725062Y-85108796D03*
%TD*%
%TO.C,R_ACOK1*%
X92100062Y-72133796D03*
X92100062Y-70483796D03*
%TD*%
M02*
