%TF.GenerationSoftware,KiCad,Pcbnew,10.0.1*%
%TF.CreationDate,2026-08-30T16:40:09-07:00*%
%TF.ProjectId,EPS_V1,4550535f-5631-42e6-9b69-6361645f7063,rev?*%
%TF.SameCoordinates,Original*%
%TF.FileFunction,Paste,Top*%
%TF.FilePolarity,Positive*%
%FSLAX46Y46*%
G04 Gerber Fmt 4.6, Leading zero omitted, Abs format (unit mm)*
G04 Created by KiCad (PCBNEW 10.0.1) date 2026-08-30 16:40:09*
%MOMM*%
%LPD*%
G01*
G04 APERTURE LIST*
G04 Aperture macros list*
%AMRoundRect*
0 Rectangle with rounded corners*
0 $1 Rounding radius*
0 $2 $3 $4 $5 $6 $7 $8 $9 X,Y pos of 4 corners*
0 Add a 4 corners polygon primitive as box body*
4,1,4,$2,$3,$4,$5,$6,$7,$8,$9,$2,$3,0*
0 Add four circle primitives for the rounded corners*
1,1,$1+$1,$2,$3*
1,1,$1+$1,$4,$5*
1,1,$1+$1,$6,$7*
1,1,$1+$1,$8,$9*
0 Add four rect primitives between the rounded corners*
20,1,$1+$1,$2,$3,$4,$5,0*
20,1,$1+$1,$4,$5,$6,$7,0*
20,1,$1+$1,$6,$7,$8,$9,0*
20,1,$1+$1,$8,$9,$2,$3,0*%
%AMFreePoly0*
4,1,21,0.390081,-0.275075,1.025081,-0.275075,1.025081,-3.325082,0.390081,-3.325082,0.390078,-4.050006,0.160078,-4.050006,0.160081,-3.725081,-0.159918,-3.725081,-0.159921,-4.050003,-0.389920,-4.050003,-0.389918,-3.325082,-1.024918,-3.325082,-1.024918,-0.275075,-0.389918,-0.275075,-0.389920,0.449996,-0.159921,0.449996,-0.159918,0.124924,0.160081,0.124924,0.160078,0.449998,0.390078,0.449998,
0.390081,-0.275075,0.390081,-0.275075,$1*%
G04 Aperture macros list end*
%ADD10C,0.000000*%
%ADD11R,0.203200X0.711200*%
%ADD12R,2.387600X1.701800*%
%ADD13RoundRect,0.250000X0.475000X-0.250000X0.475000X0.250000X-0.475000X0.250000X-0.475000X-0.250000X0*%
%ADD14RoundRect,0.250000X-1.500000X-0.550000X1.500000X-0.550000X1.500000X0.550000X-1.500000X0.550000X0*%
%ADD15RoundRect,0.200000X0.275000X-0.200000X0.275000X0.200000X-0.275000X0.200000X-0.275000X-0.200000X0*%
%ADD16RoundRect,0.200000X-0.275000X0.200000X-0.275000X-0.200000X0.275000X-0.200000X0.275000X0.200000X0*%
%ADD17RoundRect,0.225000X0.250000X-0.225000X0.250000X0.225000X-0.250000X0.225000X-0.250000X-0.225000X0*%
%ADD18R,0.889000X0.203200*%
%ADD19RoundRect,0.243750X0.456250X-0.243750X0.456250X0.243750X-0.456250X0.243750X-0.456250X-0.243750X0*%
%ADD20RoundRect,0.250000X0.800000X-0.450000X0.800000X0.450000X-0.800000X0.450000X-0.800000X-0.450000X0*%
%ADD21RoundRect,0.225000X-0.250000X0.225000X-0.250000X-0.225000X0.250000X-0.225000X0.250000X0.225000X0*%
%ADD22R,0.599999X0.240000*%
%ADD23R,0.240000X0.599999*%
%ADD24RoundRect,0.225000X-0.225000X-0.250000X0.225000X-0.250000X0.225000X0.250000X-0.225000X0.250000X0*%
%ADD25R,2.000000X0.800000*%
%ADD26R,4.013200X2.006600*%
%ADD27RoundRect,0.250000X-0.250000X-0.475000X0.250000X-0.475000X0.250000X0.475000X-0.250000X0.475000X0*%
%ADD28R,0.711200X0.254000*%
%ADD29R,0.254000X0.711200*%
%ADD30R,0.254000X1.193800*%
%ADD31RoundRect,0.225000X0.225000X0.250000X-0.225000X0.250000X-0.225000X-0.250000X0.225000X-0.250000X0*%
%ADD32R,2.006600X4.013200*%
%ADD33RoundRect,0.200000X-0.200000X-0.275000X0.200000X-0.275000X0.200000X0.275000X-0.200000X0.275000X0*%
%ADD34R,1.050000X0.399999*%
%ADD35R,0.200000X0.599999*%
%ADD36RoundRect,0.200000X0.200000X0.275000X-0.200000X0.275000X-0.200000X-0.275000X0.200000X-0.275000X0*%
%ADD37R,2.950000X3.500000*%
%ADD38R,0.711200X0.203200*%
%ADD39R,1.701800X2.387600*%
%ADD40RoundRect,0.250000X0.650000X-0.325000X0.650000X0.325000X-0.650000X0.325000X-0.650000X-0.325000X0*%
%ADD41RoundRect,0.250000X-0.450000X-0.800000X0.450000X-0.800000X0.450000X0.800000X-0.450000X0.800000X0*%
%ADD42RoundRect,0.250000X-0.800000X0.450000X-0.800000X-0.450000X0.800000X-0.450000X0.800000X0.450000X0*%
%ADD43RoundRect,0.250000X-0.475000X0.250000X-0.475000X-0.250000X0.475000X-0.250000X0.475000X0.250000X0*%
%ADD44RoundRect,0.250000X0.250000X0.475000X-0.250000X0.475000X-0.250000X-0.475000X0.250000X-0.475000X0*%
%ADD45RoundRect,0.250000X1.500000X0.550000X-1.500000X0.550000X-1.500000X-0.550000X1.500000X-0.550000X0*%
%ADD46O,0.240000X0.599999*%
%ADD47O,0.599999X0.240000*%
%ADD48FreePoly0,180.000000*%
G04 APERTURE END LIST*
D10*
%TO.C,U12*%
G36*
X127847862Y-111797697D02*
G01*
X127847862Y-111850897D01*
X126857262Y-111850897D01*
X126857262Y-111647697D01*
X127697862Y-111647697D01*
X127847862Y-111797697D01*
G37*
%TO.C,U3*%
G36*
X73859512Y-95193973D02*
G01*
X73868237Y-95196620D01*
X73876276Y-95200915D01*
X73883322Y-95206698D01*
X73889105Y-95213744D01*
X73893400Y-95221783D01*
X73896047Y-95230508D01*
X73896941Y-95239579D01*
X73896941Y-96696578D01*
X73896047Y-96705649D01*
X73893400Y-96714374D01*
X73889105Y-96722413D01*
X73883322Y-96729459D01*
X73876276Y-96735242D01*
X73868237Y-96739537D01*
X73859512Y-96742184D01*
X73850441Y-96743078D01*
X72393442Y-96743078D01*
X72384371Y-96742184D01*
X72375646Y-96739537D01*
X72367607Y-96735242D01*
X72360561Y-96729459D01*
X72354778Y-96722413D01*
X72350483Y-96714374D01*
X72347836Y-96705649D01*
X72346942Y-96696578D01*
X72346942Y-95239579D01*
X72347836Y-95230508D01*
X72350483Y-95221783D01*
X72354778Y-95213744D01*
X72360561Y-95206698D01*
X72367607Y-95200915D01*
X72375646Y-95196620D01*
X72384371Y-95193973D01*
X72393442Y-95193079D01*
X73850441Y-95193079D01*
X73859512Y-95193973D01*
G37*
%TO.C,U1*%
G36*
X92896361Y-78457197D02*
G01*
X92896361Y-78510397D01*
X91905761Y-78510397D01*
X91905761Y-78307197D01*
X92746361Y-78307197D01*
X92896361Y-78457197D01*
G37*
%TO.C,U10*%
G36*
X121021361Y-79982197D02*
G01*
X121021361Y-80035397D01*
X120030761Y-80035397D01*
X120030761Y-79832197D01*
X120871361Y-79832197D01*
X121021361Y-79982197D01*
G37*
%TO.C,U6*%
G36*
X76875000Y-79941182D02*
G01*
X75957999Y-79941182D01*
X75957999Y-78613181D01*
X76875000Y-78613181D01*
X76875000Y-79941182D01*
G37*
G36*
X76875000Y-81469180D02*
G01*
X75957999Y-81469180D01*
X75957999Y-80141179D01*
X76875000Y-80141179D01*
X76875000Y-81469180D01*
G37*
G36*
X77992001Y-79941182D02*
G01*
X77075000Y-79941182D01*
X77075000Y-78613181D01*
X77992001Y-78613181D01*
X77992001Y-79941182D01*
G37*
G36*
X77992001Y-81469180D02*
G01*
X77075000Y-81469180D01*
X77075000Y-80141179D01*
X77992001Y-80141179D01*
X77992001Y-81469180D01*
G37*
G36*
X77364918Y-78413181D02*
G01*
X76584917Y-78413181D01*
X76584917Y-78116182D01*
X77364918Y-78116182D01*
X77364918Y-78413181D01*
G37*
G36*
X77364918Y-81966179D02*
G01*
X76584917Y-81966179D01*
X76584917Y-81669179D01*
X77364918Y-81669179D01*
X77364918Y-81966179D01*
G37*
%TO.C,U8*%
G36*
X85246361Y-113557197D02*
G01*
X85246361Y-113610397D01*
X84255761Y-113610397D01*
X84255761Y-113407197D01*
X85096361Y-113407197D01*
X85246361Y-113557197D01*
G37*
%TO.C,U2*%
G36*
X72118870Y-106367605D02*
G01*
X71318655Y-106367605D01*
X71318655Y-106137387D01*
X72118870Y-106137387D01*
X72118870Y-106367605D01*
G37*
G36*
X72118870Y-106867604D02*
G01*
X71318655Y-106867604D01*
X71318655Y-106637389D01*
X72118870Y-106637389D01*
X72118870Y-106867604D01*
G37*
G36*
X72118870Y-107367603D02*
G01*
X71318655Y-107367603D01*
X71318655Y-107137388D01*
X72118870Y-107137388D01*
X72118870Y-107367603D01*
G37*
G36*
X72118870Y-107867605D02*
G01*
X71318655Y-107867605D01*
X71318655Y-107637387D01*
X72118870Y-107637387D01*
X72118870Y-107867605D01*
G37*
G36*
X72558681Y-105927604D02*
G01*
X72328465Y-105927604D01*
X72328465Y-105127389D01*
X72558681Y-105127389D01*
X72558681Y-105927604D01*
G37*
G36*
X72558681Y-108877603D02*
G01*
X72328465Y-108877603D01*
X72328465Y-108077388D01*
X72558681Y-108077388D01*
X72558681Y-108877603D01*
G37*
G36*
X73058807Y-105927604D02*
G01*
X72828591Y-105927604D01*
X72828591Y-105127389D01*
X73058807Y-105127389D01*
X73058807Y-105927604D01*
G37*
G36*
X73058807Y-108877603D02*
G01*
X72828591Y-108877603D01*
X72828591Y-108077388D01*
X73058807Y-108077388D01*
X73058807Y-108877603D01*
G37*
G36*
X73558933Y-105927604D02*
G01*
X73328717Y-105927604D01*
X73328717Y-105127389D01*
X73558933Y-105127389D01*
X73558933Y-105927604D01*
G37*
G36*
X73558933Y-108877603D02*
G01*
X73328717Y-108877603D01*
X73328717Y-108077388D01*
X73558933Y-108077388D01*
X73558933Y-108877603D01*
G37*
G36*
X74059059Y-105927604D02*
G01*
X73828843Y-105927604D01*
X73828843Y-105127389D01*
X74059059Y-105127389D01*
X74059059Y-105927604D01*
G37*
G36*
X74059059Y-108877603D02*
G01*
X73828843Y-108877603D01*
X73828843Y-108077388D01*
X74059059Y-108077388D01*
X74059059Y-108877603D01*
G37*
G36*
X75068869Y-106367605D02*
G01*
X74268654Y-106367605D01*
X74268654Y-106137387D01*
X75068869Y-106137387D01*
X75068869Y-106367605D01*
G37*
G36*
X75068869Y-106867604D02*
G01*
X74268654Y-106867604D01*
X74268654Y-106637389D01*
X75068869Y-106637389D01*
X75068869Y-106867604D01*
G37*
G36*
X75068869Y-107367603D02*
G01*
X74268654Y-107367603D01*
X74268654Y-107137388D01*
X75068869Y-107137388D01*
X75068869Y-107367603D01*
G37*
G36*
X75068869Y-107867605D02*
G01*
X74268654Y-107867605D01*
X74268654Y-107637387D01*
X75068869Y-107637387D01*
X75068869Y-107867605D01*
G37*
G36*
X72700062Y-106367375D02*
G01*
X72558641Y-106508796D01*
X72418692Y-106508796D01*
X72418692Y-106227426D01*
X72700062Y-106227426D01*
X72700062Y-106367375D01*
G37*
G36*
X72700062Y-107637617D02*
G01*
X72700062Y-107777566D01*
X72418692Y-107777566D01*
X72418692Y-107496196D01*
X72558641Y-107496196D01*
X72700062Y-107637617D01*
G37*
G36*
X73968832Y-106508796D02*
G01*
X73828883Y-106508796D01*
X73687462Y-106367375D01*
X73687462Y-106227426D01*
X73968832Y-106227426D01*
X73968832Y-106508796D01*
G37*
G36*
X73968832Y-107777566D02*
G01*
X73687462Y-107777566D01*
X73687462Y-107637617D01*
X73828883Y-107496196D01*
X73968832Y-107496196D01*
X73968832Y-107777566D01*
G37*
G36*
X72700062Y-106850217D02*
G01*
X72700062Y-107154775D01*
X72558641Y-107296196D01*
X72418692Y-107296196D01*
X72418692Y-106708796D01*
X72558641Y-106708796D01*
X72700062Y-106850217D01*
G37*
G36*
X73487462Y-106367375D02*
G01*
X73346041Y-106508796D01*
X73041483Y-106508796D01*
X72900062Y-106367375D01*
X72900062Y-106227426D01*
X73487462Y-106227426D01*
X73487462Y-106367375D01*
G37*
G36*
X73487462Y-107637617D02*
G01*
X73487462Y-107777566D01*
X72900062Y-107777566D01*
X72900062Y-107637617D01*
X73041483Y-107496196D01*
X73346041Y-107496196D01*
X73487462Y-107637617D01*
G37*
G36*
X73968832Y-107296196D02*
G01*
X73828883Y-107296196D01*
X73687462Y-107154775D01*
X73687462Y-106850217D01*
X73828883Y-106708796D01*
X73968832Y-106708796D01*
X73968832Y-107296196D01*
G37*
G36*
X73487462Y-106850217D02*
G01*
X73487462Y-107154775D01*
X73346041Y-107296196D01*
X73041483Y-107296196D01*
X72900062Y-107154775D01*
X72900062Y-106850217D01*
X73041483Y-106708796D01*
X73346041Y-106708796D01*
X73487462Y-106850217D01*
G37*
%TD*%
D11*
%TO.C,U9*%
X85975062Y-127781596D03*
X86375061Y-127781596D03*
X86775063Y-127781596D03*
X87175062Y-127781596D03*
X87575061Y-127781596D03*
X87975063Y-127781596D03*
X88375062Y-127781596D03*
X88375062Y-124784396D03*
X87975063Y-124784396D03*
X87575061Y-124784396D03*
X87175062Y-124784396D03*
X86775063Y-124784396D03*
X86375061Y-124784396D03*
X85975062Y-124784396D03*
D12*
X87175062Y-126282996D03*
%TD*%
D13*
%TO.C,C_IN4*%
X124840562Y-110836296D03*
X124840562Y-108936296D03*
%TD*%
D14*
%TO.C,C16*%
X110150000Y-127150000D03*
X115750000Y-127150000D03*
%TD*%
D15*
%TO.C,R_ACOK2*%
X84500062Y-107196296D03*
X84500062Y-105546296D03*
%TD*%
D16*
%TO.C,R_T6*%
X123225062Y-85108796D03*
X123225062Y-86758796D03*
%TD*%
D17*
%TO.C,C_VCC2*%
X83950062Y-120158796D03*
X83950062Y-118608796D03*
%TD*%
D18*
%TO.C,U12*%
X127301562Y-111749297D03*
X127301562Y-112149296D03*
X127301562Y-112549296D03*
X127301562Y-112949295D03*
D11*
X127351562Y-113799296D03*
X127751564Y-113799296D03*
X128151563Y-113799296D03*
X128551562Y-113799296D03*
X128951564Y-113799296D03*
D18*
X129001564Y-112949295D03*
X129001564Y-112549296D03*
X129001564Y-112149296D03*
X129001564Y-111749297D03*
D11*
X128951564Y-110899296D03*
X128551562Y-110899296D03*
X128151563Y-110899296D03*
X127751564Y-110899296D03*
X127351562Y-110899296D03*
%TD*%
D19*
%TO.C,LED_ACOK4*%
X126790562Y-108761296D03*
X126790562Y-106886296D03*
%TD*%
D15*
%TO.C,R_ACOK3*%
X120225062Y-73658796D03*
X120225062Y-72008796D03*
%TD*%
D20*
%TO.C,D1*%
X105750062Y-93508796D03*
X105750062Y-89108796D03*
%TD*%
D21*
%TO.C,C11*%
X104700000Y-131225000D03*
X104700000Y-132775000D03*
%TD*%
%TO.C,C5*%
X73800000Y-83341100D03*
X73800000Y-84891100D03*
%TD*%
D22*
%TO.C,U3*%
X71721942Y-95218077D03*
X71721942Y-95718076D03*
X71721942Y-96218078D03*
X71721942Y-96718077D03*
D23*
X72371943Y-97368078D03*
X72871942Y-97368078D03*
X73371944Y-97368078D03*
X73871943Y-97368078D03*
D22*
X74521941Y-96718077D03*
X74521941Y-96218078D03*
X74521941Y-95718076D03*
X74521941Y-95218077D03*
D23*
X73871943Y-94568079D03*
X73371944Y-94568079D03*
X72871942Y-94568079D03*
X72371943Y-94568079D03*
%TD*%
D19*
%TO.C,LED_STAT1*%
X93800062Y-75446296D03*
X93800062Y-73571296D03*
%TD*%
D15*
%TO.C,R_ACOK4*%
X126990562Y-105448796D03*
X126990562Y-103798796D03*
%TD*%
D24*
%TO.C,C_REG3*%
X98255638Y-67408797D03*
X99805638Y-67408797D03*
%TD*%
D25*
%TO.C,L_3*%
X116525062Y-80383796D03*
X116525062Y-82383796D03*
%TD*%
D19*
%TO.C,LED_STAT2*%
X86200062Y-110508796D03*
X86200062Y-108633796D03*
%TD*%
D17*
%TO.C,C_VCC4*%
X126628562Y-118486296D03*
X126628562Y-116936296D03*
%TD*%
%TO.C,C12*%
X107350000Y-130900000D03*
X107350000Y-129350000D03*
%TD*%
D26*
%TO.C,L_SW2*%
X68700062Y-106855096D03*
X68700062Y-104137296D03*
%TD*%
D27*
%TO.C,C_SYS5*%
X125175062Y-79383796D03*
X127075062Y-79383796D03*
%TD*%
%TO.C,C_BATT5*%
X125175062Y-81733796D03*
X127075062Y-81733796D03*
%TD*%
D28*
%TO.C,U4*%
X103000000Y-126808709D03*
X103000000Y-127308710D03*
X103000000Y-127808710D03*
X103000000Y-128308711D03*
D29*
X103699938Y-129008796D03*
D30*
X104200064Y-128767496D03*
X104700000Y-128767496D03*
D29*
X105200062Y-129008796D03*
D28*
X105900000Y-128308711D03*
X105900000Y-127808710D03*
X105900000Y-127308710D03*
X105900000Y-126808709D03*
D29*
X105200001Y-126108710D03*
D30*
X104700000Y-126350000D03*
X104200000Y-126350000D03*
D29*
X103699999Y-126108710D03*
%TD*%
D31*
%TO.C,C14*%
X106725000Y-123950000D03*
X105175000Y-123950000D03*
%TD*%
D16*
%TO.C,R_T8*%
X130028562Y-116886296D03*
X130028562Y-118536296D03*
%TD*%
D32*
%TO.C,L1*%
X84058900Y-80891100D03*
X81341100Y-80891100D03*
%TD*%
D25*
%TO.C,L_1*%
X88500062Y-78908796D03*
X88500062Y-80908796D03*
%TD*%
D17*
%TO.C,C9*%
X73900000Y-79766100D03*
X73900000Y-78216100D03*
%TD*%
D13*
%TO.C,C_IN3*%
X118025062Y-78983796D03*
X118025062Y-77083796D03*
%TD*%
D33*
%TO.C,R_SDA4*%
X133075000Y-98170000D03*
X134725000Y-98170000D03*
%TD*%
D24*
%TO.C,C_REG9*%
X121315562Y-120536296D03*
X122865562Y-120536296D03*
%TD*%
D21*
%TO.C,C_AVIN2*%
X74250062Y-101821196D03*
X74250062Y-103371196D03*
%TD*%
D34*
%TO.C,U7*%
X117375062Y-97983798D03*
X117375062Y-98683797D03*
D35*
X117300061Y-99458796D03*
X117800062Y-99458796D03*
X118300062Y-99458796D03*
X118800063Y-99458796D03*
D34*
X118725062Y-98683797D03*
X118725062Y-97983798D03*
D35*
X118800063Y-97158798D03*
X118300062Y-97158798D03*
X117800062Y-97158798D03*
X117300061Y-97158798D03*
%TD*%
D36*
%TO.C,R12*%
X117375062Y-101258796D03*
X115725062Y-101258796D03*
%TD*%
D17*
%TO.C,C_SS2*%
X76150062Y-109871196D03*
X76150062Y-108321196D03*
%TD*%
D26*
%TO.C,L_SW1*%
X68671942Y-95876978D03*
X68671942Y-93159178D03*
%TD*%
D33*
%TO.C,R_SDA1*%
X133075000Y-80370000D03*
X134725000Y-80370000D03*
%TD*%
D16*
%TO.C,R15*%
X118800062Y-94233796D03*
X118800062Y-95883796D03*
%TD*%
D17*
%TO.C,C_BST4*%
X125690562Y-113836296D03*
X125690562Y-112286296D03*
%TD*%
D24*
%TO.C,C10*%
X98775000Y-132050000D03*
X100325000Y-132050000D03*
%TD*%
D31*
%TO.C,C_REG2*%
X99805638Y-69258797D03*
X98255638Y-69258797D03*
%TD*%
D17*
%TO.C,C_BST2*%
X83050062Y-115646296D03*
X83050062Y-114096296D03*
%TD*%
D15*
%TO.C,R11*%
X103200000Y-132825000D03*
X103200000Y-131175000D03*
%TD*%
D13*
%TO.C,C_IN2*%
X82350062Y-112621296D03*
X82350062Y-110721296D03*
%TD*%
D27*
%TO.C,C_BATT7*%
X132040562Y-113486296D03*
X133940562Y-113486296D03*
%TD*%
D18*
%TO.C,U1*%
X92350061Y-78408797D03*
X92350061Y-78808796D03*
X92350061Y-79208796D03*
X92350061Y-79608795D03*
D11*
X92400061Y-80458796D03*
X92800063Y-80458796D03*
X93200062Y-80458796D03*
X93600061Y-80458796D03*
X94000063Y-80458796D03*
D18*
X94050063Y-79608795D03*
X94050063Y-79208796D03*
X94050063Y-78808796D03*
X94050063Y-78408797D03*
D11*
X94000063Y-77558796D03*
X93600061Y-77558796D03*
X93200062Y-77558796D03*
X92800063Y-77558796D03*
X92400061Y-77558796D03*
%TD*%
D36*
%TO.C,R_MID2*%
X90975062Y-117250000D03*
X89325062Y-117250000D03*
%TD*%
D19*
%TO.C,LED_STAT4*%
X128690562Y-108761296D03*
X128690562Y-106886296D03*
%TD*%
D16*
%TO.C,R_T2*%
X95100062Y-83533796D03*
X95100062Y-85183796D03*
%TD*%
D15*
%TO.C,R_L2*%
X86050062Y-120208796D03*
X86050062Y-118558796D03*
%TD*%
D16*
%TO.C,R_T4*%
X87550062Y-118558796D03*
X87550062Y-120208796D03*
%TD*%
D36*
%TO.C,R_MID4*%
X133578562Y-115389296D03*
X131928562Y-115389296D03*
%TD*%
D37*
%TO.C,L2*%
X101675000Y-119650000D03*
X107125000Y-119650000D03*
%TD*%
D11*
%TO.C,U11*%
X114694378Y-71210196D03*
X114294379Y-71210196D03*
X113894377Y-71210196D03*
X113494378Y-71210196D03*
X113094379Y-71210196D03*
X112694377Y-71210196D03*
X112294378Y-71210196D03*
X112294378Y-74207396D03*
X112694377Y-74207396D03*
X113094379Y-74207396D03*
X113494378Y-74207396D03*
X113894377Y-74207396D03*
X114294379Y-74207396D03*
X114694378Y-74207396D03*
D12*
X113494378Y-72708796D03*
%TD*%
D17*
%TO.C,C_REG4*%
X83775062Y-131133796D03*
X83775062Y-129583796D03*
%TD*%
D15*
%TO.C,R_L4*%
X128528562Y-118536296D03*
X128528562Y-116886296D03*
%TD*%
D36*
%TO.C,R_MID1*%
X98625062Y-82058796D03*
X96975062Y-82058796D03*
%TD*%
D17*
%TO.C,C_BST1*%
X90700062Y-80483796D03*
X90700062Y-78933796D03*
%TD*%
D19*
%TO.C,D5*%
X122050062Y-96896296D03*
X122050062Y-95021296D03*
%TD*%
D27*
%TO.C,C_SYS8*%
X132040562Y-109168296D03*
X133940562Y-109168296D03*
%TD*%
D25*
%TO.C,L_2*%
X80850062Y-114021296D03*
X80850062Y-116021296D03*
%TD*%
D38*
%TO.C,U13*%
X119514162Y-120186296D03*
X119514162Y-119786297D03*
X119514162Y-119386295D03*
X119514162Y-118986296D03*
X119514162Y-118586297D03*
X119514162Y-118186295D03*
X119514162Y-117786296D03*
X116516962Y-117786296D03*
X116516962Y-118186295D03*
X116516962Y-118586297D03*
X116516962Y-118986296D03*
X116516962Y-119386295D03*
X116516962Y-119786297D03*
X116516962Y-120186296D03*
D39*
X118015562Y-118986296D03*
%TD*%
D18*
%TO.C,U10*%
X120475061Y-79933797D03*
X120475061Y-80333796D03*
X120475061Y-80733796D03*
X120475061Y-81133795D03*
D11*
X120525061Y-81983796D03*
X120925063Y-81983796D03*
X121325062Y-81983796D03*
X121725061Y-81983796D03*
X122125063Y-81983796D03*
D18*
X122175063Y-81133795D03*
X122175063Y-80733796D03*
X122175063Y-80333796D03*
X122175063Y-79933797D03*
D11*
X122125063Y-79083796D03*
X121725061Y-79083796D03*
X121325062Y-79083796D03*
X120925063Y-79083796D03*
X120525061Y-79083796D03*
%TD*%
D21*
%TO.C,C2*%
X82400000Y-75866100D03*
X82400000Y-77416100D03*
%TD*%
D33*
%TO.C,R_SENSE1*%
X98205638Y-70758797D03*
X99855638Y-70758797D03*
%TD*%
D17*
%TO.C,C3*%
X77750000Y-84916100D03*
X77750000Y-83366100D03*
%TD*%
D16*
%TO.C,R_STAT4*%
X128490562Y-103798796D03*
X128490562Y-105448796D03*
%TD*%
D27*
%TO.C,C_BATT1*%
X97100062Y-80158796D03*
X99000062Y-80158796D03*
%TD*%
%TO.C,C_SYS3*%
X89400062Y-112958796D03*
X91300062Y-112958796D03*
%TD*%
D33*
%TO.C,R6*%
X120225062Y-99658796D03*
X121875062Y-99658796D03*
%TD*%
D40*
%TO.C,C4b1*%
X72000000Y-79666100D03*
X72000000Y-76716100D03*
%TD*%
D19*
%TO.C,LED_ACOK2*%
X84300062Y-110508796D03*
X84300062Y-108633796D03*
%TD*%
D36*
%TO.C,R_MID3*%
X126700062Y-83633796D03*
X125050062Y-83633796D03*
%TD*%
D27*
%TO.C,C_SYS1*%
X97100062Y-77858796D03*
X99000062Y-77858796D03*
%TD*%
D41*
%TO.C,D3*%
X105200062Y-96058796D03*
X109600062Y-96058796D03*
%TD*%
D16*
%TO.C,R_STAT1*%
X93600062Y-70483796D03*
X93600062Y-72133796D03*
%TD*%
%TO.C,R_STAT2*%
X86000062Y-105546296D03*
X86000062Y-107196296D03*
%TD*%
D21*
%TO.C,C_REG6*%
X116994378Y-67833796D03*
X116994378Y-69383796D03*
%TD*%
%TO.C,C_AVIN1*%
X74221942Y-90793078D03*
X74221942Y-92343078D03*
%TD*%
D17*
%TO.C,C_REG7*%
X115044378Y-69383796D03*
X115044378Y-67833796D03*
%TD*%
D15*
%TO.C,R_L1*%
X93600062Y-85183796D03*
X93600062Y-83533796D03*
%TD*%
D42*
%TO.C,D2*%
X105750062Y-101608796D03*
X105750062Y-106008796D03*
%TD*%
D33*
%TO.C,R_SDA2*%
X133075000Y-93070000D03*
X134725000Y-93070000D03*
%TD*%
%TO.C,R_SCL1*%
X133075000Y-82920000D03*
X134725000Y-82920000D03*
%TD*%
D19*
%TO.C,LED_ACOK3*%
X119975062Y-76971296D03*
X119975062Y-75096296D03*
%TD*%
D24*
%TO.C,C13*%
X102175000Y-123950000D03*
X103725000Y-123950000D03*
%TD*%
D27*
%TO.C,C_SYS2*%
X97100062Y-75858796D03*
X99000062Y-75858796D03*
%TD*%
D19*
%TO.C,LED_ACOK1*%
X91850062Y-75446296D03*
X91850062Y-73571296D03*
%TD*%
D33*
%TO.C,R_SCL2*%
X133075000Y-95620000D03*
X134725000Y-95620000D03*
%TD*%
D13*
%TO.C,C_IN1*%
X89900062Y-77458796D03*
X89900062Y-75558796D03*
%TD*%
D17*
%TO.C,C_VCC1*%
X91600062Y-85133796D03*
X91600062Y-83583796D03*
%TD*%
D33*
%TO.C,R_SDA3*%
X133075000Y-85470000D03*
X134725000Y-85470000D03*
%TD*%
D27*
%TO.C,C_BATT3*%
X89400062Y-115158796D03*
X91300062Y-115158796D03*
%TD*%
D43*
%TO.C,C_OUT1*%
X72471942Y-90418078D03*
X72471942Y-92318078D03*
%TD*%
D40*
%TO.C,C4*%
X67400000Y-79666100D03*
X67400000Y-76716100D03*
%TD*%
D17*
%TO.C,C_BST3*%
X118725062Y-82008796D03*
X118725062Y-80458796D03*
%TD*%
D36*
%TO.C,R_SENSE4*%
X122915562Y-119036296D03*
X121265562Y-119036296D03*
%TD*%
D15*
%TO.C,R10*%
X100300000Y-130625000D03*
X100300000Y-128975000D03*
%TD*%
D33*
%TO.C,R_SCL3*%
X133075000Y-88020000D03*
X134725000Y-88020000D03*
%TD*%
D17*
%TO.C,C_VCC3*%
X119775062Y-86708796D03*
X119775062Y-85158796D03*
%TD*%
D19*
%TO.C,LED_STAT3*%
X121925062Y-76971296D03*
X121925062Y-75096296D03*
%TD*%
D33*
%TO.C,R8*%
X118725062Y-101258796D03*
X120375062Y-101258796D03*
%TD*%
D44*
%TO.C,C_PVIN1*%
X77971942Y-95418078D03*
X76071942Y-95418078D03*
%TD*%
D45*
%TO.C,C8*%
X98750000Y-127200000D03*
X93150000Y-127200000D03*
%TD*%
D38*
%TO.C,U5*%
X101732038Y-69658797D03*
X101732038Y-70058796D03*
X101732038Y-70458798D03*
X101732038Y-70858797D03*
X101732038Y-71258796D03*
X101732038Y-71658798D03*
X101732038Y-72058797D03*
X104729238Y-72058797D03*
X104729238Y-71658798D03*
X104729238Y-71258796D03*
X104729238Y-70858797D03*
X104729238Y-70458798D03*
X104729238Y-70058796D03*
X104729238Y-69658797D03*
D39*
X103230638Y-70858797D03*
%TD*%
D40*
%TO.C,C4a1*%
X69700000Y-79666100D03*
X69700000Y-76716100D03*
%TD*%
D27*
%TO.C,C_SYS7*%
X132040562Y-111168296D03*
X133940562Y-111168296D03*
%TD*%
D33*
%TO.C,R_ALRT1*%
X133075000Y-90520000D03*
X134725000Y-90520000D03*
%TD*%
D36*
%TO.C,R5*%
X73975000Y-81691100D03*
X72325000Y-81691100D03*
%TD*%
D16*
%TO.C,R14*%
X120300062Y-95383796D03*
X120300062Y-97033796D03*
%TD*%
D15*
%TO.C,R_SENSE2*%
X87125062Y-131183796D03*
X87125062Y-129533796D03*
%TD*%
D41*
%TO.C,D4*%
X105200062Y-99108796D03*
X109600062Y-99108796D03*
%TD*%
D27*
%TO.C,C_SYS6*%
X125175062Y-77383796D03*
X127075062Y-77383796D03*
%TD*%
D16*
%TO.C,R_SENSE3*%
X113544378Y-67783796D03*
X113544378Y-69433796D03*
%TD*%
D27*
%TO.C,C_SYS4*%
X89400062Y-110958796D03*
X91300062Y-110958796D03*
%TD*%
D33*
%TO.C,R_SCL4*%
X133075000Y-100720000D03*
X134725000Y-100720000D03*
%TD*%
D44*
%TO.C,C_PVIN2*%
X78100062Y-106596196D03*
X76200062Y-106596196D03*
%TD*%
D17*
%TO.C,C_SS1*%
X76071942Y-98693078D03*
X76071942Y-97143078D03*
%TD*%
D46*
%TO.C,U6*%
X77724920Y-82191180D03*
D47*
X78624999Y-81791099D03*
X78624999Y-81291100D03*
X78624999Y-80791099D03*
X78624999Y-80291100D03*
X78624999Y-79791101D03*
X78624999Y-79291099D03*
X78624999Y-78791100D03*
X78624999Y-78291099D03*
D46*
X77724920Y-77891178D03*
X76224918Y-77891178D03*
D47*
X75325001Y-78291099D03*
X75325001Y-78791100D03*
X75325001Y-79291099D03*
X75325001Y-79791101D03*
X75325001Y-80291100D03*
X75325001Y-80791099D03*
X75325001Y-81291100D03*
X75325001Y-81791099D03*
D46*
X76224918Y-82191180D03*
D48*
X76975000Y-81841179D03*
%TD*%
D18*
%TO.C,U8*%
X84700061Y-113508797D03*
X84700061Y-113908796D03*
X84700061Y-114308796D03*
X84700061Y-114708795D03*
D11*
X84750061Y-115558796D03*
X85150063Y-115558796D03*
X85550062Y-115558796D03*
X85950061Y-115558796D03*
X86350063Y-115558796D03*
D18*
X86400063Y-114708795D03*
X86400063Y-114308796D03*
X86400063Y-113908796D03*
X86400063Y-113508797D03*
D11*
X86350063Y-112658796D03*
X85950061Y-112658796D03*
X85550062Y-112658796D03*
X85150063Y-112658796D03*
X84750061Y-112658796D03*
%TD*%
D43*
%TO.C,C_OUT2*%
X72500062Y-101446196D03*
X72500062Y-103346196D03*
%TD*%
D16*
%TO.C,R_STAT3*%
X121725062Y-72008796D03*
X121725062Y-73658796D03*
%TD*%
D31*
%TO.C,C15*%
X117325062Y-95808796D03*
X115775062Y-95808796D03*
%TD*%
D21*
%TO.C,C_REG5*%
X85625062Y-129583796D03*
X85625062Y-131133796D03*
%TD*%
D43*
%TO.C,C1*%
X84150000Y-75491100D03*
X84150000Y-77391100D03*
%TD*%
D16*
%TO.C,R4*%
X75300000Y-83291100D03*
X75300000Y-84941100D03*
%TD*%
D25*
%TO.C,L_4*%
X123490562Y-112236296D03*
X123490562Y-114236296D03*
%TD*%
D31*
%TO.C,C_REG8*%
X122865562Y-122386296D03*
X121315562Y-122386296D03*
%TD*%
D15*
%TO.C,R_L3*%
X121725062Y-86758796D03*
X121725062Y-85108796D03*
%TD*%
%TO.C,R_ACOK1*%
X92100062Y-72133796D03*
X92100062Y-70483796D03*
%TD*%
M02*
