%TF.GenerationSoftware,KiCad,Pcbnew,10.0.1*%
%TF.CreationDate,2026-08-30T16:40:09-07:00*%
%TF.ProjectId,EPS_V1,4550535f-5631-42e6-9b69-6361645f7063,rev?*%
%TF.SameCoordinates,Original*%
%TF.FileFunction,Soldermask,Bot*%
%TF.FilePolarity,Negative*%
%FSLAX46Y46*%
G04 Gerber Fmt 4.6, Leading zero omitted, Abs format (unit mm)*
G04 Created by KiCad (PCBNEW 10.0.1) date 2026-08-30 16:40:09*
%MOMM*%
%LPD*%
G01*
G04 APERTURE LIST*
G04 Aperture macros list*
%AMRoundRect*
0 Rectangle with rounded corners*
0 $1 Rounding radius*
0 $2 $3 $4 $5 $6 $7 $8 $9 X,Y pos of 4 corners*
0 Add a 4 corners polygon primitive as box body*
4,1,4,$2,$3,$4,$5,$6,$7,$8,$9,$2,$3,0*
0 Add four circle primitives for the rounded corners*
1,1,$1+$1,$2,$3*
1,1,$1+$1,$4,$5*
1,1,$1+$1,$6,$7*
1,1,$1+$1,$8,$9*
0 Add four rect primitives between the rounded corners*
20,1,$1+$1,$2,$3,$4,$5,0*
20,1,$1+$1,$4,$5,$6,$7,0*
20,1,$1+$1,$6,$7,$8,$9,0*
20,1,$1+$1,$8,$9,$2,$3,0*%
%AMFreePoly0*
4,1,17,0.324495,0.719900,0.719900,0.324495,0.738500,0.279594,0.738500,-0.279594,0.719900,-0.324495,0.324495,-0.719900,0.279594,-0.738500,-0.279594,-0.738500,-0.324495,-0.719900,-0.719900,-0.324495,-0.738500,-0.279594,-0.738500,0.279594,-0.719900,0.324495,-0.324495,0.719900,-0.279594,0.738500,0.279594,0.738500,0.324495,0.719900,0.324495,0.719900,$1*%
G04 Aperture macros list end*
%ADD10C,0.499999*%
%ADD11R,1.700000X1.700000*%
%ADD12C,1.700000*%
%ADD13FreePoly0,315.000000*%
%ADD14FreePoly0,225.000000*%
%ADD15FreePoly0,270.000000*%
%ADD16FreePoly0,45.000000*%
%ADD17FreePoly0,90.000000*%
%ADD18C,0.508000*%
%ADD19RoundRect,0.200000X-0.275000X0.200000X-0.275000X-0.200000X0.275000X-0.200000X0.275000X0.200000X0*%
%ADD20RoundRect,0.225000X-0.250000X0.225000X-0.250000X-0.225000X0.250000X-0.225000X0.250000X0.225000X0*%
%ADD21RoundRect,0.200000X0.200000X0.275000X-0.200000X0.275000X-0.200000X-0.275000X0.200000X-0.275000X0*%
%ADD22RoundRect,0.200000X0.275000X-0.200000X0.275000X0.200000X-0.275000X0.200000X-0.275000X-0.200000X0*%
%ADD23RoundRect,0.218750X-0.218750X-0.256250X0.218750X-0.256250X0.218750X0.256250X-0.218750X0.256250X0*%
%ADD24RoundRect,0.200000X-0.200000X-0.275000X0.200000X-0.275000X0.200000X0.275000X-0.200000X0.275000X0*%
%ADD25RoundRect,0.225000X-0.225000X-0.250000X0.225000X-0.250000X0.225000X0.250000X-0.225000X0.250000X0*%
%ADD26RoundRect,0.250000X-0.475000X0.250000X-0.475000X-0.250000X0.475000X-0.250000X0.475000X0.250000X0*%
%ADD27RoundRect,0.225000X0.250000X-0.225000X0.250000X0.225000X-0.250000X0.225000X-0.250000X-0.225000X0*%
%ADD28RoundRect,0.225000X0.225000X0.250000X-0.225000X0.250000X-0.225000X-0.250000X0.225000X-0.250000X0*%
%ADD29RoundRect,0.250000X0.475000X-0.250000X0.475000X0.250000X-0.475000X0.250000X-0.475000X-0.250000X0*%
G04 APERTURE END LIST*
D10*
%TO.C,U3*%
X73711940Y-95378080D03*
X73711940Y-96558077D03*
X72531943Y-96558077D03*
X72531943Y-95378080D03*
X73121942Y-95968078D03*
%TD*%
D11*
%TO.C,J2*%
X62700000Y-69560000D03*
D12*
X62700000Y-72100000D03*
X62700000Y-74640000D03*
X62700000Y-77180000D03*
X62700000Y-79720000D03*
X62700000Y-82260000D03*
X62700000Y-84800000D03*
X62700000Y-87340000D03*
X62700000Y-89880000D03*
X62700000Y-92420000D03*
X62700000Y-94960000D03*
X62700000Y-97500000D03*
X62700000Y-100040000D03*
X62700000Y-102580000D03*
X62700000Y-105120000D03*
X62700000Y-107660000D03*
X62700000Y-110200000D03*
X62700000Y-112740000D03*
X62700000Y-115280000D03*
X62700000Y-117820000D03*
X62700000Y-120360000D03*
X62700000Y-122900000D03*
X62700000Y-125440000D03*
X62700000Y-127980000D03*
X62700000Y-130520000D03*
%TD*%
D11*
%TO.C,J1*%
X76500000Y-136800000D03*
D12*
X79040000Y-136800000D03*
X81580000Y-136800000D03*
X84120000Y-136800000D03*
X86660000Y-136800000D03*
X89200000Y-136800000D03*
X91740000Y-136800000D03*
X94280000Y-136800000D03*
X96820000Y-136800000D03*
X99360000Y-136800000D03*
X101900000Y-136800000D03*
X104440000Y-136800000D03*
X106980000Y-136800000D03*
X109520000Y-136800000D03*
X112060000Y-136800000D03*
X114600000Y-136800000D03*
X117140000Y-136800000D03*
X119680000Y-136800000D03*
X122220000Y-136800000D03*
%TD*%
D13*
%TO.C,SW3*%
X101900062Y-102658796D03*
D14*
X96900062Y-102658796D03*
D15*
X99400062Y-102658796D03*
%TD*%
D13*
%TO.C,SW1*%
X101950062Y-96858796D03*
D14*
X96950062Y-96858796D03*
D15*
X99450062Y-96858796D03*
%TD*%
D16*
%TO.C,NT10*%
X101950062Y-99658796D03*
D17*
X98950062Y-99658796D03*
%TD*%
D14*
%TO.C,SW2*%
X96950000Y-93550000D03*
D13*
X101950000Y-93550000D03*
D15*
X99450000Y-93550000D03*
%TD*%
D11*
%TO.C,J3*%
X137200000Y-80380000D03*
D12*
X137200000Y-82920000D03*
X137200000Y-85460000D03*
X137200000Y-88000000D03*
X137200000Y-90540000D03*
X137200000Y-93080000D03*
X137200000Y-95620000D03*
X137200000Y-98160000D03*
X137200000Y-100700000D03*
%TD*%
D18*
%TO.C,U2*%
X72800062Y-106608796D03*
X72800062Y-107396196D03*
X73587462Y-106608796D03*
X73587462Y-107396196D03*
%TD*%
D11*
%TO.C,J4*%
X137200000Y-105618796D03*
D12*
X137200000Y-108158796D03*
%TD*%
D19*
%TO.C,R_ISET1*%
X90700062Y-83533796D03*
X90700062Y-85183796D03*
%TD*%
D20*
%TO.C,C1A1*%
X100050000Y-126800000D03*
X100050000Y-128350000D03*
%TD*%
D21*
%TO.C,R_BATT3*%
X115919378Y-71258796D03*
X114269378Y-71258796D03*
%TD*%
D22*
%TO.C,R13*%
X117300062Y-102833796D03*
X117300062Y-101183796D03*
%TD*%
D20*
%TO.C,C7*%
X78550000Y-79241100D03*
X78550000Y-80791100D03*
%TD*%
D23*
%TO.C,D_SCL1*%
X133112500Y-82920000D03*
X134687500Y-82920000D03*
%TD*%
D20*
%TO.C,C_BATT2*%
X103280638Y-68533797D03*
X103280638Y-70083797D03*
%TD*%
D22*
%TO.C,R2*%
X73900000Y-82966100D03*
X73900000Y-81316100D03*
%TD*%
%TO.C,R3*%
X80750000Y-82641100D03*
X80750000Y-80991100D03*
%TD*%
D24*
%TO.C,R_T5*%
X119400062Y-83183796D03*
X121050062Y-83183796D03*
%TD*%
D22*
%TO.C,R_H4*%
X126978562Y-113614296D03*
X126978562Y-111964296D03*
%TD*%
D25*
%TO.C,C_BATT4*%
X84750062Y-126233796D03*
X86300062Y-126233796D03*
%TD*%
D21*
%TO.C,R_VBATT2*%
X87425062Y-119008796D03*
X85775062Y-119008796D03*
%TD*%
D23*
%TO.C,D_SDA2*%
X133112500Y-93070000D03*
X134687500Y-93070000D03*
%TD*%
D24*
%TO.C,R_T3*%
X83650062Y-116808796D03*
X85300062Y-116808796D03*
%TD*%
D23*
%TO.C,D_SCL2*%
X133112500Y-95620000D03*
X134687500Y-95620000D03*
%TD*%
D24*
%TO.C,R_T7*%
X126365562Y-115036296D03*
X128015562Y-115036296D03*
%TD*%
%TO.C,R_BATT2*%
X84700062Y-127733796D03*
X86350062Y-127733796D03*
%TD*%
D19*
%TO.C,R_BATT1*%
X101780638Y-68483797D03*
X101780638Y-70133797D03*
%TD*%
D23*
%TO.C,D_SCL3*%
X133112500Y-88020000D03*
X134687500Y-88020000D03*
%TD*%
D22*
%TO.C,R_H3*%
X120025062Y-81758796D03*
X120025062Y-80108796D03*
%TD*%
D23*
%TO.C,D_SDA4*%
X133112500Y-98170000D03*
X134687500Y-98170000D03*
%TD*%
D24*
%TO.C,R_T1*%
X91375062Y-81708796D03*
X93025062Y-81708796D03*
%TD*%
D22*
%TO.C,R_BATT4*%
X119465562Y-121411296D03*
X119465562Y-119761296D03*
%TD*%
%TO.C,R_H1*%
X92050062Y-80283796D03*
X92050062Y-78633796D03*
%TD*%
%TO.C,R7*%
X120300062Y-101233796D03*
X120300062Y-99583796D03*
%TD*%
D21*
%TO.C,R_VBATT1*%
X95075062Y-83958796D03*
X93425062Y-83958796D03*
%TD*%
D20*
%TO.C,C2A1*%
X108850000Y-126800000D03*
X108850000Y-128350000D03*
%TD*%
D23*
%TO.C,D_ALRT1*%
X133112500Y-90520000D03*
X134687500Y-90520000D03*
%TD*%
D26*
%TO.C,C2B1*%
X110600000Y-126850000D03*
X110600000Y-128750000D03*
%TD*%
D23*
%TO.C,D_SDA1*%
X133112500Y-80370000D03*
X134687500Y-80370000D03*
%TD*%
D19*
%TO.C,R_ISET3*%
X118925062Y-85108796D03*
X118925062Y-86758796D03*
%TD*%
D21*
%TO.C,R_VBATT4*%
X130015562Y-117333296D03*
X128365562Y-117333296D03*
%TD*%
D27*
%TO.C,C6*%
X80750000Y-79591100D03*
X80750000Y-78041100D03*
%TD*%
D22*
%TO.C,R_H2*%
X84350062Y-115383796D03*
X84350062Y-113733796D03*
%TD*%
D21*
%TO.C,R_VBATT3*%
X123200062Y-85533796D03*
X121550062Y-85533796D03*
%TD*%
D26*
%TO.C,C2C1*%
X112600000Y-126850000D03*
X112600000Y-128750000D03*
%TD*%
D22*
%TO.C,R9*%
X118800062Y-102833796D03*
X118800062Y-101183796D03*
%TD*%
D23*
%TO.C,D_SDA3*%
X133112500Y-85470000D03*
X134687500Y-85470000D03*
%TD*%
D19*
%TO.C,R_ISET2*%
X82900062Y-118533796D03*
X82900062Y-120183796D03*
%TD*%
%TO.C,R_ISET4*%
X125778562Y-116836296D03*
X125778562Y-118486296D03*
%TD*%
D23*
%TO.C,D_SCL4*%
X133112500Y-100720000D03*
X134687500Y-100720000D03*
%TD*%
D28*
%TO.C,C_BATT6*%
X115869378Y-72758796D03*
X114319378Y-72758796D03*
%TD*%
D29*
%TO.C,C1B1*%
X98300000Y-128750000D03*
X98300000Y-126850000D03*
%TD*%
D24*
%TO.C,R1*%
X70825000Y-81366100D03*
X72475000Y-81366100D03*
%TD*%
D27*
%TO.C,C_BATT8*%
X117965562Y-121361296D03*
X117965562Y-119811296D03*
%TD*%
M02*
