%TF.GenerationSoftware,KiCad,Pcbnew,10.0.1*%
%TF.CreationDate,2026-10-04T00:07:55-04:00*%
%TF.ProjectId,EPS_V1,4550535f-5631-42e6-9b69-6361645f7063,rev?*%
%TF.SameCoordinates,Original*%
%TF.FileFunction,Legend,Bot*%
%TF.FilePolarity,Positive*%
%FSLAX46Y46*%
G04 Gerber Fmt 4.6, Leading zero omitted, Abs format (unit mm)*
G04 Created by KiCad (PCBNEW 10.0.1) date 2026-10-04 00:07:55*
%MOMM*%
%LPD*%
G01*
G04 APERTURE LIST*
%ADD10C,0.127000*%
%ADD11C,0.150000*%
%ADD12C,0.508000*%
%ADD13C,0.120000*%
G04 APERTURE END LIST*
D10*
X77325971Y-138916253D02*
X77278352Y-138868634D01*
X77278352Y-138868634D02*
X77183114Y-138821015D01*
X77183114Y-138821015D02*
X76945019Y-138821015D01*
X76945019Y-138821015D02*
X76849781Y-138868634D01*
X76849781Y-138868634D02*
X76802162Y-138916253D01*
X76802162Y-138916253D02*
X76754543Y-139011491D01*
X76754543Y-139011491D02*
X76754543Y-139106729D01*
X76754543Y-139106729D02*
X76802162Y-139249586D01*
X76802162Y-139249586D02*
X77373590Y-139821015D01*
X77373590Y-139821015D02*
X76754543Y-139821015D01*
X76325971Y-139440062D02*
X75564067Y-139440062D01*
X75945019Y-139821015D02*
X75945019Y-139059110D01*
X79825971Y-138916253D02*
X79778352Y-138868634D01*
X79778352Y-138868634D02*
X79683114Y-138821015D01*
X79683114Y-138821015D02*
X79445019Y-138821015D01*
X79445019Y-138821015D02*
X79349781Y-138868634D01*
X79349781Y-138868634D02*
X79302162Y-138916253D01*
X79302162Y-138916253D02*
X79254543Y-139011491D01*
X79254543Y-139011491D02*
X79254543Y-139106729D01*
X79254543Y-139106729D02*
X79302162Y-139249586D01*
X79302162Y-139249586D02*
X79873590Y-139821015D01*
X79873590Y-139821015D02*
X79254543Y-139821015D01*
X78825971Y-139821015D02*
X78825971Y-138821015D01*
X78825971Y-138821015D02*
X78492638Y-139535300D01*
X78492638Y-139535300D02*
X78159305Y-138821015D01*
X78159305Y-138821015D02*
X78159305Y-139821015D01*
X82375971Y-138916253D02*
X82328352Y-138868634D01*
X82328352Y-138868634D02*
X82233114Y-138821015D01*
X82233114Y-138821015D02*
X81995019Y-138821015D01*
X81995019Y-138821015D02*
X81899781Y-138868634D01*
X81899781Y-138868634D02*
X81852162Y-138916253D01*
X81852162Y-138916253D02*
X81804543Y-139011491D01*
X81804543Y-139011491D02*
X81804543Y-139106729D01*
X81804543Y-139106729D02*
X81852162Y-139249586D01*
X81852162Y-139249586D02*
X82423590Y-139821015D01*
X82423590Y-139821015D02*
X81804543Y-139821015D01*
X81375971Y-139440062D02*
X80614067Y-139440062D01*
X84821209Y-138821015D02*
X84249781Y-138821015D01*
X84535495Y-139821015D02*
X84535495Y-138821015D01*
X83964066Y-138916253D02*
X83916447Y-138868634D01*
X83916447Y-138868634D02*
X83821209Y-138821015D01*
X83821209Y-138821015D02*
X83583114Y-138821015D01*
X83583114Y-138821015D02*
X83487876Y-138868634D01*
X83487876Y-138868634D02*
X83440257Y-138916253D01*
X83440257Y-138916253D02*
X83392638Y-139011491D01*
X83392638Y-139011491D02*
X83392638Y-139106729D01*
X83392638Y-139106729D02*
X83440257Y-139249586D01*
X83440257Y-139249586D02*
X84011685Y-139821015D01*
X84011685Y-139821015D02*
X83392638Y-139821015D01*
X86954543Y-139821015D02*
X87525971Y-139821015D01*
X87240257Y-139821015D02*
X87240257Y-138821015D01*
X87240257Y-138821015D02*
X87335495Y-138963872D01*
X87335495Y-138963872D02*
X87430733Y-139059110D01*
X87430733Y-139059110D02*
X87525971Y-139106729D01*
X86525971Y-139440062D02*
X85764067Y-139440062D01*
X86145019Y-139821015D02*
X86145019Y-139059110D01*
X89454543Y-139821015D02*
X90025971Y-139821015D01*
X89740257Y-139821015D02*
X89740257Y-138821015D01*
X89740257Y-138821015D02*
X89835495Y-138963872D01*
X89835495Y-138963872D02*
X89930733Y-139059110D01*
X89930733Y-139059110D02*
X90025971Y-139106729D01*
X89025971Y-139821015D02*
X89025971Y-138821015D01*
X89025971Y-138821015D02*
X88692638Y-139535300D01*
X88692638Y-139535300D02*
X88359305Y-138821015D01*
X88359305Y-138821015D02*
X88359305Y-139821015D01*
X92004543Y-139821015D02*
X92575971Y-139821015D01*
X92290257Y-139821015D02*
X92290257Y-138821015D01*
X92290257Y-138821015D02*
X92385495Y-138963872D01*
X92385495Y-138963872D02*
X92480733Y-139059110D01*
X92480733Y-139059110D02*
X92575971Y-139106729D01*
X91575971Y-139440062D02*
X90814067Y-139440062D01*
X94971209Y-138821015D02*
X94399781Y-138821015D01*
X94685495Y-139821015D02*
X94685495Y-138821015D01*
X93542638Y-139821015D02*
X94114066Y-139821015D01*
X93828352Y-139821015D02*
X93828352Y-138821015D01*
X93828352Y-138821015D02*
X93923590Y-138963872D01*
X93923590Y-138963872D02*
X94018828Y-139059110D01*
X94018828Y-139059110D02*
X94114066Y-139106729D01*
X97075971Y-139773396D02*
X96933114Y-139821015D01*
X96933114Y-139821015D02*
X96695019Y-139821015D01*
X96695019Y-139821015D02*
X96599781Y-139773396D01*
X96599781Y-139773396D02*
X96552162Y-139725776D01*
X96552162Y-139725776D02*
X96504543Y-139630538D01*
X96504543Y-139630538D02*
X96504543Y-139535300D01*
X96504543Y-139535300D02*
X96552162Y-139440062D01*
X96552162Y-139440062D02*
X96599781Y-139392443D01*
X96599781Y-139392443D02*
X96695019Y-139344824D01*
X96695019Y-139344824D02*
X96885495Y-139297205D01*
X96885495Y-139297205D02*
X96980733Y-139249586D01*
X96980733Y-139249586D02*
X97028352Y-139201967D01*
X97028352Y-139201967D02*
X97075971Y-139106729D01*
X97075971Y-139106729D02*
X97075971Y-139011491D01*
X97075971Y-139011491D02*
X97028352Y-138916253D01*
X97028352Y-138916253D02*
X96980733Y-138868634D01*
X96980733Y-138868634D02*
X96885495Y-138821015D01*
X96885495Y-138821015D02*
X96647400Y-138821015D01*
X96647400Y-138821015D02*
X96504543Y-138868634D01*
X99104543Y-138868634D02*
X99199781Y-138821015D01*
X99199781Y-138821015D02*
X99342638Y-138821015D01*
X99342638Y-138821015D02*
X99485495Y-138868634D01*
X99485495Y-138868634D02*
X99580733Y-138963872D01*
X99580733Y-138963872D02*
X99628352Y-139059110D01*
X99628352Y-139059110D02*
X99675971Y-139249586D01*
X99675971Y-139249586D02*
X99675971Y-139392443D01*
X99675971Y-139392443D02*
X99628352Y-139582919D01*
X99628352Y-139582919D02*
X99580733Y-139678157D01*
X99580733Y-139678157D02*
X99485495Y-139773396D01*
X99485495Y-139773396D02*
X99342638Y-139821015D01*
X99342638Y-139821015D02*
X99247400Y-139821015D01*
X99247400Y-139821015D02*
X99104543Y-139773396D01*
X99104543Y-139773396D02*
X99056924Y-139725776D01*
X99056924Y-139725776D02*
X99056924Y-139392443D01*
X99056924Y-139392443D02*
X99247400Y-139392443D01*
X102945019Y-139297205D02*
X102802162Y-139344824D01*
X102802162Y-139344824D02*
X102754543Y-139392443D01*
X102754543Y-139392443D02*
X102706924Y-139487681D01*
X102706924Y-139487681D02*
X102706924Y-139630538D01*
X102706924Y-139630538D02*
X102754543Y-139725776D01*
X102754543Y-139725776D02*
X102802162Y-139773396D01*
X102802162Y-139773396D02*
X102897400Y-139821015D01*
X102897400Y-139821015D02*
X103278352Y-139821015D01*
X103278352Y-139821015D02*
X103278352Y-138821015D01*
X103278352Y-138821015D02*
X102945019Y-138821015D01*
X102945019Y-138821015D02*
X102849781Y-138868634D01*
X102849781Y-138868634D02*
X102802162Y-138916253D01*
X102802162Y-138916253D02*
X102754543Y-139011491D01*
X102754543Y-139011491D02*
X102754543Y-139106729D01*
X102754543Y-139106729D02*
X102802162Y-139201967D01*
X102802162Y-139201967D02*
X102849781Y-139249586D01*
X102849781Y-139249586D02*
X102945019Y-139297205D01*
X102945019Y-139297205D02*
X103278352Y-139297205D01*
X102325971Y-139535300D02*
X101849781Y-139535300D01*
X102421209Y-139821015D02*
X102087876Y-138821015D01*
X102087876Y-138821015D02*
X101754543Y-139821015D01*
X101564066Y-138821015D02*
X100992638Y-138821015D01*
X101278352Y-139821015D02*
X101278352Y-138821015D01*
X100802161Y-138821015D02*
X100230733Y-138821015D01*
X100516447Y-139821015D02*
X100516447Y-138821015D01*
X105323590Y-138821015D02*
X104704543Y-138821015D01*
X104704543Y-138821015D02*
X105037876Y-139201967D01*
X105037876Y-139201967D02*
X104895019Y-139201967D01*
X104895019Y-139201967D02*
X104799781Y-139249586D01*
X104799781Y-139249586D02*
X104752162Y-139297205D01*
X104752162Y-139297205D02*
X104704543Y-139392443D01*
X104704543Y-139392443D02*
X104704543Y-139630538D01*
X104704543Y-139630538D02*
X104752162Y-139725776D01*
X104752162Y-139725776D02*
X104799781Y-139773396D01*
X104799781Y-139773396D02*
X104895019Y-139821015D01*
X104895019Y-139821015D02*
X105180733Y-139821015D01*
X105180733Y-139821015D02*
X105275971Y-139773396D01*
X105275971Y-139773396D02*
X105323590Y-139725776D01*
X104275971Y-139440062D02*
X103514067Y-139440062D01*
X103895019Y-139821015D02*
X103895019Y-139059110D01*
X107773590Y-138821015D02*
X107154543Y-138821015D01*
X107154543Y-138821015D02*
X107487876Y-139201967D01*
X107487876Y-139201967D02*
X107345019Y-139201967D01*
X107345019Y-139201967D02*
X107249781Y-139249586D01*
X107249781Y-139249586D02*
X107202162Y-139297205D01*
X107202162Y-139297205D02*
X107154543Y-139392443D01*
X107154543Y-139392443D02*
X107154543Y-139630538D01*
X107154543Y-139630538D02*
X107202162Y-139725776D01*
X107202162Y-139725776D02*
X107249781Y-139773396D01*
X107249781Y-139773396D02*
X107345019Y-139821015D01*
X107345019Y-139821015D02*
X107630733Y-139821015D01*
X107630733Y-139821015D02*
X107725971Y-139773396D01*
X107725971Y-139773396D02*
X107773590Y-139725776D01*
X106725971Y-139821015D02*
X106725971Y-138821015D01*
X106725971Y-138821015D02*
X106392638Y-139535300D01*
X106392638Y-139535300D02*
X106059305Y-138821015D01*
X106059305Y-138821015D02*
X106059305Y-139821015D01*
X110373590Y-138821015D02*
X109754543Y-138821015D01*
X109754543Y-138821015D02*
X110087876Y-139201967D01*
X110087876Y-139201967D02*
X109945019Y-139201967D01*
X109945019Y-139201967D02*
X109849781Y-139249586D01*
X109849781Y-139249586D02*
X109802162Y-139297205D01*
X109802162Y-139297205D02*
X109754543Y-139392443D01*
X109754543Y-139392443D02*
X109754543Y-139630538D01*
X109754543Y-139630538D02*
X109802162Y-139725776D01*
X109802162Y-139725776D02*
X109849781Y-139773396D01*
X109849781Y-139773396D02*
X109945019Y-139821015D01*
X109945019Y-139821015D02*
X110230733Y-139821015D01*
X110230733Y-139821015D02*
X110325971Y-139773396D01*
X110325971Y-139773396D02*
X110373590Y-139725776D01*
X109325971Y-139440062D02*
X108564067Y-139440062D01*
X112771209Y-138821015D02*
X112199781Y-138821015D01*
X112485495Y-139821015D02*
X112485495Y-138821015D01*
X111961685Y-138821015D02*
X111342638Y-138821015D01*
X111342638Y-138821015D02*
X111675971Y-139201967D01*
X111675971Y-139201967D02*
X111533114Y-139201967D01*
X111533114Y-139201967D02*
X111437876Y-139249586D01*
X111437876Y-139249586D02*
X111390257Y-139297205D01*
X111390257Y-139297205D02*
X111342638Y-139392443D01*
X111342638Y-139392443D02*
X111342638Y-139630538D01*
X111342638Y-139630538D02*
X111390257Y-139725776D01*
X111390257Y-139725776D02*
X111437876Y-139773396D01*
X111437876Y-139773396D02*
X111533114Y-139821015D01*
X111533114Y-139821015D02*
X111818828Y-139821015D01*
X111818828Y-139821015D02*
X111914066Y-139773396D01*
X111914066Y-139773396D02*
X111961685Y-139725776D01*
X114949781Y-139154348D02*
X114949781Y-139821015D01*
X115187876Y-138773396D02*
X115425971Y-139487681D01*
X115425971Y-139487681D02*
X114806924Y-139487681D01*
X114425971Y-139440062D02*
X113664067Y-139440062D01*
X114045019Y-139821015D02*
X114045019Y-139059110D01*
X117549781Y-139154348D02*
X117549781Y-139821015D01*
X117787876Y-138773396D02*
X118025971Y-139487681D01*
X118025971Y-139487681D02*
X117406924Y-139487681D01*
X117025971Y-139821015D02*
X117025971Y-138821015D01*
X117025971Y-138821015D02*
X116692638Y-139535300D01*
X116692638Y-139535300D02*
X116359305Y-138821015D01*
X116359305Y-138821015D02*
X116359305Y-139821015D01*
X120049781Y-139154348D02*
X120049781Y-139821015D01*
X120287876Y-138773396D02*
X120525971Y-139487681D01*
X120525971Y-139487681D02*
X119906924Y-139487681D01*
X119525971Y-139440062D02*
X118764067Y-139440062D01*
X122921209Y-138821015D02*
X122349781Y-138821015D01*
X122635495Y-139821015D02*
X122635495Y-138821015D01*
X121587876Y-139154348D02*
X121587876Y-139821015D01*
X121825971Y-138773396D02*
X122064066Y-139487681D01*
X122064066Y-139487681D02*
X121445019Y-139487681D01*
D11*
X65929887Y-73908628D02*
X66644173Y-73908628D01*
X66644173Y-73908628D02*
X66715601Y-74622914D01*
X66715601Y-74622914D02*
X66644173Y-74551485D01*
X66644173Y-74551485D02*
X66501316Y-74480057D01*
X66501316Y-74480057D02*
X66144173Y-74480057D01*
X66144173Y-74480057D02*
X66001316Y-74551485D01*
X66001316Y-74551485D02*
X65929887Y-74622914D01*
X65929887Y-74622914D02*
X65858458Y-74765771D01*
X65858458Y-74765771D02*
X65858458Y-75122914D01*
X65858458Y-75122914D02*
X65929887Y-75265771D01*
X65929887Y-75265771D02*
X66001316Y-75337200D01*
X66001316Y-75337200D02*
X66144173Y-75408628D01*
X66144173Y-75408628D02*
X66501316Y-75408628D01*
X66501316Y-75408628D02*
X66644173Y-75337200D01*
X66644173Y-75337200D02*
X66715601Y-75265771D01*
X65429887Y-73908628D02*
X64929887Y-75408628D01*
X64929887Y-75408628D02*
X64429887Y-73908628D01*
X65979887Y-89208628D02*
X66694173Y-89208628D01*
X66694173Y-89208628D02*
X66765601Y-89922914D01*
X66765601Y-89922914D02*
X66694173Y-89851485D01*
X66694173Y-89851485D02*
X66551316Y-89780057D01*
X66551316Y-89780057D02*
X66194173Y-89780057D01*
X66194173Y-89780057D02*
X66051316Y-89851485D01*
X66051316Y-89851485D02*
X65979887Y-89922914D01*
X65979887Y-89922914D02*
X65908458Y-90065771D01*
X65908458Y-90065771D02*
X65908458Y-90422914D01*
X65908458Y-90422914D02*
X65979887Y-90565771D01*
X65979887Y-90565771D02*
X66051316Y-90637200D01*
X66051316Y-90637200D02*
X66194173Y-90708628D01*
X66194173Y-90708628D02*
X66551316Y-90708628D01*
X66551316Y-90708628D02*
X66694173Y-90637200D01*
X66694173Y-90637200D02*
X66765601Y-90565771D01*
X65479887Y-89208628D02*
X64979887Y-90708628D01*
X64979887Y-90708628D02*
X64479887Y-89208628D01*
X68087030Y-106958628D02*
X67158458Y-106958628D01*
X67158458Y-106958628D02*
X67658458Y-107530057D01*
X67658458Y-107530057D02*
X67444173Y-107530057D01*
X67444173Y-107530057D02*
X67301316Y-107601485D01*
X67301316Y-107601485D02*
X67229887Y-107672914D01*
X67229887Y-107672914D02*
X67158458Y-107815771D01*
X67158458Y-107815771D02*
X67158458Y-108172914D01*
X67158458Y-108172914D02*
X67229887Y-108315771D01*
X67229887Y-108315771D02*
X67301316Y-108387200D01*
X67301316Y-108387200D02*
X67444173Y-108458628D01*
X67444173Y-108458628D02*
X67872744Y-108458628D01*
X67872744Y-108458628D02*
X68015601Y-108387200D01*
X68015601Y-108387200D02*
X68087030Y-108315771D01*
X66729887Y-106958628D02*
X66229887Y-108458628D01*
X66229887Y-108458628D02*
X65729887Y-106958628D01*
X65372745Y-106958628D02*
X64444173Y-106958628D01*
X64444173Y-106958628D02*
X64944173Y-107530057D01*
X64944173Y-107530057D02*
X64729888Y-107530057D01*
X64729888Y-107530057D02*
X64587031Y-107601485D01*
X64587031Y-107601485D02*
X64515602Y-107672914D01*
X64515602Y-107672914D02*
X64444173Y-107815771D01*
X64444173Y-107815771D02*
X64444173Y-108172914D01*
X64444173Y-108172914D02*
X64515602Y-108315771D01*
X64515602Y-108315771D02*
X64587031Y-108387200D01*
X64587031Y-108387200D02*
X64729888Y-108458628D01*
X64729888Y-108458628D02*
X65158459Y-108458628D01*
X65158459Y-108458628D02*
X65301316Y-108387200D01*
X65301316Y-108387200D02*
X65372745Y-108315771D01*
X68137030Y-91708628D02*
X67208458Y-91708628D01*
X67208458Y-91708628D02*
X67708458Y-92280057D01*
X67708458Y-92280057D02*
X67494173Y-92280057D01*
X67494173Y-92280057D02*
X67351316Y-92351485D01*
X67351316Y-92351485D02*
X67279887Y-92422914D01*
X67279887Y-92422914D02*
X67208458Y-92565771D01*
X67208458Y-92565771D02*
X67208458Y-92922914D01*
X67208458Y-92922914D02*
X67279887Y-93065771D01*
X67279887Y-93065771D02*
X67351316Y-93137200D01*
X67351316Y-93137200D02*
X67494173Y-93208628D01*
X67494173Y-93208628D02*
X67922744Y-93208628D01*
X67922744Y-93208628D02*
X68065601Y-93137200D01*
X68065601Y-93137200D02*
X68137030Y-93065771D01*
X66779887Y-91708628D02*
X66279887Y-93208628D01*
X66279887Y-93208628D02*
X65779887Y-91708628D01*
X65422745Y-91708628D02*
X64494173Y-91708628D01*
X64494173Y-91708628D02*
X64994173Y-92280057D01*
X64994173Y-92280057D02*
X64779888Y-92280057D01*
X64779888Y-92280057D02*
X64637031Y-92351485D01*
X64637031Y-92351485D02*
X64565602Y-92422914D01*
X64565602Y-92422914D02*
X64494173Y-92565771D01*
X64494173Y-92565771D02*
X64494173Y-92922914D01*
X64494173Y-92922914D02*
X64565602Y-93065771D01*
X64565602Y-93065771D02*
X64637031Y-93137200D01*
X64637031Y-93137200D02*
X64779888Y-93208628D01*
X64779888Y-93208628D02*
X65208459Y-93208628D01*
X65208459Y-93208628D02*
X65351316Y-93137200D01*
X65351316Y-93137200D02*
X65422745Y-93065771D01*
X67308458Y-70358628D02*
X68165601Y-70358628D01*
X67737030Y-70358628D02*
X67737030Y-68858628D01*
X67737030Y-68858628D02*
X67879887Y-69072914D01*
X67879887Y-69072914D02*
X68022744Y-69215771D01*
X68022744Y-69215771D02*
X68165601Y-69287200D01*
X66737030Y-69001485D02*
X66665602Y-68930057D01*
X66665602Y-68930057D02*
X66522745Y-68858628D01*
X66522745Y-68858628D02*
X66165602Y-68858628D01*
X66165602Y-68858628D02*
X66022745Y-68930057D01*
X66022745Y-68930057D02*
X65951316Y-69001485D01*
X65951316Y-69001485D02*
X65879887Y-69144342D01*
X65879887Y-69144342D02*
X65879887Y-69287200D01*
X65879887Y-69287200D02*
X65951316Y-69501485D01*
X65951316Y-69501485D02*
X66808459Y-70358628D01*
X66808459Y-70358628D02*
X65879887Y-70358628D01*
X65451316Y-68858628D02*
X64951316Y-70358628D01*
X64951316Y-70358628D02*
X64451316Y-68858628D01*
X67608458Y-109580057D02*
X67751316Y-109508628D01*
X67751316Y-109508628D02*
X67965601Y-109508628D01*
X67965601Y-109508628D02*
X68179887Y-109580057D01*
X68179887Y-109580057D02*
X68322744Y-109722914D01*
X68322744Y-109722914D02*
X68394173Y-109865771D01*
X68394173Y-109865771D02*
X68465601Y-110151485D01*
X68465601Y-110151485D02*
X68465601Y-110365771D01*
X68465601Y-110365771D02*
X68394173Y-110651485D01*
X68394173Y-110651485D02*
X68322744Y-110794342D01*
X68322744Y-110794342D02*
X68179887Y-110937200D01*
X68179887Y-110937200D02*
X67965601Y-111008628D01*
X67965601Y-111008628D02*
X67822744Y-111008628D01*
X67822744Y-111008628D02*
X67608458Y-110937200D01*
X67608458Y-110937200D02*
X67537030Y-110865771D01*
X67537030Y-110865771D02*
X67537030Y-110365771D01*
X67537030Y-110365771D02*
X67822744Y-110365771D01*
X66894173Y-111008628D02*
X66894173Y-109508628D01*
X66894173Y-109508628D02*
X66037030Y-111008628D01*
X66037030Y-111008628D02*
X66037030Y-109508628D01*
X65322744Y-111008628D02*
X65322744Y-109508628D01*
X65322744Y-109508628D02*
X64965601Y-109508628D01*
X64965601Y-109508628D02*
X64751315Y-109580057D01*
X64751315Y-109580057D02*
X64608458Y-109722914D01*
X64608458Y-109722914D02*
X64537029Y-109865771D01*
X64537029Y-109865771D02*
X64465601Y-110151485D01*
X64465601Y-110151485D02*
X64465601Y-110365771D01*
X64465601Y-110365771D02*
X64537029Y-110651485D01*
X64537029Y-110651485D02*
X64608458Y-110794342D01*
X64608458Y-110794342D02*
X64751315Y-110937200D01*
X64751315Y-110937200D02*
X64965601Y-111008628D01*
X64965601Y-111008628D02*
X65322744Y-111008628D01*
X67608458Y-129880057D02*
X67751316Y-129808628D01*
X67751316Y-129808628D02*
X67965601Y-129808628D01*
X67965601Y-129808628D02*
X68179887Y-129880057D01*
X68179887Y-129880057D02*
X68322744Y-130022914D01*
X68322744Y-130022914D02*
X68394173Y-130165771D01*
X68394173Y-130165771D02*
X68465601Y-130451485D01*
X68465601Y-130451485D02*
X68465601Y-130665771D01*
X68465601Y-130665771D02*
X68394173Y-130951485D01*
X68394173Y-130951485D02*
X68322744Y-131094342D01*
X68322744Y-131094342D02*
X68179887Y-131237200D01*
X68179887Y-131237200D02*
X67965601Y-131308628D01*
X67965601Y-131308628D02*
X67822744Y-131308628D01*
X67822744Y-131308628D02*
X67608458Y-131237200D01*
X67608458Y-131237200D02*
X67537030Y-131165771D01*
X67537030Y-131165771D02*
X67537030Y-130665771D01*
X67537030Y-130665771D02*
X67822744Y-130665771D01*
X66894173Y-131308628D02*
X66894173Y-129808628D01*
X66894173Y-129808628D02*
X66037030Y-131308628D01*
X66037030Y-131308628D02*
X66037030Y-129808628D01*
X65322744Y-131308628D02*
X65322744Y-129808628D01*
X65322744Y-129808628D02*
X64965601Y-129808628D01*
X64965601Y-129808628D02*
X64751315Y-129880057D01*
X64751315Y-129880057D02*
X64608458Y-130022914D01*
X64608458Y-130022914D02*
X64537029Y-130165771D01*
X64537029Y-130165771D02*
X64465601Y-130451485D01*
X64465601Y-130451485D02*
X64465601Y-130665771D01*
X64465601Y-130665771D02*
X64537029Y-130951485D01*
X64537029Y-130951485D02*
X64608458Y-131094342D01*
X64608458Y-131094342D02*
X64751315Y-131237200D01*
X64751315Y-131237200D02*
X64965601Y-131308628D01*
X64965601Y-131308628D02*
X65322744Y-131308628D01*
X68594173Y-72172914D02*
X68379887Y-72244342D01*
X68379887Y-72244342D02*
X68308458Y-72315771D01*
X68308458Y-72315771D02*
X68237030Y-72458628D01*
X68237030Y-72458628D02*
X68237030Y-72672914D01*
X68237030Y-72672914D02*
X68308458Y-72815771D01*
X68308458Y-72815771D02*
X68379887Y-72887200D01*
X68379887Y-72887200D02*
X68522744Y-72958628D01*
X68522744Y-72958628D02*
X69094173Y-72958628D01*
X69094173Y-72958628D02*
X69094173Y-71458628D01*
X69094173Y-71458628D02*
X68594173Y-71458628D01*
X68594173Y-71458628D02*
X68451316Y-71530057D01*
X68451316Y-71530057D02*
X68379887Y-71601485D01*
X68379887Y-71601485D02*
X68308458Y-71744342D01*
X68308458Y-71744342D02*
X68308458Y-71887200D01*
X68308458Y-71887200D02*
X68379887Y-72030057D01*
X68379887Y-72030057D02*
X68451316Y-72101485D01*
X68451316Y-72101485D02*
X68594173Y-72172914D01*
X68594173Y-72172914D02*
X69094173Y-72172914D01*
X67665601Y-72530057D02*
X66951316Y-72530057D01*
X67808458Y-72958628D02*
X67308458Y-71458628D01*
X67308458Y-71458628D02*
X66808458Y-72958628D01*
X66522744Y-71458628D02*
X65665602Y-71458628D01*
X66094173Y-72958628D02*
X66094173Y-71458628D01*
X65379887Y-71458628D02*
X64522745Y-71458628D01*
X64951316Y-72958628D02*
X64951316Y-71458628D01*
D10*
X89748468Y-83294414D02*
X89506563Y-83125080D01*
X89748468Y-83004128D02*
X89240468Y-83004128D01*
X89240468Y-83004128D02*
X89240468Y-83197652D01*
X89240468Y-83197652D02*
X89264658Y-83246033D01*
X89264658Y-83246033D02*
X89288849Y-83270223D01*
X89288849Y-83270223D02*
X89337230Y-83294414D01*
X89337230Y-83294414D02*
X89409801Y-83294414D01*
X89409801Y-83294414D02*
X89458182Y-83270223D01*
X89458182Y-83270223D02*
X89482373Y-83246033D01*
X89482373Y-83246033D02*
X89506563Y-83197652D01*
X89506563Y-83197652D02*
X89506563Y-83004128D01*
X89796849Y-83391176D02*
X89796849Y-83778223D01*
X89748468Y-83899176D02*
X89240468Y-83899176D01*
X89724278Y-84116890D02*
X89748468Y-84189462D01*
X89748468Y-84189462D02*
X89748468Y-84310414D01*
X89748468Y-84310414D02*
X89724278Y-84358795D01*
X89724278Y-84358795D02*
X89700087Y-84382986D01*
X89700087Y-84382986D02*
X89651706Y-84407176D01*
X89651706Y-84407176D02*
X89603325Y-84407176D01*
X89603325Y-84407176D02*
X89554944Y-84382986D01*
X89554944Y-84382986D02*
X89530754Y-84358795D01*
X89530754Y-84358795D02*
X89506563Y-84310414D01*
X89506563Y-84310414D02*
X89482373Y-84213652D01*
X89482373Y-84213652D02*
X89458182Y-84165271D01*
X89458182Y-84165271D02*
X89433992Y-84141081D01*
X89433992Y-84141081D02*
X89385611Y-84116890D01*
X89385611Y-84116890D02*
X89337230Y-84116890D01*
X89337230Y-84116890D02*
X89288849Y-84141081D01*
X89288849Y-84141081D02*
X89264658Y-84165271D01*
X89264658Y-84165271D02*
X89240468Y-84213652D01*
X89240468Y-84213652D02*
X89240468Y-84334605D01*
X89240468Y-84334605D02*
X89264658Y-84407176D01*
X89482373Y-84624891D02*
X89482373Y-84794224D01*
X89748468Y-84866796D02*
X89748468Y-84624891D01*
X89748468Y-84624891D02*
X89240468Y-84624891D01*
X89240468Y-84624891D02*
X89240468Y-84866796D01*
X89240468Y-85011938D02*
X89240468Y-85302224D01*
X89748468Y-85157081D02*
X89240468Y-85157081D01*
X89748468Y-85737653D02*
X89748468Y-85447367D01*
X89748468Y-85592510D02*
X89240468Y-85592510D01*
X89240468Y-85592510D02*
X89313039Y-85544129D01*
X89313039Y-85544129D02*
X89361420Y-85495748D01*
X89361420Y-85495748D02*
X89385611Y-85447367D01*
X100160025Y-124594790D02*
X100184216Y-124570599D01*
X100184216Y-124570599D02*
X100208406Y-124498028D01*
X100208406Y-124498028D02*
X100208406Y-124449647D01*
X100208406Y-124449647D02*
X100184216Y-124377075D01*
X100184216Y-124377075D02*
X100135835Y-124328694D01*
X100135835Y-124328694D02*
X100087454Y-124304504D01*
X100087454Y-124304504D02*
X99990692Y-124280313D01*
X99990692Y-124280313D02*
X99918120Y-124280313D01*
X99918120Y-124280313D02*
X99821358Y-124304504D01*
X99821358Y-124304504D02*
X99772977Y-124328694D01*
X99772977Y-124328694D02*
X99724596Y-124377075D01*
X99724596Y-124377075D02*
X99700406Y-124449647D01*
X99700406Y-124449647D02*
X99700406Y-124498028D01*
X99700406Y-124498028D02*
X99724596Y-124570599D01*
X99724596Y-124570599D02*
X99748787Y-124594790D01*
X100208406Y-125078599D02*
X100208406Y-124788313D01*
X100208406Y-124933456D02*
X99700406Y-124933456D01*
X99700406Y-124933456D02*
X99772977Y-124885075D01*
X99772977Y-124885075D02*
X99821358Y-124836694D01*
X99821358Y-124836694D02*
X99845549Y-124788313D01*
X100063263Y-125272123D02*
X100063263Y-125514028D01*
X100208406Y-125223742D02*
X99700406Y-125393076D01*
X99700406Y-125393076D02*
X100208406Y-125562409D01*
X100208406Y-125997838D02*
X100208406Y-125707552D01*
X100208406Y-125852695D02*
X99700406Y-125852695D01*
X99700406Y-125852695D02*
X99772977Y-125804314D01*
X99772977Y-125804314D02*
X99821358Y-125755933D01*
X99821358Y-125755933D02*
X99845549Y-125707552D01*
X116236952Y-70157202D02*
X116406286Y-69915297D01*
X116527238Y-70157202D02*
X116527238Y-69649202D01*
X116527238Y-69649202D02*
X116333714Y-69649202D01*
X116333714Y-69649202D02*
X116285333Y-69673392D01*
X116285333Y-69673392D02*
X116261143Y-69697583D01*
X116261143Y-69697583D02*
X116236952Y-69745964D01*
X116236952Y-69745964D02*
X116236952Y-69818535D01*
X116236952Y-69818535D02*
X116261143Y-69866916D01*
X116261143Y-69866916D02*
X116285333Y-69891107D01*
X116285333Y-69891107D02*
X116333714Y-69915297D01*
X116333714Y-69915297D02*
X116527238Y-69915297D01*
X116140191Y-70205583D02*
X115753143Y-70205583D01*
X115462857Y-69891107D02*
X115390285Y-69915297D01*
X115390285Y-69915297D02*
X115366095Y-69939488D01*
X115366095Y-69939488D02*
X115341904Y-69987869D01*
X115341904Y-69987869D02*
X115341904Y-70060440D01*
X115341904Y-70060440D02*
X115366095Y-70108821D01*
X115366095Y-70108821D02*
X115390285Y-70133012D01*
X115390285Y-70133012D02*
X115438666Y-70157202D01*
X115438666Y-70157202D02*
X115632190Y-70157202D01*
X115632190Y-70157202D02*
X115632190Y-69649202D01*
X115632190Y-69649202D02*
X115462857Y-69649202D01*
X115462857Y-69649202D02*
X115414476Y-69673392D01*
X115414476Y-69673392D02*
X115390285Y-69697583D01*
X115390285Y-69697583D02*
X115366095Y-69745964D01*
X115366095Y-69745964D02*
X115366095Y-69794345D01*
X115366095Y-69794345D02*
X115390285Y-69842726D01*
X115390285Y-69842726D02*
X115414476Y-69866916D01*
X115414476Y-69866916D02*
X115462857Y-69891107D01*
X115462857Y-69891107D02*
X115632190Y-69891107D01*
X115148381Y-70012059D02*
X114906476Y-70012059D01*
X115196762Y-70157202D02*
X115027428Y-69649202D01*
X115027428Y-69649202D02*
X114858095Y-70157202D01*
X114761333Y-69649202D02*
X114471047Y-69649202D01*
X114616190Y-70157202D02*
X114616190Y-69649202D01*
X114374285Y-69649202D02*
X114083999Y-69649202D01*
X114229142Y-70157202D02*
X114229142Y-69649202D01*
X113963046Y-69649202D02*
X113648570Y-69649202D01*
X113648570Y-69649202D02*
X113817903Y-69842726D01*
X113817903Y-69842726D02*
X113745332Y-69842726D01*
X113745332Y-69842726D02*
X113696951Y-69866916D01*
X113696951Y-69866916D02*
X113672760Y-69891107D01*
X113672760Y-69891107D02*
X113648570Y-69939488D01*
X113648570Y-69939488D02*
X113648570Y-70060440D01*
X113648570Y-70060440D02*
X113672760Y-70108821D01*
X113672760Y-70108821D02*
X113696951Y-70133012D01*
X113696951Y-70133012D02*
X113745332Y-70157202D01*
X113745332Y-70157202D02*
X113890475Y-70157202D01*
X113890475Y-70157202D02*
X113938856Y-70133012D01*
X113938856Y-70133012D02*
X113963046Y-70108821D01*
X116458468Y-101673428D02*
X116216563Y-101504094D01*
X116458468Y-101383142D02*
X115950468Y-101383142D01*
X115950468Y-101383142D02*
X115950468Y-101576666D01*
X115950468Y-101576666D02*
X115974658Y-101625047D01*
X115974658Y-101625047D02*
X115998849Y-101649237D01*
X115998849Y-101649237D02*
X116047230Y-101673428D01*
X116047230Y-101673428D02*
X116119801Y-101673428D01*
X116119801Y-101673428D02*
X116168182Y-101649237D01*
X116168182Y-101649237D02*
X116192373Y-101625047D01*
X116192373Y-101625047D02*
X116216563Y-101576666D01*
X116216563Y-101576666D02*
X116216563Y-101383142D01*
X116458468Y-102157237D02*
X116458468Y-101866951D01*
X116458468Y-102012094D02*
X115950468Y-102012094D01*
X115950468Y-102012094D02*
X116023039Y-101963713D01*
X116023039Y-101963713D02*
X116071420Y-101915332D01*
X116071420Y-101915332D02*
X116095611Y-101866951D01*
X115950468Y-102326571D02*
X115950468Y-102641047D01*
X115950468Y-102641047D02*
X116143992Y-102471714D01*
X116143992Y-102471714D02*
X116143992Y-102544285D01*
X116143992Y-102544285D02*
X116168182Y-102592666D01*
X116168182Y-102592666D02*
X116192373Y-102616857D01*
X116192373Y-102616857D02*
X116240754Y-102641047D01*
X116240754Y-102641047D02*
X116361706Y-102641047D01*
X116361706Y-102641047D02*
X116410087Y-102616857D01*
X116410087Y-102616857D02*
X116434278Y-102592666D01*
X116434278Y-102592666D02*
X116458468Y-102544285D01*
X116458468Y-102544285D02*
X116458468Y-102399142D01*
X116458468Y-102399142D02*
X116434278Y-102350761D01*
X116434278Y-102350761D02*
X116410087Y-102326571D01*
X77550025Y-79931433D02*
X77574216Y-79907242D01*
X77574216Y-79907242D02*
X77598406Y-79834671D01*
X77598406Y-79834671D02*
X77598406Y-79786290D01*
X77598406Y-79786290D02*
X77574216Y-79713718D01*
X77574216Y-79713718D02*
X77525835Y-79665337D01*
X77525835Y-79665337D02*
X77477454Y-79641147D01*
X77477454Y-79641147D02*
X77380692Y-79616956D01*
X77380692Y-79616956D02*
X77308120Y-79616956D01*
X77308120Y-79616956D02*
X77211358Y-79641147D01*
X77211358Y-79641147D02*
X77162977Y-79665337D01*
X77162977Y-79665337D02*
X77114596Y-79713718D01*
X77114596Y-79713718D02*
X77090406Y-79786290D01*
X77090406Y-79786290D02*
X77090406Y-79834671D01*
X77090406Y-79834671D02*
X77114596Y-79907242D01*
X77114596Y-79907242D02*
X77138787Y-79931433D01*
X77090406Y-80100766D02*
X77090406Y-80439433D01*
X77090406Y-80439433D02*
X77598406Y-80221718D01*
X104630663Y-68171844D02*
X104654854Y-68147653D01*
X104654854Y-68147653D02*
X104679044Y-68075082D01*
X104679044Y-68075082D02*
X104679044Y-68026701D01*
X104679044Y-68026701D02*
X104654854Y-67954129D01*
X104654854Y-67954129D02*
X104606473Y-67905748D01*
X104606473Y-67905748D02*
X104558092Y-67881558D01*
X104558092Y-67881558D02*
X104461330Y-67857367D01*
X104461330Y-67857367D02*
X104388758Y-67857367D01*
X104388758Y-67857367D02*
X104291996Y-67881558D01*
X104291996Y-67881558D02*
X104243615Y-67905748D01*
X104243615Y-67905748D02*
X104195234Y-67954129D01*
X104195234Y-67954129D02*
X104171044Y-68026701D01*
X104171044Y-68026701D02*
X104171044Y-68075082D01*
X104171044Y-68075082D02*
X104195234Y-68147653D01*
X104195234Y-68147653D02*
X104219425Y-68171844D01*
X104727425Y-68268606D02*
X104727425Y-68655653D01*
X104412949Y-68945939D02*
X104437139Y-69018511D01*
X104437139Y-69018511D02*
X104461330Y-69042701D01*
X104461330Y-69042701D02*
X104509711Y-69066892D01*
X104509711Y-69066892D02*
X104582282Y-69066892D01*
X104582282Y-69066892D02*
X104630663Y-69042701D01*
X104630663Y-69042701D02*
X104654854Y-69018511D01*
X104654854Y-69018511D02*
X104679044Y-68970130D01*
X104679044Y-68970130D02*
X104679044Y-68776606D01*
X104679044Y-68776606D02*
X104171044Y-68776606D01*
X104171044Y-68776606D02*
X104171044Y-68945939D01*
X104171044Y-68945939D02*
X104195234Y-68994320D01*
X104195234Y-68994320D02*
X104219425Y-69018511D01*
X104219425Y-69018511D02*
X104267806Y-69042701D01*
X104267806Y-69042701D02*
X104316187Y-69042701D01*
X104316187Y-69042701D02*
X104364568Y-69018511D01*
X104364568Y-69018511D02*
X104388758Y-68994320D01*
X104388758Y-68994320D02*
X104412949Y-68945939D01*
X104412949Y-68945939D02*
X104412949Y-68776606D01*
X104533901Y-69260415D02*
X104533901Y-69502320D01*
X104679044Y-69212034D02*
X104171044Y-69381368D01*
X104171044Y-69381368D02*
X104679044Y-69550701D01*
X104171044Y-69647463D02*
X104171044Y-69937749D01*
X104679044Y-69792606D02*
X104171044Y-69792606D01*
X104171044Y-70034511D02*
X104171044Y-70324797D01*
X104679044Y-70179654D02*
X104171044Y-70179654D01*
X104219425Y-70469940D02*
X104195234Y-70494131D01*
X104195234Y-70494131D02*
X104171044Y-70542512D01*
X104171044Y-70542512D02*
X104171044Y-70663464D01*
X104171044Y-70663464D02*
X104195234Y-70711845D01*
X104195234Y-70711845D02*
X104219425Y-70736036D01*
X104219425Y-70736036D02*
X104267806Y-70760226D01*
X104267806Y-70760226D02*
X104316187Y-70760226D01*
X104316187Y-70760226D02*
X104388758Y-70736036D01*
X104388758Y-70736036D02*
X104679044Y-70445750D01*
X104679044Y-70445750D02*
X104679044Y-70760226D01*
X75308406Y-82056433D02*
X75066501Y-81887099D01*
X75308406Y-81766147D02*
X74800406Y-81766147D01*
X74800406Y-81766147D02*
X74800406Y-81959671D01*
X74800406Y-81959671D02*
X74824596Y-82008052D01*
X74824596Y-82008052D02*
X74848787Y-82032242D01*
X74848787Y-82032242D02*
X74897168Y-82056433D01*
X74897168Y-82056433D02*
X74969739Y-82056433D01*
X74969739Y-82056433D02*
X75018120Y-82032242D01*
X75018120Y-82032242D02*
X75042311Y-82008052D01*
X75042311Y-82008052D02*
X75066501Y-81959671D01*
X75066501Y-81959671D02*
X75066501Y-81766147D01*
X74848787Y-82249956D02*
X74824596Y-82274147D01*
X74824596Y-82274147D02*
X74800406Y-82322528D01*
X74800406Y-82322528D02*
X74800406Y-82443480D01*
X74800406Y-82443480D02*
X74824596Y-82491861D01*
X74824596Y-82491861D02*
X74848787Y-82516052D01*
X74848787Y-82516052D02*
X74897168Y-82540242D01*
X74897168Y-82540242D02*
X74945549Y-82540242D01*
X74945549Y-82540242D02*
X75018120Y-82516052D01*
X75018120Y-82516052D02*
X75308406Y-82225766D01*
X75308406Y-82225766D02*
X75308406Y-82540242D01*
X82158406Y-81731433D02*
X81916501Y-81562099D01*
X82158406Y-81441147D02*
X81650406Y-81441147D01*
X81650406Y-81441147D02*
X81650406Y-81634671D01*
X81650406Y-81634671D02*
X81674596Y-81683052D01*
X81674596Y-81683052D02*
X81698787Y-81707242D01*
X81698787Y-81707242D02*
X81747168Y-81731433D01*
X81747168Y-81731433D02*
X81819739Y-81731433D01*
X81819739Y-81731433D02*
X81868120Y-81707242D01*
X81868120Y-81707242D02*
X81892311Y-81683052D01*
X81892311Y-81683052D02*
X81916501Y-81634671D01*
X81916501Y-81634671D02*
X81916501Y-81441147D01*
X81650406Y-81900766D02*
X81650406Y-82215242D01*
X81650406Y-82215242D02*
X81843930Y-82045909D01*
X81843930Y-82045909D02*
X81843930Y-82118480D01*
X81843930Y-82118480D02*
X81868120Y-82166861D01*
X81868120Y-82166861D02*
X81892311Y-82191052D01*
X81892311Y-82191052D02*
X81940692Y-82215242D01*
X81940692Y-82215242D02*
X82061644Y-82215242D01*
X82061644Y-82215242D02*
X82110025Y-82191052D01*
X82110025Y-82191052D02*
X82134216Y-82166861D01*
X82134216Y-82166861D02*
X82158406Y-82118480D01*
X82158406Y-82118480D02*
X82158406Y-81973337D01*
X82158406Y-81973337D02*
X82134216Y-81924956D01*
X82134216Y-81924956D02*
X82110025Y-81900766D01*
X118221714Y-83478406D02*
X118391048Y-83236501D01*
X118512000Y-83478406D02*
X118512000Y-82970406D01*
X118512000Y-82970406D02*
X118318476Y-82970406D01*
X118318476Y-82970406D02*
X118270095Y-82994596D01*
X118270095Y-82994596D02*
X118245905Y-83018787D01*
X118245905Y-83018787D02*
X118221714Y-83067168D01*
X118221714Y-83067168D02*
X118221714Y-83139739D01*
X118221714Y-83139739D02*
X118245905Y-83188120D01*
X118245905Y-83188120D02*
X118270095Y-83212311D01*
X118270095Y-83212311D02*
X118318476Y-83236501D01*
X118318476Y-83236501D02*
X118512000Y-83236501D01*
X118124953Y-83526787D02*
X117737905Y-83526787D01*
X117689524Y-82970406D02*
X117399238Y-82970406D01*
X117544381Y-83478406D02*
X117544381Y-82970406D01*
X116987999Y-82970406D02*
X117229904Y-82970406D01*
X117229904Y-82970406D02*
X117254095Y-83212311D01*
X117254095Y-83212311D02*
X117229904Y-83188120D01*
X117229904Y-83188120D02*
X117181523Y-83163930D01*
X117181523Y-83163930D02*
X117060571Y-83163930D01*
X117060571Y-83163930D02*
X117012190Y-83188120D01*
X117012190Y-83188120D02*
X116987999Y-83212311D01*
X116987999Y-83212311D02*
X116963809Y-83260692D01*
X116963809Y-83260692D02*
X116963809Y-83381644D01*
X116963809Y-83381644D02*
X116987999Y-83430025D01*
X116987999Y-83430025D02*
X117012190Y-83454216D01*
X117012190Y-83454216D02*
X117060571Y-83478406D01*
X117060571Y-83478406D02*
X117181523Y-83478406D01*
X117181523Y-83478406D02*
X117229904Y-83454216D01*
X117229904Y-83454216D02*
X117254095Y-83430025D01*
X128336968Y-112245010D02*
X128095063Y-112075676D01*
X128336968Y-111954724D02*
X127828968Y-111954724D01*
X127828968Y-111954724D02*
X127828968Y-112148248D01*
X127828968Y-112148248D02*
X127853158Y-112196629D01*
X127853158Y-112196629D02*
X127877349Y-112220819D01*
X127877349Y-112220819D02*
X127925730Y-112245010D01*
X127925730Y-112245010D02*
X127998301Y-112245010D01*
X127998301Y-112245010D02*
X128046682Y-112220819D01*
X128046682Y-112220819D02*
X128070873Y-112196629D01*
X128070873Y-112196629D02*
X128095063Y-112148248D01*
X128095063Y-112148248D02*
X128095063Y-111954724D01*
X128385349Y-112341772D02*
X128385349Y-112728819D01*
X128336968Y-112849772D02*
X127828968Y-112849772D01*
X128070873Y-112849772D02*
X128070873Y-113140058D01*
X128336968Y-113140058D02*
X127828968Y-113140058D01*
X127998301Y-113599676D02*
X128336968Y-113599676D01*
X127804778Y-113478724D02*
X128167635Y-113357771D01*
X128167635Y-113357771D02*
X128167635Y-113672248D01*
X86662014Y-125243821D02*
X86686205Y-125268012D01*
X86686205Y-125268012D02*
X86758776Y-125292202D01*
X86758776Y-125292202D02*
X86807157Y-125292202D01*
X86807157Y-125292202D02*
X86879729Y-125268012D01*
X86879729Y-125268012D02*
X86928110Y-125219631D01*
X86928110Y-125219631D02*
X86952300Y-125171250D01*
X86952300Y-125171250D02*
X86976491Y-125074488D01*
X86976491Y-125074488D02*
X86976491Y-125001916D01*
X86976491Y-125001916D02*
X86952300Y-124905154D01*
X86952300Y-124905154D02*
X86928110Y-124856773D01*
X86928110Y-124856773D02*
X86879729Y-124808392D01*
X86879729Y-124808392D02*
X86807157Y-124784202D01*
X86807157Y-124784202D02*
X86758776Y-124784202D01*
X86758776Y-124784202D02*
X86686205Y-124808392D01*
X86686205Y-124808392D02*
X86662014Y-124832583D01*
X86565253Y-125340583D02*
X86178205Y-125340583D01*
X85887919Y-125026107D02*
X85815347Y-125050297D01*
X85815347Y-125050297D02*
X85791157Y-125074488D01*
X85791157Y-125074488D02*
X85766966Y-125122869D01*
X85766966Y-125122869D02*
X85766966Y-125195440D01*
X85766966Y-125195440D02*
X85791157Y-125243821D01*
X85791157Y-125243821D02*
X85815347Y-125268012D01*
X85815347Y-125268012D02*
X85863728Y-125292202D01*
X85863728Y-125292202D02*
X86057252Y-125292202D01*
X86057252Y-125292202D02*
X86057252Y-124784202D01*
X86057252Y-124784202D02*
X85887919Y-124784202D01*
X85887919Y-124784202D02*
X85839538Y-124808392D01*
X85839538Y-124808392D02*
X85815347Y-124832583D01*
X85815347Y-124832583D02*
X85791157Y-124880964D01*
X85791157Y-124880964D02*
X85791157Y-124929345D01*
X85791157Y-124929345D02*
X85815347Y-124977726D01*
X85815347Y-124977726D02*
X85839538Y-125001916D01*
X85839538Y-125001916D02*
X85887919Y-125026107D01*
X85887919Y-125026107D02*
X86057252Y-125026107D01*
X85573443Y-125147059D02*
X85331538Y-125147059D01*
X85621824Y-125292202D02*
X85452490Y-124784202D01*
X85452490Y-124784202D02*
X85283157Y-125292202D01*
X85186395Y-124784202D02*
X84896109Y-124784202D01*
X85041252Y-125292202D02*
X85041252Y-124784202D01*
X84799347Y-124784202D02*
X84509061Y-124784202D01*
X84654204Y-125292202D02*
X84654204Y-124784202D01*
X84122013Y-124953535D02*
X84122013Y-125292202D01*
X84242965Y-124760012D02*
X84363918Y-125122869D01*
X84363918Y-125122869D02*
X84049441Y-125122869D01*
X82546776Y-117067202D02*
X82716110Y-116825297D01*
X82837062Y-117067202D02*
X82837062Y-116559202D01*
X82837062Y-116559202D02*
X82643538Y-116559202D01*
X82643538Y-116559202D02*
X82595157Y-116583392D01*
X82595157Y-116583392D02*
X82570967Y-116607583D01*
X82570967Y-116607583D02*
X82546776Y-116655964D01*
X82546776Y-116655964D02*
X82546776Y-116728535D01*
X82546776Y-116728535D02*
X82570967Y-116776916D01*
X82570967Y-116776916D02*
X82595157Y-116801107D01*
X82595157Y-116801107D02*
X82643538Y-116825297D01*
X82643538Y-116825297D02*
X82837062Y-116825297D01*
X82450015Y-117115583D02*
X82062967Y-117115583D01*
X82014586Y-116559202D02*
X81724300Y-116559202D01*
X81869443Y-117067202D02*
X81869443Y-116559202D01*
X81603347Y-116559202D02*
X81288871Y-116559202D01*
X81288871Y-116559202D02*
X81458204Y-116752726D01*
X81458204Y-116752726D02*
X81385633Y-116752726D01*
X81385633Y-116752726D02*
X81337252Y-116776916D01*
X81337252Y-116776916D02*
X81313061Y-116801107D01*
X81313061Y-116801107D02*
X81288871Y-116849488D01*
X81288871Y-116849488D02*
X81288871Y-116970440D01*
X81288871Y-116970440D02*
X81313061Y-117018821D01*
X81313061Y-117018821D02*
X81337252Y-117043012D01*
X81337252Y-117043012D02*
X81385633Y-117067202D01*
X81385633Y-117067202D02*
X81530776Y-117067202D01*
X81530776Y-117067202D02*
X81579157Y-117043012D01*
X81579157Y-117043012D02*
X81603347Y-117018821D01*
X125271714Y-115294702D02*
X125441048Y-115052797D01*
X125562000Y-115294702D02*
X125562000Y-114786702D01*
X125562000Y-114786702D02*
X125368476Y-114786702D01*
X125368476Y-114786702D02*
X125320095Y-114810892D01*
X125320095Y-114810892D02*
X125295905Y-114835083D01*
X125295905Y-114835083D02*
X125271714Y-114883464D01*
X125271714Y-114883464D02*
X125271714Y-114956035D01*
X125271714Y-114956035D02*
X125295905Y-115004416D01*
X125295905Y-115004416D02*
X125320095Y-115028607D01*
X125320095Y-115028607D02*
X125368476Y-115052797D01*
X125368476Y-115052797D02*
X125562000Y-115052797D01*
X125174953Y-115343083D02*
X124787905Y-115343083D01*
X124739524Y-114786702D02*
X124449238Y-114786702D01*
X124594381Y-115294702D02*
X124594381Y-114786702D01*
X124328285Y-114786702D02*
X123989618Y-114786702D01*
X123989618Y-114786702D02*
X124207333Y-115294702D01*
X86662014Y-129292202D02*
X86831348Y-129050297D01*
X86952300Y-129292202D02*
X86952300Y-128784202D01*
X86952300Y-128784202D02*
X86758776Y-128784202D01*
X86758776Y-128784202D02*
X86710395Y-128808392D01*
X86710395Y-128808392D02*
X86686205Y-128832583D01*
X86686205Y-128832583D02*
X86662014Y-128880964D01*
X86662014Y-128880964D02*
X86662014Y-128953535D01*
X86662014Y-128953535D02*
X86686205Y-129001916D01*
X86686205Y-129001916D02*
X86710395Y-129026107D01*
X86710395Y-129026107D02*
X86758776Y-129050297D01*
X86758776Y-129050297D02*
X86952300Y-129050297D01*
X86565253Y-129340583D02*
X86178205Y-129340583D01*
X85887919Y-129026107D02*
X85815347Y-129050297D01*
X85815347Y-129050297D02*
X85791157Y-129074488D01*
X85791157Y-129074488D02*
X85766966Y-129122869D01*
X85766966Y-129122869D02*
X85766966Y-129195440D01*
X85766966Y-129195440D02*
X85791157Y-129243821D01*
X85791157Y-129243821D02*
X85815347Y-129268012D01*
X85815347Y-129268012D02*
X85863728Y-129292202D01*
X85863728Y-129292202D02*
X86057252Y-129292202D01*
X86057252Y-129292202D02*
X86057252Y-128784202D01*
X86057252Y-128784202D02*
X85887919Y-128784202D01*
X85887919Y-128784202D02*
X85839538Y-128808392D01*
X85839538Y-128808392D02*
X85815347Y-128832583D01*
X85815347Y-128832583D02*
X85791157Y-128880964D01*
X85791157Y-128880964D02*
X85791157Y-128929345D01*
X85791157Y-128929345D02*
X85815347Y-128977726D01*
X85815347Y-128977726D02*
X85839538Y-129001916D01*
X85839538Y-129001916D02*
X85887919Y-129026107D01*
X85887919Y-129026107D02*
X86057252Y-129026107D01*
X85573443Y-129147059D02*
X85331538Y-129147059D01*
X85621824Y-129292202D02*
X85452490Y-128784202D01*
X85452490Y-128784202D02*
X85283157Y-129292202D01*
X85186395Y-128784202D02*
X84896109Y-128784202D01*
X85041252Y-129292202D02*
X85041252Y-128784202D01*
X84799347Y-128784202D02*
X84509061Y-128784202D01*
X84654204Y-129292202D02*
X84654204Y-128784202D01*
X84363918Y-128832583D02*
X84339727Y-128808392D01*
X84339727Y-128808392D02*
X84291346Y-128784202D01*
X84291346Y-128784202D02*
X84170394Y-128784202D01*
X84170394Y-128784202D02*
X84122013Y-128808392D01*
X84122013Y-128808392D02*
X84097822Y-128832583D01*
X84097822Y-128832583D02*
X84073632Y-128880964D01*
X84073632Y-128880964D02*
X84073632Y-128929345D01*
X84073632Y-128929345D02*
X84097822Y-129001916D01*
X84097822Y-129001916D02*
X84388108Y-129292202D01*
X84388108Y-129292202D02*
X84073632Y-129292202D01*
X100679044Y-68171844D02*
X100437139Y-68002510D01*
X100679044Y-67881558D02*
X100171044Y-67881558D01*
X100171044Y-67881558D02*
X100171044Y-68075082D01*
X100171044Y-68075082D02*
X100195234Y-68123463D01*
X100195234Y-68123463D02*
X100219425Y-68147653D01*
X100219425Y-68147653D02*
X100267806Y-68171844D01*
X100267806Y-68171844D02*
X100340377Y-68171844D01*
X100340377Y-68171844D02*
X100388758Y-68147653D01*
X100388758Y-68147653D02*
X100412949Y-68123463D01*
X100412949Y-68123463D02*
X100437139Y-68075082D01*
X100437139Y-68075082D02*
X100437139Y-67881558D01*
X100727425Y-68268606D02*
X100727425Y-68655653D01*
X100412949Y-68945939D02*
X100437139Y-69018511D01*
X100437139Y-69018511D02*
X100461330Y-69042701D01*
X100461330Y-69042701D02*
X100509711Y-69066892D01*
X100509711Y-69066892D02*
X100582282Y-69066892D01*
X100582282Y-69066892D02*
X100630663Y-69042701D01*
X100630663Y-69042701D02*
X100654854Y-69018511D01*
X100654854Y-69018511D02*
X100679044Y-68970130D01*
X100679044Y-68970130D02*
X100679044Y-68776606D01*
X100679044Y-68776606D02*
X100171044Y-68776606D01*
X100171044Y-68776606D02*
X100171044Y-68945939D01*
X100171044Y-68945939D02*
X100195234Y-68994320D01*
X100195234Y-68994320D02*
X100219425Y-69018511D01*
X100219425Y-69018511D02*
X100267806Y-69042701D01*
X100267806Y-69042701D02*
X100316187Y-69042701D01*
X100316187Y-69042701D02*
X100364568Y-69018511D01*
X100364568Y-69018511D02*
X100388758Y-68994320D01*
X100388758Y-68994320D02*
X100412949Y-68945939D01*
X100412949Y-68945939D02*
X100412949Y-68776606D01*
X100533901Y-69260415D02*
X100533901Y-69502320D01*
X100679044Y-69212034D02*
X100171044Y-69381368D01*
X100171044Y-69381368D02*
X100679044Y-69550701D01*
X100171044Y-69647463D02*
X100171044Y-69937749D01*
X100679044Y-69792606D02*
X100171044Y-69792606D01*
X100171044Y-70034511D02*
X100171044Y-70324797D01*
X100679044Y-70179654D02*
X100171044Y-70179654D01*
X100679044Y-70760226D02*
X100679044Y-70469940D01*
X100679044Y-70615083D02*
X100171044Y-70615083D01*
X100171044Y-70615083D02*
X100243615Y-70566702D01*
X100243615Y-70566702D02*
X100291996Y-70518321D01*
X100291996Y-70518321D02*
X100316187Y-70469940D01*
X121433468Y-80389510D02*
X121191563Y-80220176D01*
X121433468Y-80099224D02*
X120925468Y-80099224D01*
X120925468Y-80099224D02*
X120925468Y-80292748D01*
X120925468Y-80292748D02*
X120949658Y-80341129D01*
X120949658Y-80341129D02*
X120973849Y-80365319D01*
X120973849Y-80365319D02*
X121022230Y-80389510D01*
X121022230Y-80389510D02*
X121094801Y-80389510D01*
X121094801Y-80389510D02*
X121143182Y-80365319D01*
X121143182Y-80365319D02*
X121167373Y-80341129D01*
X121167373Y-80341129D02*
X121191563Y-80292748D01*
X121191563Y-80292748D02*
X121191563Y-80099224D01*
X121481849Y-80486272D02*
X121481849Y-80873319D01*
X121433468Y-80994272D02*
X120925468Y-80994272D01*
X121167373Y-80994272D02*
X121167373Y-81284558D01*
X121433468Y-81284558D02*
X120925468Y-81284558D01*
X120925468Y-81478081D02*
X120925468Y-81792557D01*
X120925468Y-81792557D02*
X121118992Y-81623224D01*
X121118992Y-81623224D02*
X121118992Y-81695795D01*
X121118992Y-81695795D02*
X121143182Y-81744176D01*
X121143182Y-81744176D02*
X121167373Y-81768367D01*
X121167373Y-81768367D02*
X121215754Y-81792557D01*
X121215754Y-81792557D02*
X121336706Y-81792557D01*
X121336706Y-81792557D02*
X121385087Y-81768367D01*
X121385087Y-81768367D02*
X121409278Y-81744176D01*
X121409278Y-81744176D02*
X121433468Y-81695795D01*
X121433468Y-81695795D02*
X121433468Y-81550652D01*
X121433468Y-81550652D02*
X121409278Y-81502271D01*
X121409278Y-81502271D02*
X121385087Y-81478081D01*
X90271776Y-81967202D02*
X90441110Y-81725297D01*
X90562062Y-81967202D02*
X90562062Y-81459202D01*
X90562062Y-81459202D02*
X90368538Y-81459202D01*
X90368538Y-81459202D02*
X90320157Y-81483392D01*
X90320157Y-81483392D02*
X90295967Y-81507583D01*
X90295967Y-81507583D02*
X90271776Y-81555964D01*
X90271776Y-81555964D02*
X90271776Y-81628535D01*
X90271776Y-81628535D02*
X90295967Y-81676916D01*
X90295967Y-81676916D02*
X90320157Y-81701107D01*
X90320157Y-81701107D02*
X90368538Y-81725297D01*
X90368538Y-81725297D02*
X90562062Y-81725297D01*
X90175015Y-82015583D02*
X89787967Y-82015583D01*
X89739586Y-81459202D02*
X89449300Y-81459202D01*
X89594443Y-81967202D02*
X89594443Y-81459202D01*
X89013871Y-81967202D02*
X89304157Y-81967202D01*
X89159014Y-81967202D02*
X89159014Y-81459202D01*
X89159014Y-81459202D02*
X89207395Y-81531773D01*
X89207395Y-81531773D02*
X89255776Y-81580154D01*
X89255776Y-81580154D02*
X89304157Y-81604345D01*
X121028406Y-119449343D02*
X120786501Y-119280009D01*
X121028406Y-119159057D02*
X120520406Y-119159057D01*
X120520406Y-119159057D02*
X120520406Y-119352581D01*
X120520406Y-119352581D02*
X120544596Y-119400962D01*
X120544596Y-119400962D02*
X120568787Y-119425152D01*
X120568787Y-119425152D02*
X120617168Y-119449343D01*
X120617168Y-119449343D02*
X120689739Y-119449343D01*
X120689739Y-119449343D02*
X120738120Y-119425152D01*
X120738120Y-119425152D02*
X120762311Y-119400962D01*
X120762311Y-119400962D02*
X120786501Y-119352581D01*
X120786501Y-119352581D02*
X120786501Y-119159057D01*
X121076787Y-119546105D02*
X121076787Y-119933152D01*
X120762311Y-120223438D02*
X120786501Y-120296010D01*
X120786501Y-120296010D02*
X120810692Y-120320200D01*
X120810692Y-120320200D02*
X120859073Y-120344391D01*
X120859073Y-120344391D02*
X120931644Y-120344391D01*
X120931644Y-120344391D02*
X120980025Y-120320200D01*
X120980025Y-120320200D02*
X121004216Y-120296010D01*
X121004216Y-120296010D02*
X121028406Y-120247629D01*
X121028406Y-120247629D02*
X121028406Y-120054105D01*
X121028406Y-120054105D02*
X120520406Y-120054105D01*
X120520406Y-120054105D02*
X120520406Y-120223438D01*
X120520406Y-120223438D02*
X120544596Y-120271819D01*
X120544596Y-120271819D02*
X120568787Y-120296010D01*
X120568787Y-120296010D02*
X120617168Y-120320200D01*
X120617168Y-120320200D02*
X120665549Y-120320200D01*
X120665549Y-120320200D02*
X120713930Y-120296010D01*
X120713930Y-120296010D02*
X120738120Y-120271819D01*
X120738120Y-120271819D02*
X120762311Y-120223438D01*
X120762311Y-120223438D02*
X120762311Y-120054105D01*
X120883263Y-120537914D02*
X120883263Y-120779819D01*
X121028406Y-120489533D02*
X120520406Y-120658867D01*
X120520406Y-120658867D02*
X121028406Y-120828200D01*
X120520406Y-120924962D02*
X120520406Y-121215248D01*
X121028406Y-121070105D02*
X120520406Y-121070105D01*
X120520406Y-121312010D02*
X120520406Y-121602296D01*
X121028406Y-121457153D02*
X120520406Y-121457153D01*
X120689739Y-121989344D02*
X121028406Y-121989344D01*
X120496216Y-121868392D02*
X120859073Y-121747439D01*
X120859073Y-121747439D02*
X120859073Y-122061916D01*
X93408468Y-78914510D02*
X93166563Y-78745176D01*
X93408468Y-78624224D02*
X92900468Y-78624224D01*
X92900468Y-78624224D02*
X92900468Y-78817748D01*
X92900468Y-78817748D02*
X92924658Y-78866129D01*
X92924658Y-78866129D02*
X92948849Y-78890319D01*
X92948849Y-78890319D02*
X92997230Y-78914510D01*
X92997230Y-78914510D02*
X93069801Y-78914510D01*
X93069801Y-78914510D02*
X93118182Y-78890319D01*
X93118182Y-78890319D02*
X93142373Y-78866129D01*
X93142373Y-78866129D02*
X93166563Y-78817748D01*
X93166563Y-78817748D02*
X93166563Y-78624224D01*
X93456849Y-79011272D02*
X93456849Y-79398319D01*
X93408468Y-79519272D02*
X92900468Y-79519272D01*
X93142373Y-79519272D02*
X93142373Y-79809558D01*
X93408468Y-79809558D02*
X92900468Y-79809558D01*
X93408468Y-80317557D02*
X93408468Y-80027271D01*
X93408468Y-80172414D02*
X92900468Y-80172414D01*
X92900468Y-80172414D02*
X92973039Y-80124033D01*
X92973039Y-80124033D02*
X93021420Y-80075652D01*
X93021420Y-80075652D02*
X93045611Y-80027271D01*
X121658468Y-100315333D02*
X121416563Y-100145999D01*
X121658468Y-100025047D02*
X121150468Y-100025047D01*
X121150468Y-100025047D02*
X121150468Y-100218571D01*
X121150468Y-100218571D02*
X121174658Y-100266952D01*
X121174658Y-100266952D02*
X121198849Y-100291142D01*
X121198849Y-100291142D02*
X121247230Y-100315333D01*
X121247230Y-100315333D02*
X121319801Y-100315333D01*
X121319801Y-100315333D02*
X121368182Y-100291142D01*
X121368182Y-100291142D02*
X121392373Y-100266952D01*
X121392373Y-100266952D02*
X121416563Y-100218571D01*
X121416563Y-100218571D02*
X121416563Y-100025047D01*
X121150468Y-100484666D02*
X121150468Y-100823333D01*
X121150468Y-100823333D02*
X121658468Y-100605618D01*
X109000025Y-124494790D02*
X109024216Y-124470599D01*
X109024216Y-124470599D02*
X109048406Y-124398028D01*
X109048406Y-124398028D02*
X109048406Y-124349647D01*
X109048406Y-124349647D02*
X109024216Y-124277075D01*
X109024216Y-124277075D02*
X108975835Y-124228694D01*
X108975835Y-124228694D02*
X108927454Y-124204504D01*
X108927454Y-124204504D02*
X108830692Y-124180313D01*
X108830692Y-124180313D02*
X108758120Y-124180313D01*
X108758120Y-124180313D02*
X108661358Y-124204504D01*
X108661358Y-124204504D02*
X108612977Y-124228694D01*
X108612977Y-124228694D02*
X108564596Y-124277075D01*
X108564596Y-124277075D02*
X108540406Y-124349647D01*
X108540406Y-124349647D02*
X108540406Y-124398028D01*
X108540406Y-124398028D02*
X108564596Y-124470599D01*
X108564596Y-124470599D02*
X108588787Y-124494790D01*
X108588787Y-124688313D02*
X108564596Y-124712504D01*
X108564596Y-124712504D02*
X108540406Y-124760885D01*
X108540406Y-124760885D02*
X108540406Y-124881837D01*
X108540406Y-124881837D02*
X108564596Y-124930218D01*
X108564596Y-124930218D02*
X108588787Y-124954409D01*
X108588787Y-124954409D02*
X108637168Y-124978599D01*
X108637168Y-124978599D02*
X108685549Y-124978599D01*
X108685549Y-124978599D02*
X108758120Y-124954409D01*
X108758120Y-124954409D02*
X109048406Y-124664123D01*
X109048406Y-124664123D02*
X109048406Y-124978599D01*
X108903263Y-125172123D02*
X108903263Y-125414028D01*
X109048406Y-125123742D02*
X108540406Y-125293076D01*
X108540406Y-125293076D02*
X109048406Y-125462409D01*
X109048406Y-125897838D02*
X109048406Y-125607552D01*
X109048406Y-125752695D02*
X108540406Y-125752695D01*
X108540406Y-125752695D02*
X108612977Y-125704314D01*
X108612977Y-125704314D02*
X108661358Y-125655933D01*
X108661358Y-125655933D02*
X108685549Y-125607552D01*
X110700025Y-124494790D02*
X110724216Y-124470599D01*
X110724216Y-124470599D02*
X110748406Y-124398028D01*
X110748406Y-124398028D02*
X110748406Y-124349647D01*
X110748406Y-124349647D02*
X110724216Y-124277075D01*
X110724216Y-124277075D02*
X110675835Y-124228694D01*
X110675835Y-124228694D02*
X110627454Y-124204504D01*
X110627454Y-124204504D02*
X110530692Y-124180313D01*
X110530692Y-124180313D02*
X110458120Y-124180313D01*
X110458120Y-124180313D02*
X110361358Y-124204504D01*
X110361358Y-124204504D02*
X110312977Y-124228694D01*
X110312977Y-124228694D02*
X110264596Y-124277075D01*
X110264596Y-124277075D02*
X110240406Y-124349647D01*
X110240406Y-124349647D02*
X110240406Y-124398028D01*
X110240406Y-124398028D02*
X110264596Y-124470599D01*
X110264596Y-124470599D02*
X110288787Y-124494790D01*
X110288787Y-124688313D02*
X110264596Y-124712504D01*
X110264596Y-124712504D02*
X110240406Y-124760885D01*
X110240406Y-124760885D02*
X110240406Y-124881837D01*
X110240406Y-124881837D02*
X110264596Y-124930218D01*
X110264596Y-124930218D02*
X110288787Y-124954409D01*
X110288787Y-124954409D02*
X110337168Y-124978599D01*
X110337168Y-124978599D02*
X110385549Y-124978599D01*
X110385549Y-124978599D02*
X110458120Y-124954409D01*
X110458120Y-124954409D02*
X110748406Y-124664123D01*
X110748406Y-124664123D02*
X110748406Y-124978599D01*
X110482311Y-125365647D02*
X110506501Y-125438219D01*
X110506501Y-125438219D02*
X110530692Y-125462409D01*
X110530692Y-125462409D02*
X110579073Y-125486600D01*
X110579073Y-125486600D02*
X110651644Y-125486600D01*
X110651644Y-125486600D02*
X110700025Y-125462409D01*
X110700025Y-125462409D02*
X110724216Y-125438219D01*
X110724216Y-125438219D02*
X110748406Y-125389838D01*
X110748406Y-125389838D02*
X110748406Y-125196314D01*
X110748406Y-125196314D02*
X110240406Y-125196314D01*
X110240406Y-125196314D02*
X110240406Y-125365647D01*
X110240406Y-125365647D02*
X110264596Y-125414028D01*
X110264596Y-125414028D02*
X110288787Y-125438219D01*
X110288787Y-125438219D02*
X110337168Y-125462409D01*
X110337168Y-125462409D02*
X110385549Y-125462409D01*
X110385549Y-125462409D02*
X110433930Y-125438219D01*
X110433930Y-125438219D02*
X110458120Y-125414028D01*
X110458120Y-125414028D02*
X110482311Y-125365647D01*
X110482311Y-125365647D02*
X110482311Y-125196314D01*
X110748406Y-125970409D02*
X110748406Y-125680123D01*
X110748406Y-125825266D02*
X110240406Y-125825266D01*
X110240406Y-125825266D02*
X110312977Y-125776885D01*
X110312977Y-125776885D02*
X110361358Y-125728504D01*
X110361358Y-125728504D02*
X110385549Y-125680123D01*
X117978406Y-84869414D02*
X117736501Y-84700080D01*
X117978406Y-84579128D02*
X117470406Y-84579128D01*
X117470406Y-84579128D02*
X117470406Y-84772652D01*
X117470406Y-84772652D02*
X117494596Y-84821033D01*
X117494596Y-84821033D02*
X117518787Y-84845223D01*
X117518787Y-84845223D02*
X117567168Y-84869414D01*
X117567168Y-84869414D02*
X117639739Y-84869414D01*
X117639739Y-84869414D02*
X117688120Y-84845223D01*
X117688120Y-84845223D02*
X117712311Y-84821033D01*
X117712311Y-84821033D02*
X117736501Y-84772652D01*
X117736501Y-84772652D02*
X117736501Y-84579128D01*
X118026787Y-84966176D02*
X118026787Y-85353223D01*
X117978406Y-85474176D02*
X117470406Y-85474176D01*
X117954216Y-85691890D02*
X117978406Y-85764462D01*
X117978406Y-85764462D02*
X117978406Y-85885414D01*
X117978406Y-85885414D02*
X117954216Y-85933795D01*
X117954216Y-85933795D02*
X117930025Y-85957986D01*
X117930025Y-85957986D02*
X117881644Y-85982176D01*
X117881644Y-85982176D02*
X117833263Y-85982176D01*
X117833263Y-85982176D02*
X117784882Y-85957986D01*
X117784882Y-85957986D02*
X117760692Y-85933795D01*
X117760692Y-85933795D02*
X117736501Y-85885414D01*
X117736501Y-85885414D02*
X117712311Y-85788652D01*
X117712311Y-85788652D02*
X117688120Y-85740271D01*
X117688120Y-85740271D02*
X117663930Y-85716081D01*
X117663930Y-85716081D02*
X117615549Y-85691890D01*
X117615549Y-85691890D02*
X117567168Y-85691890D01*
X117567168Y-85691890D02*
X117518787Y-85716081D01*
X117518787Y-85716081D02*
X117494596Y-85740271D01*
X117494596Y-85740271D02*
X117470406Y-85788652D01*
X117470406Y-85788652D02*
X117470406Y-85909605D01*
X117470406Y-85909605D02*
X117494596Y-85982176D01*
X117712311Y-86199891D02*
X117712311Y-86369224D01*
X117978406Y-86441796D02*
X117978406Y-86199891D01*
X117978406Y-86199891D02*
X117470406Y-86199891D01*
X117470406Y-86199891D02*
X117470406Y-86441796D01*
X117470406Y-86586938D02*
X117470406Y-86877224D01*
X117978406Y-86732081D02*
X117470406Y-86732081D01*
X117470406Y-86998177D02*
X117470406Y-87312653D01*
X117470406Y-87312653D02*
X117663930Y-87143320D01*
X117663930Y-87143320D02*
X117663930Y-87215891D01*
X117663930Y-87215891D02*
X117688120Y-87264272D01*
X117688120Y-87264272D02*
X117712311Y-87288463D01*
X117712311Y-87288463D02*
X117760692Y-87312653D01*
X117760692Y-87312653D02*
X117881644Y-87312653D01*
X117881644Y-87312653D02*
X117930025Y-87288463D01*
X117930025Y-87288463D02*
X117954216Y-87264272D01*
X117954216Y-87264272D02*
X117978406Y-87215891D01*
X117978406Y-87215891D02*
X117978406Y-87070748D01*
X117978406Y-87070748D02*
X117954216Y-87022367D01*
X117954216Y-87022367D02*
X117930025Y-86998177D01*
X82110025Y-78731433D02*
X82134216Y-78707242D01*
X82134216Y-78707242D02*
X82158406Y-78634671D01*
X82158406Y-78634671D02*
X82158406Y-78586290D01*
X82158406Y-78586290D02*
X82134216Y-78513718D01*
X82134216Y-78513718D02*
X82085835Y-78465337D01*
X82085835Y-78465337D02*
X82037454Y-78441147D01*
X82037454Y-78441147D02*
X81940692Y-78416956D01*
X81940692Y-78416956D02*
X81868120Y-78416956D01*
X81868120Y-78416956D02*
X81771358Y-78441147D01*
X81771358Y-78441147D02*
X81722977Y-78465337D01*
X81722977Y-78465337D02*
X81674596Y-78513718D01*
X81674596Y-78513718D02*
X81650406Y-78586290D01*
X81650406Y-78586290D02*
X81650406Y-78634671D01*
X81650406Y-78634671D02*
X81674596Y-78707242D01*
X81674596Y-78707242D02*
X81698787Y-78731433D01*
X81650406Y-79166861D02*
X81650406Y-79070099D01*
X81650406Y-79070099D02*
X81674596Y-79021718D01*
X81674596Y-79021718D02*
X81698787Y-78997528D01*
X81698787Y-78997528D02*
X81771358Y-78949147D01*
X81771358Y-78949147D02*
X81868120Y-78924956D01*
X81868120Y-78924956D02*
X82061644Y-78924956D01*
X82061644Y-78924956D02*
X82110025Y-78949147D01*
X82110025Y-78949147D02*
X82134216Y-78973337D01*
X82134216Y-78973337D02*
X82158406Y-79021718D01*
X82158406Y-79021718D02*
X82158406Y-79118480D01*
X82158406Y-79118480D02*
X82134216Y-79166861D01*
X82134216Y-79166861D02*
X82110025Y-79191052D01*
X82110025Y-79191052D02*
X82061644Y-79215242D01*
X82061644Y-79215242D02*
X81940692Y-79215242D01*
X81940692Y-79215242D02*
X81892311Y-79191052D01*
X81892311Y-79191052D02*
X81868120Y-79166861D01*
X81868120Y-79166861D02*
X81843930Y-79118480D01*
X81843930Y-79118480D02*
X81843930Y-79021718D01*
X81843930Y-79021718D02*
X81868120Y-78973337D01*
X81868120Y-78973337D02*
X81892311Y-78949147D01*
X81892311Y-78949147D02*
X81940692Y-78924956D01*
X85708468Y-114014510D02*
X85466563Y-113845176D01*
X85708468Y-113724224D02*
X85200468Y-113724224D01*
X85200468Y-113724224D02*
X85200468Y-113917748D01*
X85200468Y-113917748D02*
X85224658Y-113966129D01*
X85224658Y-113966129D02*
X85248849Y-113990319D01*
X85248849Y-113990319D02*
X85297230Y-114014510D01*
X85297230Y-114014510D02*
X85369801Y-114014510D01*
X85369801Y-114014510D02*
X85418182Y-113990319D01*
X85418182Y-113990319D02*
X85442373Y-113966129D01*
X85442373Y-113966129D02*
X85466563Y-113917748D01*
X85466563Y-113917748D02*
X85466563Y-113724224D01*
X85756849Y-114111272D02*
X85756849Y-114498319D01*
X85708468Y-114619272D02*
X85200468Y-114619272D01*
X85442373Y-114619272D02*
X85442373Y-114909558D01*
X85708468Y-114909558D02*
X85200468Y-114909558D01*
X85248849Y-115127271D02*
X85224658Y-115151462D01*
X85224658Y-115151462D02*
X85200468Y-115199843D01*
X85200468Y-115199843D02*
X85200468Y-115320795D01*
X85200468Y-115320795D02*
X85224658Y-115369176D01*
X85224658Y-115369176D02*
X85248849Y-115393367D01*
X85248849Y-115393367D02*
X85297230Y-115417557D01*
X85297230Y-115417557D02*
X85345611Y-115417557D01*
X85345611Y-115417557D02*
X85418182Y-115393367D01*
X85418182Y-115393367D02*
X85708468Y-115103081D01*
X85708468Y-115103081D02*
X85708468Y-115417557D01*
X112700025Y-124494790D02*
X112724216Y-124470599D01*
X112724216Y-124470599D02*
X112748406Y-124398028D01*
X112748406Y-124398028D02*
X112748406Y-124349647D01*
X112748406Y-124349647D02*
X112724216Y-124277075D01*
X112724216Y-124277075D02*
X112675835Y-124228694D01*
X112675835Y-124228694D02*
X112627454Y-124204504D01*
X112627454Y-124204504D02*
X112530692Y-124180313D01*
X112530692Y-124180313D02*
X112458120Y-124180313D01*
X112458120Y-124180313D02*
X112361358Y-124204504D01*
X112361358Y-124204504D02*
X112312977Y-124228694D01*
X112312977Y-124228694D02*
X112264596Y-124277075D01*
X112264596Y-124277075D02*
X112240406Y-124349647D01*
X112240406Y-124349647D02*
X112240406Y-124398028D01*
X112240406Y-124398028D02*
X112264596Y-124470599D01*
X112264596Y-124470599D02*
X112288787Y-124494790D01*
X112288787Y-124688313D02*
X112264596Y-124712504D01*
X112264596Y-124712504D02*
X112240406Y-124760885D01*
X112240406Y-124760885D02*
X112240406Y-124881837D01*
X112240406Y-124881837D02*
X112264596Y-124930218D01*
X112264596Y-124930218D02*
X112288787Y-124954409D01*
X112288787Y-124954409D02*
X112337168Y-124978599D01*
X112337168Y-124978599D02*
X112385549Y-124978599D01*
X112385549Y-124978599D02*
X112458120Y-124954409D01*
X112458120Y-124954409D02*
X112748406Y-124664123D01*
X112748406Y-124664123D02*
X112748406Y-124978599D01*
X112700025Y-125486600D02*
X112724216Y-125462409D01*
X112724216Y-125462409D02*
X112748406Y-125389838D01*
X112748406Y-125389838D02*
X112748406Y-125341457D01*
X112748406Y-125341457D02*
X112724216Y-125268885D01*
X112724216Y-125268885D02*
X112675835Y-125220504D01*
X112675835Y-125220504D02*
X112627454Y-125196314D01*
X112627454Y-125196314D02*
X112530692Y-125172123D01*
X112530692Y-125172123D02*
X112458120Y-125172123D01*
X112458120Y-125172123D02*
X112361358Y-125196314D01*
X112361358Y-125196314D02*
X112312977Y-125220504D01*
X112312977Y-125220504D02*
X112264596Y-125268885D01*
X112264596Y-125268885D02*
X112240406Y-125341457D01*
X112240406Y-125341457D02*
X112240406Y-125389838D01*
X112240406Y-125389838D02*
X112264596Y-125462409D01*
X112264596Y-125462409D02*
X112288787Y-125486600D01*
X112748406Y-125970409D02*
X112748406Y-125680123D01*
X112748406Y-125825266D02*
X112240406Y-125825266D01*
X112240406Y-125825266D02*
X112312977Y-125776885D01*
X112312977Y-125776885D02*
X112361358Y-125728504D01*
X112361358Y-125728504D02*
X112385549Y-125680123D01*
X119058468Y-103907772D02*
X118816563Y-103738438D01*
X119058468Y-103617486D02*
X118550468Y-103617486D01*
X118550468Y-103617486D02*
X118550468Y-103811010D01*
X118550468Y-103811010D02*
X118574658Y-103859391D01*
X118574658Y-103859391D02*
X118598849Y-103883581D01*
X118598849Y-103883581D02*
X118647230Y-103907772D01*
X118647230Y-103907772D02*
X118719801Y-103907772D01*
X118719801Y-103907772D02*
X118768182Y-103883581D01*
X118768182Y-103883581D02*
X118792373Y-103859391D01*
X118792373Y-103859391D02*
X118816563Y-103811010D01*
X118816563Y-103811010D02*
X118816563Y-103617486D01*
X119058468Y-104149676D02*
X119058468Y-104246438D01*
X119058468Y-104246438D02*
X119034278Y-104294819D01*
X119034278Y-104294819D02*
X119010087Y-104319010D01*
X119010087Y-104319010D02*
X118937516Y-104367391D01*
X118937516Y-104367391D02*
X118840754Y-104391581D01*
X118840754Y-104391581D02*
X118647230Y-104391581D01*
X118647230Y-104391581D02*
X118598849Y-104367391D01*
X118598849Y-104367391D02*
X118574658Y-104343200D01*
X118574658Y-104343200D02*
X118550468Y-104294819D01*
X118550468Y-104294819D02*
X118550468Y-104198057D01*
X118550468Y-104198057D02*
X118574658Y-104149676D01*
X118574658Y-104149676D02*
X118598849Y-104125486D01*
X118598849Y-104125486D02*
X118647230Y-104101295D01*
X118647230Y-104101295D02*
X118768182Y-104101295D01*
X118768182Y-104101295D02*
X118816563Y-104125486D01*
X118816563Y-104125486D02*
X118840754Y-104149676D01*
X118840754Y-104149676D02*
X118864944Y-104198057D01*
X118864944Y-104198057D02*
X118864944Y-104294819D01*
X118864944Y-104294819D02*
X118840754Y-104343200D01*
X118840754Y-104343200D02*
X118816563Y-104367391D01*
X118816563Y-104367391D02*
X118768182Y-104391581D01*
X81998468Y-118294414D02*
X81756563Y-118125080D01*
X81998468Y-118004128D02*
X81490468Y-118004128D01*
X81490468Y-118004128D02*
X81490468Y-118197652D01*
X81490468Y-118197652D02*
X81514658Y-118246033D01*
X81514658Y-118246033D02*
X81538849Y-118270223D01*
X81538849Y-118270223D02*
X81587230Y-118294414D01*
X81587230Y-118294414D02*
X81659801Y-118294414D01*
X81659801Y-118294414D02*
X81708182Y-118270223D01*
X81708182Y-118270223D02*
X81732373Y-118246033D01*
X81732373Y-118246033D02*
X81756563Y-118197652D01*
X81756563Y-118197652D02*
X81756563Y-118004128D01*
X82046849Y-118391176D02*
X82046849Y-118778223D01*
X81998468Y-118899176D02*
X81490468Y-118899176D01*
X81974278Y-119116890D02*
X81998468Y-119189462D01*
X81998468Y-119189462D02*
X81998468Y-119310414D01*
X81998468Y-119310414D02*
X81974278Y-119358795D01*
X81974278Y-119358795D02*
X81950087Y-119382986D01*
X81950087Y-119382986D02*
X81901706Y-119407176D01*
X81901706Y-119407176D02*
X81853325Y-119407176D01*
X81853325Y-119407176D02*
X81804944Y-119382986D01*
X81804944Y-119382986D02*
X81780754Y-119358795D01*
X81780754Y-119358795D02*
X81756563Y-119310414D01*
X81756563Y-119310414D02*
X81732373Y-119213652D01*
X81732373Y-119213652D02*
X81708182Y-119165271D01*
X81708182Y-119165271D02*
X81683992Y-119141081D01*
X81683992Y-119141081D02*
X81635611Y-119116890D01*
X81635611Y-119116890D02*
X81587230Y-119116890D01*
X81587230Y-119116890D02*
X81538849Y-119141081D01*
X81538849Y-119141081D02*
X81514658Y-119165271D01*
X81514658Y-119165271D02*
X81490468Y-119213652D01*
X81490468Y-119213652D02*
X81490468Y-119334605D01*
X81490468Y-119334605D02*
X81514658Y-119407176D01*
X81732373Y-119624891D02*
X81732373Y-119794224D01*
X81998468Y-119866796D02*
X81998468Y-119624891D01*
X81998468Y-119624891D02*
X81490468Y-119624891D01*
X81490468Y-119624891D02*
X81490468Y-119866796D01*
X81490468Y-120011938D02*
X81490468Y-120302224D01*
X81998468Y-120157081D02*
X81490468Y-120157081D01*
X81538849Y-120447367D02*
X81514658Y-120471558D01*
X81514658Y-120471558D02*
X81490468Y-120519939D01*
X81490468Y-120519939D02*
X81490468Y-120640891D01*
X81490468Y-120640891D02*
X81514658Y-120689272D01*
X81514658Y-120689272D02*
X81538849Y-120713463D01*
X81538849Y-120713463D02*
X81587230Y-120737653D01*
X81587230Y-120737653D02*
X81635611Y-120737653D01*
X81635611Y-120737653D02*
X81708182Y-120713463D01*
X81708182Y-120713463D02*
X81998468Y-120423177D01*
X81998468Y-120423177D02*
X81998468Y-120737653D01*
X124876968Y-116596914D02*
X124635063Y-116427580D01*
X124876968Y-116306628D02*
X124368968Y-116306628D01*
X124368968Y-116306628D02*
X124368968Y-116500152D01*
X124368968Y-116500152D02*
X124393158Y-116548533D01*
X124393158Y-116548533D02*
X124417349Y-116572723D01*
X124417349Y-116572723D02*
X124465730Y-116596914D01*
X124465730Y-116596914D02*
X124538301Y-116596914D01*
X124538301Y-116596914D02*
X124586682Y-116572723D01*
X124586682Y-116572723D02*
X124610873Y-116548533D01*
X124610873Y-116548533D02*
X124635063Y-116500152D01*
X124635063Y-116500152D02*
X124635063Y-116306628D01*
X124925349Y-116693676D02*
X124925349Y-117080723D01*
X124876968Y-117201676D02*
X124368968Y-117201676D01*
X124852778Y-117419390D02*
X124876968Y-117491962D01*
X124876968Y-117491962D02*
X124876968Y-117612914D01*
X124876968Y-117612914D02*
X124852778Y-117661295D01*
X124852778Y-117661295D02*
X124828587Y-117685486D01*
X124828587Y-117685486D02*
X124780206Y-117709676D01*
X124780206Y-117709676D02*
X124731825Y-117709676D01*
X124731825Y-117709676D02*
X124683444Y-117685486D01*
X124683444Y-117685486D02*
X124659254Y-117661295D01*
X124659254Y-117661295D02*
X124635063Y-117612914D01*
X124635063Y-117612914D02*
X124610873Y-117516152D01*
X124610873Y-117516152D02*
X124586682Y-117467771D01*
X124586682Y-117467771D02*
X124562492Y-117443581D01*
X124562492Y-117443581D02*
X124514111Y-117419390D01*
X124514111Y-117419390D02*
X124465730Y-117419390D01*
X124465730Y-117419390D02*
X124417349Y-117443581D01*
X124417349Y-117443581D02*
X124393158Y-117467771D01*
X124393158Y-117467771D02*
X124368968Y-117516152D01*
X124368968Y-117516152D02*
X124368968Y-117637105D01*
X124368968Y-117637105D02*
X124393158Y-117709676D01*
X124610873Y-117927391D02*
X124610873Y-118096724D01*
X124876968Y-118169296D02*
X124876968Y-117927391D01*
X124876968Y-117927391D02*
X124368968Y-117927391D01*
X124368968Y-117927391D02*
X124368968Y-118169296D01*
X124368968Y-118314438D02*
X124368968Y-118604724D01*
X124876968Y-118459581D02*
X124368968Y-118459581D01*
X124538301Y-118991772D02*
X124876968Y-118991772D01*
X124344778Y-118870820D02*
X124707635Y-118749867D01*
X124707635Y-118749867D02*
X124707635Y-119064344D01*
X116236952Y-74108821D02*
X116261143Y-74133012D01*
X116261143Y-74133012D02*
X116333714Y-74157202D01*
X116333714Y-74157202D02*
X116382095Y-74157202D01*
X116382095Y-74157202D02*
X116454667Y-74133012D01*
X116454667Y-74133012D02*
X116503048Y-74084631D01*
X116503048Y-74084631D02*
X116527238Y-74036250D01*
X116527238Y-74036250D02*
X116551429Y-73939488D01*
X116551429Y-73939488D02*
X116551429Y-73866916D01*
X116551429Y-73866916D02*
X116527238Y-73770154D01*
X116527238Y-73770154D02*
X116503048Y-73721773D01*
X116503048Y-73721773D02*
X116454667Y-73673392D01*
X116454667Y-73673392D02*
X116382095Y-73649202D01*
X116382095Y-73649202D02*
X116333714Y-73649202D01*
X116333714Y-73649202D02*
X116261143Y-73673392D01*
X116261143Y-73673392D02*
X116236952Y-73697583D01*
X116140191Y-74205583D02*
X115753143Y-74205583D01*
X115462857Y-73891107D02*
X115390285Y-73915297D01*
X115390285Y-73915297D02*
X115366095Y-73939488D01*
X115366095Y-73939488D02*
X115341904Y-73987869D01*
X115341904Y-73987869D02*
X115341904Y-74060440D01*
X115341904Y-74060440D02*
X115366095Y-74108821D01*
X115366095Y-74108821D02*
X115390285Y-74133012D01*
X115390285Y-74133012D02*
X115438666Y-74157202D01*
X115438666Y-74157202D02*
X115632190Y-74157202D01*
X115632190Y-74157202D02*
X115632190Y-73649202D01*
X115632190Y-73649202D02*
X115462857Y-73649202D01*
X115462857Y-73649202D02*
X115414476Y-73673392D01*
X115414476Y-73673392D02*
X115390285Y-73697583D01*
X115390285Y-73697583D02*
X115366095Y-73745964D01*
X115366095Y-73745964D02*
X115366095Y-73794345D01*
X115366095Y-73794345D02*
X115390285Y-73842726D01*
X115390285Y-73842726D02*
X115414476Y-73866916D01*
X115414476Y-73866916D02*
X115462857Y-73891107D01*
X115462857Y-73891107D02*
X115632190Y-73891107D01*
X115148381Y-74012059D02*
X114906476Y-74012059D01*
X115196762Y-74157202D02*
X115027428Y-73649202D01*
X115027428Y-73649202D02*
X114858095Y-74157202D01*
X114761333Y-73649202D02*
X114471047Y-73649202D01*
X114616190Y-74157202D02*
X114616190Y-73649202D01*
X114374285Y-73649202D02*
X114083999Y-73649202D01*
X114229142Y-74157202D02*
X114229142Y-73649202D01*
X113696951Y-73649202D02*
X113793713Y-73649202D01*
X113793713Y-73649202D02*
X113842094Y-73673392D01*
X113842094Y-73673392D02*
X113866284Y-73697583D01*
X113866284Y-73697583D02*
X113914665Y-73770154D01*
X113914665Y-73770154D02*
X113938856Y-73866916D01*
X113938856Y-73866916D02*
X113938856Y-74060440D01*
X113938856Y-74060440D02*
X113914665Y-74108821D01*
X113914665Y-74108821D02*
X113890475Y-74133012D01*
X113890475Y-74133012D02*
X113842094Y-74157202D01*
X113842094Y-74157202D02*
X113745332Y-74157202D01*
X113745332Y-74157202D02*
X113696951Y-74133012D01*
X113696951Y-74133012D02*
X113672760Y-74108821D01*
X113672760Y-74108821D02*
X113648570Y-74060440D01*
X113648570Y-74060440D02*
X113648570Y-73939488D01*
X113648570Y-73939488D02*
X113672760Y-73891107D01*
X113672760Y-73891107D02*
X113696951Y-73866916D01*
X113696951Y-73866916D02*
X113745332Y-73842726D01*
X113745332Y-73842726D02*
X113842094Y-73842726D01*
X113842094Y-73842726D02*
X113890475Y-73866916D01*
X113890475Y-73866916D02*
X113914665Y-73891107D01*
X113914665Y-73891107D02*
X113938856Y-73939488D01*
X98400025Y-124594790D02*
X98424216Y-124570599D01*
X98424216Y-124570599D02*
X98448406Y-124498028D01*
X98448406Y-124498028D02*
X98448406Y-124449647D01*
X98448406Y-124449647D02*
X98424216Y-124377075D01*
X98424216Y-124377075D02*
X98375835Y-124328694D01*
X98375835Y-124328694D02*
X98327454Y-124304504D01*
X98327454Y-124304504D02*
X98230692Y-124280313D01*
X98230692Y-124280313D02*
X98158120Y-124280313D01*
X98158120Y-124280313D02*
X98061358Y-124304504D01*
X98061358Y-124304504D02*
X98012977Y-124328694D01*
X98012977Y-124328694D02*
X97964596Y-124377075D01*
X97964596Y-124377075D02*
X97940406Y-124449647D01*
X97940406Y-124449647D02*
X97940406Y-124498028D01*
X97940406Y-124498028D02*
X97964596Y-124570599D01*
X97964596Y-124570599D02*
X97988787Y-124594790D01*
X98448406Y-125078599D02*
X98448406Y-124788313D01*
X98448406Y-124933456D02*
X97940406Y-124933456D01*
X97940406Y-124933456D02*
X98012977Y-124885075D01*
X98012977Y-124885075D02*
X98061358Y-124836694D01*
X98061358Y-124836694D02*
X98085549Y-124788313D01*
X98182311Y-125465647D02*
X98206501Y-125538219D01*
X98206501Y-125538219D02*
X98230692Y-125562409D01*
X98230692Y-125562409D02*
X98279073Y-125586600D01*
X98279073Y-125586600D02*
X98351644Y-125586600D01*
X98351644Y-125586600D02*
X98400025Y-125562409D01*
X98400025Y-125562409D02*
X98424216Y-125538219D01*
X98424216Y-125538219D02*
X98448406Y-125489838D01*
X98448406Y-125489838D02*
X98448406Y-125296314D01*
X98448406Y-125296314D02*
X97940406Y-125296314D01*
X97940406Y-125296314D02*
X97940406Y-125465647D01*
X97940406Y-125465647D02*
X97964596Y-125514028D01*
X97964596Y-125514028D02*
X97988787Y-125538219D01*
X97988787Y-125538219D02*
X98037168Y-125562409D01*
X98037168Y-125562409D02*
X98085549Y-125562409D01*
X98085549Y-125562409D02*
X98133930Y-125538219D01*
X98133930Y-125538219D02*
X98158120Y-125514028D01*
X98158120Y-125514028D02*
X98182311Y-125465647D01*
X98182311Y-125465647D02*
X98182311Y-125296314D01*
X98448406Y-126070409D02*
X98448406Y-125780123D01*
X98448406Y-125925266D02*
X97940406Y-125925266D01*
X97940406Y-125925266D02*
X98012977Y-125876885D01*
X98012977Y-125876885D02*
X98061358Y-125828504D01*
X98061358Y-125828504D02*
X98085549Y-125780123D01*
X71734666Y-82774506D02*
X71904000Y-82532601D01*
X72024952Y-82774506D02*
X72024952Y-82266506D01*
X72024952Y-82266506D02*
X71831428Y-82266506D01*
X71831428Y-82266506D02*
X71783047Y-82290696D01*
X71783047Y-82290696D02*
X71758857Y-82314887D01*
X71758857Y-82314887D02*
X71734666Y-82363268D01*
X71734666Y-82363268D02*
X71734666Y-82435839D01*
X71734666Y-82435839D02*
X71758857Y-82484220D01*
X71758857Y-82484220D02*
X71783047Y-82508411D01*
X71783047Y-82508411D02*
X71831428Y-82532601D01*
X71831428Y-82532601D02*
X72024952Y-82532601D01*
X71250857Y-82774506D02*
X71541143Y-82774506D01*
X71396000Y-82774506D02*
X71396000Y-82266506D01*
X71396000Y-82266506D02*
X71444381Y-82339077D01*
X71444381Y-82339077D02*
X71492762Y-82387458D01*
X71492762Y-82387458D02*
X71541143Y-82411649D01*
X116975587Y-119449343D02*
X116999778Y-119425152D01*
X116999778Y-119425152D02*
X117023968Y-119352581D01*
X117023968Y-119352581D02*
X117023968Y-119304200D01*
X117023968Y-119304200D02*
X116999778Y-119231628D01*
X116999778Y-119231628D02*
X116951397Y-119183247D01*
X116951397Y-119183247D02*
X116903016Y-119159057D01*
X116903016Y-119159057D02*
X116806254Y-119134866D01*
X116806254Y-119134866D02*
X116733682Y-119134866D01*
X116733682Y-119134866D02*
X116636920Y-119159057D01*
X116636920Y-119159057D02*
X116588539Y-119183247D01*
X116588539Y-119183247D02*
X116540158Y-119231628D01*
X116540158Y-119231628D02*
X116515968Y-119304200D01*
X116515968Y-119304200D02*
X116515968Y-119352581D01*
X116515968Y-119352581D02*
X116540158Y-119425152D01*
X116540158Y-119425152D02*
X116564349Y-119449343D01*
X117072349Y-119546105D02*
X117072349Y-119933152D01*
X116757873Y-120223438D02*
X116782063Y-120296010D01*
X116782063Y-120296010D02*
X116806254Y-120320200D01*
X116806254Y-120320200D02*
X116854635Y-120344391D01*
X116854635Y-120344391D02*
X116927206Y-120344391D01*
X116927206Y-120344391D02*
X116975587Y-120320200D01*
X116975587Y-120320200D02*
X116999778Y-120296010D01*
X116999778Y-120296010D02*
X117023968Y-120247629D01*
X117023968Y-120247629D02*
X117023968Y-120054105D01*
X117023968Y-120054105D02*
X116515968Y-120054105D01*
X116515968Y-120054105D02*
X116515968Y-120223438D01*
X116515968Y-120223438D02*
X116540158Y-120271819D01*
X116540158Y-120271819D02*
X116564349Y-120296010D01*
X116564349Y-120296010D02*
X116612730Y-120320200D01*
X116612730Y-120320200D02*
X116661111Y-120320200D01*
X116661111Y-120320200D02*
X116709492Y-120296010D01*
X116709492Y-120296010D02*
X116733682Y-120271819D01*
X116733682Y-120271819D02*
X116757873Y-120223438D01*
X116757873Y-120223438D02*
X116757873Y-120054105D01*
X116878825Y-120537914D02*
X116878825Y-120779819D01*
X117023968Y-120489533D02*
X116515968Y-120658867D01*
X116515968Y-120658867D02*
X117023968Y-120828200D01*
X116515968Y-120924962D02*
X116515968Y-121215248D01*
X117023968Y-121070105D02*
X116515968Y-121070105D01*
X116515968Y-121312010D02*
X116515968Y-121602296D01*
X117023968Y-121457153D02*
X116515968Y-121457153D01*
X116733682Y-121844201D02*
X116709492Y-121795820D01*
X116709492Y-121795820D02*
X116685301Y-121771630D01*
X116685301Y-121771630D02*
X116636920Y-121747439D01*
X116636920Y-121747439D02*
X116612730Y-121747439D01*
X116612730Y-121747439D02*
X116564349Y-121771630D01*
X116564349Y-121771630D02*
X116540158Y-121795820D01*
X116540158Y-121795820D02*
X116515968Y-121844201D01*
X116515968Y-121844201D02*
X116515968Y-121940963D01*
X116515968Y-121940963D02*
X116540158Y-121989344D01*
X116540158Y-121989344D02*
X116564349Y-122013535D01*
X116564349Y-122013535D02*
X116612730Y-122037725D01*
X116612730Y-122037725D02*
X116636920Y-122037725D01*
X116636920Y-122037725D02*
X116685301Y-122013535D01*
X116685301Y-122013535D02*
X116709492Y-121989344D01*
X116709492Y-121989344D02*
X116733682Y-121940963D01*
X116733682Y-121940963D02*
X116733682Y-121844201D01*
X116733682Y-121844201D02*
X116757873Y-121795820D01*
X116757873Y-121795820D02*
X116782063Y-121771630D01*
X116782063Y-121771630D02*
X116830444Y-121747439D01*
X116830444Y-121747439D02*
X116927206Y-121747439D01*
X116927206Y-121747439D02*
X116975587Y-121771630D01*
X116975587Y-121771630D02*
X116999778Y-121795820D01*
X116999778Y-121795820D02*
X117023968Y-121844201D01*
X117023968Y-121844201D02*
X117023968Y-121940963D01*
X117023968Y-121940963D02*
X116999778Y-121989344D01*
X116999778Y-121989344D02*
X116975587Y-122013535D01*
X116975587Y-122013535D02*
X116927206Y-122037725D01*
X116927206Y-122037725D02*
X116830444Y-122037725D01*
X116830444Y-122037725D02*
X116782063Y-122013535D01*
X116782063Y-122013535D02*
X116757873Y-121989344D01*
X116757873Y-121989344D02*
X116733682Y-121940963D01*
%TO.C,U4*%
D12*
X102519600Y-126808710D02*
G75*
G02*
X101757600Y-126808710I-381000J0D01*
G01*
X101757600Y-126808710D02*
G75*
G02*
X102519600Y-126808710I381000J0D01*
G01*
%TO.C,R_ISET1*%
D13*
X90177562Y-84121538D02*
X90177562Y-84596054D01*
X91222562Y-84121538D02*
X91222562Y-84596054D01*
%TO.C,C1A1*%
X99540000Y-127434420D02*
X99540000Y-127715580D01*
X100560000Y-127434420D02*
X100560000Y-127715580D01*
%TO.C,R_BATT3*%
X115331636Y-70736296D02*
X114857120Y-70736296D01*
X115331636Y-71781296D02*
X114857120Y-71781296D01*
%TO.C,R13*%
X116777562Y-102246054D02*
X116777562Y-101771538D01*
X117822562Y-102246054D02*
X117822562Y-101771538D01*
%TO.C,C7*%
X78040000Y-79875520D02*
X78040000Y-80156680D01*
X79060000Y-79875520D02*
X79060000Y-80156680D01*
%TO.C,C_BATT2*%
X102770638Y-69168217D02*
X102770638Y-69449377D01*
X103790638Y-69168217D02*
X103790638Y-69449377D01*
%TO.C,R2*%
X73377500Y-82378358D02*
X73377500Y-81903842D01*
X74422500Y-82378358D02*
X74422500Y-81903842D01*
%TO.C,R3*%
X80227500Y-82053358D02*
X80227500Y-81578842D01*
X81272500Y-82053358D02*
X81272500Y-81578842D01*
%TO.C,R_T5*%
X119987804Y-82661296D02*
X120462320Y-82661296D01*
X119987804Y-83706296D02*
X120462320Y-83706296D01*
%TO.C,R_H4*%
X126456062Y-113026554D02*
X126456062Y-112552038D01*
X127501062Y-113026554D02*
X127501062Y-112552038D01*
%TO.C,C_BATT4*%
X85384482Y-125723796D02*
X85665642Y-125723796D01*
X85384482Y-126743796D02*
X85665642Y-126743796D01*
%TO.C,R_T3*%
X84237804Y-116286296D02*
X84712320Y-116286296D01*
X84237804Y-117331296D02*
X84712320Y-117331296D01*
%TO.C,R_T7*%
X126953304Y-114513796D02*
X127427820Y-114513796D01*
X126953304Y-115558796D02*
X127427820Y-115558796D01*
%TO.C,R_BATT2*%
X85287804Y-127211296D02*
X85762320Y-127211296D01*
X85287804Y-128256296D02*
X85762320Y-128256296D01*
%TO.C,R_BATT1*%
X101258138Y-69071539D02*
X101258138Y-69546055D01*
X102303138Y-69071539D02*
X102303138Y-69546055D01*
%TO.C,R_H3*%
X119502562Y-81171054D02*
X119502562Y-80696538D01*
X120547562Y-81171054D02*
X120547562Y-80696538D01*
%TO.C,R_T1*%
X91962804Y-81186296D02*
X92437320Y-81186296D01*
X91962804Y-82231296D02*
X92437320Y-82231296D01*
%TO.C,R_BATT4*%
X118943062Y-120823554D02*
X118943062Y-120349038D01*
X119988062Y-120823554D02*
X119988062Y-120349038D01*
%TO.C,R_H1*%
X91527562Y-79696054D02*
X91527562Y-79221538D01*
X92572562Y-79696054D02*
X92572562Y-79221538D01*
%TO.C,R7*%
X119777562Y-100646054D02*
X119777562Y-100171538D01*
X120822562Y-100646054D02*
X120822562Y-100171538D01*
%TO.C,C2A1*%
X108340000Y-127434420D02*
X108340000Y-127715580D01*
X109360000Y-127434420D02*
X109360000Y-127715580D01*
%TO.C,C2B1*%
X109865000Y-127538748D02*
X109865000Y-128061252D01*
X111335000Y-127538748D02*
X111335000Y-128061252D01*
%TO.C,R_ISET3*%
X118402562Y-85696538D02*
X118402562Y-86171054D01*
X119447562Y-85696538D02*
X119447562Y-86171054D01*
%TO.C,C6*%
X80240000Y-78956680D02*
X80240000Y-78675520D01*
X81260000Y-78956680D02*
X81260000Y-78675520D01*
%TO.C,R_H2*%
X83827562Y-114796054D02*
X83827562Y-114321538D01*
X84872562Y-114796054D02*
X84872562Y-114321538D01*
%TO.C,C2C1*%
X111865000Y-127538748D02*
X111865000Y-128061252D01*
X113335000Y-127538748D02*
X113335000Y-128061252D01*
%TO.C,R9*%
X118277562Y-102246054D02*
X118277562Y-101771538D01*
X119322562Y-102246054D02*
X119322562Y-101771538D01*
%TO.C,R_ISET2*%
X82377562Y-119121538D02*
X82377562Y-119596054D01*
X83422562Y-119121538D02*
X83422562Y-119596054D01*
%TO.C,R_ISET4*%
X125256062Y-117424038D02*
X125256062Y-117898554D01*
X126301062Y-117424038D02*
X126301062Y-117898554D01*
%TO.C,C_BATT6*%
X115234958Y-72248796D02*
X114953798Y-72248796D01*
X115234958Y-73268796D02*
X114953798Y-73268796D01*
%TO.C,C1B1*%
X97565000Y-128061252D02*
X97565000Y-127538748D01*
X99035000Y-128061252D02*
X99035000Y-127538748D01*
%TO.C,R1*%
X71412742Y-80843600D02*
X71887258Y-80843600D01*
X71412742Y-81888600D02*
X71887258Y-81888600D01*
%TO.C,C_BATT8*%
X117455562Y-120726876D02*
X117455562Y-120445716D01*
X118475562Y-120726876D02*
X118475562Y-120445716D01*
%TD*%
M02*
