%TF.GenerationSoftware,KiCad,Pcbnew,10.0.1*%
%TF.CreationDate,2026-10-06T10:38:03-04:00*%
%TF.ProjectId,EPS_V1,4550535f-5631-42e6-9b69-6361645f7063,rev?*%
%TF.SameCoordinates,Original*%
%TF.FileFunction,Legend,Bot*%
%TF.FilePolarity,Positive*%
%FSLAX46Y46*%
G04 Gerber Fmt 4.6, Leading zero omitted, Abs format (unit mm)*
G04 Created by KiCad (PCBNEW 10.0.1) date 2026-10-06 10:38:03*
%MOMM*%
%LPD*%
G01*
G04 APERTURE LIST*
%ADD10C,0.127000*%
%ADD11C,0.150000*%
%ADD12C,0.120000*%
G04 APERTURE END LIST*
D10*
X77325971Y-138916253D02*
X77278352Y-138868634D01*
X77278352Y-138868634D02*
X77183114Y-138821015D01*
X77183114Y-138821015D02*
X76945019Y-138821015D01*
X76945019Y-138821015D02*
X76849781Y-138868634D01*
X76849781Y-138868634D02*
X76802162Y-138916253D01*
X76802162Y-138916253D02*
X76754543Y-139011491D01*
X76754543Y-139011491D02*
X76754543Y-139106729D01*
X76754543Y-139106729D02*
X76802162Y-139249586D01*
X76802162Y-139249586D02*
X77373590Y-139821015D01*
X77373590Y-139821015D02*
X76754543Y-139821015D01*
X76325971Y-139440062D02*
X75564067Y-139440062D01*
X75945019Y-139821015D02*
X75945019Y-139059110D01*
X79825971Y-138916253D02*
X79778352Y-138868634D01*
X79778352Y-138868634D02*
X79683114Y-138821015D01*
X79683114Y-138821015D02*
X79445019Y-138821015D01*
X79445019Y-138821015D02*
X79349781Y-138868634D01*
X79349781Y-138868634D02*
X79302162Y-138916253D01*
X79302162Y-138916253D02*
X79254543Y-139011491D01*
X79254543Y-139011491D02*
X79254543Y-139106729D01*
X79254543Y-139106729D02*
X79302162Y-139249586D01*
X79302162Y-139249586D02*
X79873590Y-139821015D01*
X79873590Y-139821015D02*
X79254543Y-139821015D01*
X78825971Y-139821015D02*
X78825971Y-138821015D01*
X78825971Y-138821015D02*
X78492638Y-139535300D01*
X78492638Y-139535300D02*
X78159305Y-138821015D01*
X78159305Y-138821015D02*
X78159305Y-139821015D01*
X82375971Y-138916253D02*
X82328352Y-138868634D01*
X82328352Y-138868634D02*
X82233114Y-138821015D01*
X82233114Y-138821015D02*
X81995019Y-138821015D01*
X81995019Y-138821015D02*
X81899781Y-138868634D01*
X81899781Y-138868634D02*
X81852162Y-138916253D01*
X81852162Y-138916253D02*
X81804543Y-139011491D01*
X81804543Y-139011491D02*
X81804543Y-139106729D01*
X81804543Y-139106729D02*
X81852162Y-139249586D01*
X81852162Y-139249586D02*
X82423590Y-139821015D01*
X82423590Y-139821015D02*
X81804543Y-139821015D01*
X81375971Y-139440062D02*
X80614067Y-139440062D01*
X84821209Y-138821015D02*
X84249781Y-138821015D01*
X84535495Y-139821015D02*
X84535495Y-138821015D01*
X83964066Y-138916253D02*
X83916447Y-138868634D01*
X83916447Y-138868634D02*
X83821209Y-138821015D01*
X83821209Y-138821015D02*
X83583114Y-138821015D01*
X83583114Y-138821015D02*
X83487876Y-138868634D01*
X83487876Y-138868634D02*
X83440257Y-138916253D01*
X83440257Y-138916253D02*
X83392638Y-139011491D01*
X83392638Y-139011491D02*
X83392638Y-139106729D01*
X83392638Y-139106729D02*
X83440257Y-139249586D01*
X83440257Y-139249586D02*
X84011685Y-139821015D01*
X84011685Y-139821015D02*
X83392638Y-139821015D01*
X86954543Y-139821015D02*
X87525971Y-139821015D01*
X87240257Y-139821015D02*
X87240257Y-138821015D01*
X87240257Y-138821015D02*
X87335495Y-138963872D01*
X87335495Y-138963872D02*
X87430733Y-139059110D01*
X87430733Y-139059110D02*
X87525971Y-139106729D01*
X86525971Y-139440062D02*
X85764067Y-139440062D01*
X86145019Y-139821015D02*
X86145019Y-139059110D01*
X89454543Y-139821015D02*
X90025971Y-139821015D01*
X89740257Y-139821015D02*
X89740257Y-138821015D01*
X89740257Y-138821015D02*
X89835495Y-138963872D01*
X89835495Y-138963872D02*
X89930733Y-139059110D01*
X89930733Y-139059110D02*
X90025971Y-139106729D01*
X89025971Y-139821015D02*
X89025971Y-138821015D01*
X89025971Y-138821015D02*
X88692638Y-139535300D01*
X88692638Y-139535300D02*
X88359305Y-138821015D01*
X88359305Y-138821015D02*
X88359305Y-139821015D01*
X92004543Y-139821015D02*
X92575971Y-139821015D01*
X92290257Y-139821015D02*
X92290257Y-138821015D01*
X92290257Y-138821015D02*
X92385495Y-138963872D01*
X92385495Y-138963872D02*
X92480733Y-139059110D01*
X92480733Y-139059110D02*
X92575971Y-139106729D01*
X91575971Y-139440062D02*
X90814067Y-139440062D01*
X94971209Y-138821015D02*
X94399781Y-138821015D01*
X94685495Y-139821015D02*
X94685495Y-138821015D01*
X93542638Y-139821015D02*
X94114066Y-139821015D01*
X93828352Y-139821015D02*
X93828352Y-138821015D01*
X93828352Y-138821015D02*
X93923590Y-138963872D01*
X93923590Y-138963872D02*
X94018828Y-139059110D01*
X94018828Y-139059110D02*
X94114066Y-139106729D01*
X97075971Y-139773396D02*
X96933114Y-139821015D01*
X96933114Y-139821015D02*
X96695019Y-139821015D01*
X96695019Y-139821015D02*
X96599781Y-139773396D01*
X96599781Y-139773396D02*
X96552162Y-139725776D01*
X96552162Y-139725776D02*
X96504543Y-139630538D01*
X96504543Y-139630538D02*
X96504543Y-139535300D01*
X96504543Y-139535300D02*
X96552162Y-139440062D01*
X96552162Y-139440062D02*
X96599781Y-139392443D01*
X96599781Y-139392443D02*
X96695019Y-139344824D01*
X96695019Y-139344824D02*
X96885495Y-139297205D01*
X96885495Y-139297205D02*
X96980733Y-139249586D01*
X96980733Y-139249586D02*
X97028352Y-139201967D01*
X97028352Y-139201967D02*
X97075971Y-139106729D01*
X97075971Y-139106729D02*
X97075971Y-139011491D01*
X97075971Y-139011491D02*
X97028352Y-138916253D01*
X97028352Y-138916253D02*
X96980733Y-138868634D01*
X96980733Y-138868634D02*
X96885495Y-138821015D01*
X96885495Y-138821015D02*
X96647400Y-138821015D01*
X96647400Y-138821015D02*
X96504543Y-138868634D01*
X99104543Y-138868634D02*
X99199781Y-138821015D01*
X99199781Y-138821015D02*
X99342638Y-138821015D01*
X99342638Y-138821015D02*
X99485495Y-138868634D01*
X99485495Y-138868634D02*
X99580733Y-138963872D01*
X99580733Y-138963872D02*
X99628352Y-139059110D01*
X99628352Y-139059110D02*
X99675971Y-139249586D01*
X99675971Y-139249586D02*
X99675971Y-139392443D01*
X99675971Y-139392443D02*
X99628352Y-139582919D01*
X99628352Y-139582919D02*
X99580733Y-139678157D01*
X99580733Y-139678157D02*
X99485495Y-139773396D01*
X99485495Y-139773396D02*
X99342638Y-139821015D01*
X99342638Y-139821015D02*
X99247400Y-139821015D01*
X99247400Y-139821015D02*
X99104543Y-139773396D01*
X99104543Y-139773396D02*
X99056924Y-139725776D01*
X99056924Y-139725776D02*
X99056924Y-139392443D01*
X99056924Y-139392443D02*
X99247400Y-139392443D01*
X102945019Y-139297205D02*
X102802162Y-139344824D01*
X102802162Y-139344824D02*
X102754543Y-139392443D01*
X102754543Y-139392443D02*
X102706924Y-139487681D01*
X102706924Y-139487681D02*
X102706924Y-139630538D01*
X102706924Y-139630538D02*
X102754543Y-139725776D01*
X102754543Y-139725776D02*
X102802162Y-139773396D01*
X102802162Y-139773396D02*
X102897400Y-139821015D01*
X102897400Y-139821015D02*
X103278352Y-139821015D01*
X103278352Y-139821015D02*
X103278352Y-138821015D01*
X103278352Y-138821015D02*
X102945019Y-138821015D01*
X102945019Y-138821015D02*
X102849781Y-138868634D01*
X102849781Y-138868634D02*
X102802162Y-138916253D01*
X102802162Y-138916253D02*
X102754543Y-139011491D01*
X102754543Y-139011491D02*
X102754543Y-139106729D01*
X102754543Y-139106729D02*
X102802162Y-139201967D01*
X102802162Y-139201967D02*
X102849781Y-139249586D01*
X102849781Y-139249586D02*
X102945019Y-139297205D01*
X102945019Y-139297205D02*
X103278352Y-139297205D01*
X102325971Y-139535300D02*
X101849781Y-139535300D01*
X102421209Y-139821015D02*
X102087876Y-138821015D01*
X102087876Y-138821015D02*
X101754543Y-139821015D01*
X101564066Y-138821015D02*
X100992638Y-138821015D01*
X101278352Y-139821015D02*
X101278352Y-138821015D01*
X100802161Y-138821015D02*
X100230733Y-138821015D01*
X100516447Y-139821015D02*
X100516447Y-138821015D01*
X105323590Y-138821015D02*
X104704543Y-138821015D01*
X104704543Y-138821015D02*
X105037876Y-139201967D01*
X105037876Y-139201967D02*
X104895019Y-139201967D01*
X104895019Y-139201967D02*
X104799781Y-139249586D01*
X104799781Y-139249586D02*
X104752162Y-139297205D01*
X104752162Y-139297205D02*
X104704543Y-139392443D01*
X104704543Y-139392443D02*
X104704543Y-139630538D01*
X104704543Y-139630538D02*
X104752162Y-139725776D01*
X104752162Y-139725776D02*
X104799781Y-139773396D01*
X104799781Y-139773396D02*
X104895019Y-139821015D01*
X104895019Y-139821015D02*
X105180733Y-139821015D01*
X105180733Y-139821015D02*
X105275971Y-139773396D01*
X105275971Y-139773396D02*
X105323590Y-139725776D01*
X104275971Y-139440062D02*
X103514067Y-139440062D01*
X103895019Y-139821015D02*
X103895019Y-139059110D01*
X107773590Y-138821015D02*
X107154543Y-138821015D01*
X107154543Y-138821015D02*
X107487876Y-139201967D01*
X107487876Y-139201967D02*
X107345019Y-139201967D01*
X107345019Y-139201967D02*
X107249781Y-139249586D01*
X107249781Y-139249586D02*
X107202162Y-139297205D01*
X107202162Y-139297205D02*
X107154543Y-139392443D01*
X107154543Y-139392443D02*
X107154543Y-139630538D01*
X107154543Y-139630538D02*
X107202162Y-139725776D01*
X107202162Y-139725776D02*
X107249781Y-139773396D01*
X107249781Y-139773396D02*
X107345019Y-139821015D01*
X107345019Y-139821015D02*
X107630733Y-139821015D01*
X107630733Y-139821015D02*
X107725971Y-139773396D01*
X107725971Y-139773396D02*
X107773590Y-139725776D01*
X106725971Y-139821015D02*
X106725971Y-138821015D01*
X106725971Y-138821015D02*
X106392638Y-139535300D01*
X106392638Y-139535300D02*
X106059305Y-138821015D01*
X106059305Y-138821015D02*
X106059305Y-139821015D01*
X110373590Y-138821015D02*
X109754543Y-138821015D01*
X109754543Y-138821015D02*
X110087876Y-139201967D01*
X110087876Y-139201967D02*
X109945019Y-139201967D01*
X109945019Y-139201967D02*
X109849781Y-139249586D01*
X109849781Y-139249586D02*
X109802162Y-139297205D01*
X109802162Y-139297205D02*
X109754543Y-139392443D01*
X109754543Y-139392443D02*
X109754543Y-139630538D01*
X109754543Y-139630538D02*
X109802162Y-139725776D01*
X109802162Y-139725776D02*
X109849781Y-139773396D01*
X109849781Y-139773396D02*
X109945019Y-139821015D01*
X109945019Y-139821015D02*
X110230733Y-139821015D01*
X110230733Y-139821015D02*
X110325971Y-139773396D01*
X110325971Y-139773396D02*
X110373590Y-139725776D01*
X109325971Y-139440062D02*
X108564067Y-139440062D01*
X112771209Y-138821015D02*
X112199781Y-138821015D01*
X112485495Y-139821015D02*
X112485495Y-138821015D01*
X111961685Y-138821015D02*
X111342638Y-138821015D01*
X111342638Y-138821015D02*
X111675971Y-139201967D01*
X111675971Y-139201967D02*
X111533114Y-139201967D01*
X111533114Y-139201967D02*
X111437876Y-139249586D01*
X111437876Y-139249586D02*
X111390257Y-139297205D01*
X111390257Y-139297205D02*
X111342638Y-139392443D01*
X111342638Y-139392443D02*
X111342638Y-139630538D01*
X111342638Y-139630538D02*
X111390257Y-139725776D01*
X111390257Y-139725776D02*
X111437876Y-139773396D01*
X111437876Y-139773396D02*
X111533114Y-139821015D01*
X111533114Y-139821015D02*
X111818828Y-139821015D01*
X111818828Y-139821015D02*
X111914066Y-139773396D01*
X111914066Y-139773396D02*
X111961685Y-139725776D01*
X114949781Y-139154348D02*
X114949781Y-139821015D01*
X115187876Y-138773396D02*
X115425971Y-139487681D01*
X115425971Y-139487681D02*
X114806924Y-139487681D01*
X114425971Y-139440062D02*
X113664067Y-139440062D01*
X114045019Y-139821015D02*
X114045019Y-139059110D01*
X117549781Y-139154348D02*
X117549781Y-139821015D01*
X117787876Y-138773396D02*
X118025971Y-139487681D01*
X118025971Y-139487681D02*
X117406924Y-139487681D01*
X117025971Y-139821015D02*
X117025971Y-138821015D01*
X117025971Y-138821015D02*
X116692638Y-139535300D01*
X116692638Y-139535300D02*
X116359305Y-138821015D01*
X116359305Y-138821015D02*
X116359305Y-139821015D01*
X120049781Y-139154348D02*
X120049781Y-139821015D01*
X120287876Y-138773396D02*
X120525971Y-139487681D01*
X120525971Y-139487681D02*
X119906924Y-139487681D01*
X119525971Y-139440062D02*
X118764067Y-139440062D01*
X122921209Y-138821015D02*
X122349781Y-138821015D01*
X122635495Y-139821015D02*
X122635495Y-138821015D01*
X121587876Y-139154348D02*
X121587876Y-139821015D01*
X121825971Y-138773396D02*
X122064066Y-139487681D01*
X122064066Y-139487681D02*
X121445019Y-139487681D01*
D11*
X65929887Y-73908628D02*
X66644173Y-73908628D01*
X66644173Y-73908628D02*
X66715601Y-74622914D01*
X66715601Y-74622914D02*
X66644173Y-74551485D01*
X66644173Y-74551485D02*
X66501316Y-74480057D01*
X66501316Y-74480057D02*
X66144173Y-74480057D01*
X66144173Y-74480057D02*
X66001316Y-74551485D01*
X66001316Y-74551485D02*
X65929887Y-74622914D01*
X65929887Y-74622914D02*
X65858458Y-74765771D01*
X65858458Y-74765771D02*
X65858458Y-75122914D01*
X65858458Y-75122914D02*
X65929887Y-75265771D01*
X65929887Y-75265771D02*
X66001316Y-75337200D01*
X66001316Y-75337200D02*
X66144173Y-75408628D01*
X66144173Y-75408628D02*
X66501316Y-75408628D01*
X66501316Y-75408628D02*
X66644173Y-75337200D01*
X66644173Y-75337200D02*
X66715601Y-75265771D01*
X65429887Y-73908628D02*
X64929887Y-75408628D01*
X64929887Y-75408628D02*
X64429887Y-73908628D01*
X65979887Y-89208628D02*
X66694173Y-89208628D01*
X66694173Y-89208628D02*
X66765601Y-89922914D01*
X66765601Y-89922914D02*
X66694173Y-89851485D01*
X66694173Y-89851485D02*
X66551316Y-89780057D01*
X66551316Y-89780057D02*
X66194173Y-89780057D01*
X66194173Y-89780057D02*
X66051316Y-89851485D01*
X66051316Y-89851485D02*
X65979887Y-89922914D01*
X65979887Y-89922914D02*
X65908458Y-90065771D01*
X65908458Y-90065771D02*
X65908458Y-90422914D01*
X65908458Y-90422914D02*
X65979887Y-90565771D01*
X65979887Y-90565771D02*
X66051316Y-90637200D01*
X66051316Y-90637200D02*
X66194173Y-90708628D01*
X66194173Y-90708628D02*
X66551316Y-90708628D01*
X66551316Y-90708628D02*
X66694173Y-90637200D01*
X66694173Y-90637200D02*
X66765601Y-90565771D01*
X65479887Y-89208628D02*
X64979887Y-90708628D01*
X64979887Y-90708628D02*
X64479887Y-89208628D01*
X68087030Y-106958628D02*
X67158458Y-106958628D01*
X67158458Y-106958628D02*
X67658458Y-107530057D01*
X67658458Y-107530057D02*
X67444173Y-107530057D01*
X67444173Y-107530057D02*
X67301316Y-107601485D01*
X67301316Y-107601485D02*
X67229887Y-107672914D01*
X67229887Y-107672914D02*
X67158458Y-107815771D01*
X67158458Y-107815771D02*
X67158458Y-108172914D01*
X67158458Y-108172914D02*
X67229887Y-108315771D01*
X67229887Y-108315771D02*
X67301316Y-108387200D01*
X67301316Y-108387200D02*
X67444173Y-108458628D01*
X67444173Y-108458628D02*
X67872744Y-108458628D01*
X67872744Y-108458628D02*
X68015601Y-108387200D01*
X68015601Y-108387200D02*
X68087030Y-108315771D01*
X66729887Y-106958628D02*
X66229887Y-108458628D01*
X66229887Y-108458628D02*
X65729887Y-106958628D01*
X65372745Y-106958628D02*
X64444173Y-106958628D01*
X64444173Y-106958628D02*
X64944173Y-107530057D01*
X64944173Y-107530057D02*
X64729888Y-107530057D01*
X64729888Y-107530057D02*
X64587031Y-107601485D01*
X64587031Y-107601485D02*
X64515602Y-107672914D01*
X64515602Y-107672914D02*
X64444173Y-107815771D01*
X64444173Y-107815771D02*
X64444173Y-108172914D01*
X64444173Y-108172914D02*
X64515602Y-108315771D01*
X64515602Y-108315771D02*
X64587031Y-108387200D01*
X64587031Y-108387200D02*
X64729888Y-108458628D01*
X64729888Y-108458628D02*
X65158459Y-108458628D01*
X65158459Y-108458628D02*
X65301316Y-108387200D01*
X65301316Y-108387200D02*
X65372745Y-108315771D01*
X68137030Y-91708628D02*
X67208458Y-91708628D01*
X67208458Y-91708628D02*
X67708458Y-92280057D01*
X67708458Y-92280057D02*
X67494173Y-92280057D01*
X67494173Y-92280057D02*
X67351316Y-92351485D01*
X67351316Y-92351485D02*
X67279887Y-92422914D01*
X67279887Y-92422914D02*
X67208458Y-92565771D01*
X67208458Y-92565771D02*
X67208458Y-92922914D01*
X67208458Y-92922914D02*
X67279887Y-93065771D01*
X67279887Y-93065771D02*
X67351316Y-93137200D01*
X67351316Y-93137200D02*
X67494173Y-93208628D01*
X67494173Y-93208628D02*
X67922744Y-93208628D01*
X67922744Y-93208628D02*
X68065601Y-93137200D01*
X68065601Y-93137200D02*
X68137030Y-93065771D01*
X66779887Y-91708628D02*
X66279887Y-93208628D01*
X66279887Y-93208628D02*
X65779887Y-91708628D01*
X65422745Y-91708628D02*
X64494173Y-91708628D01*
X64494173Y-91708628D02*
X64994173Y-92280057D01*
X64994173Y-92280057D02*
X64779888Y-92280057D01*
X64779888Y-92280057D02*
X64637031Y-92351485D01*
X64637031Y-92351485D02*
X64565602Y-92422914D01*
X64565602Y-92422914D02*
X64494173Y-92565771D01*
X64494173Y-92565771D02*
X64494173Y-92922914D01*
X64494173Y-92922914D02*
X64565602Y-93065771D01*
X64565602Y-93065771D02*
X64637031Y-93137200D01*
X64637031Y-93137200D02*
X64779888Y-93208628D01*
X64779888Y-93208628D02*
X65208459Y-93208628D01*
X65208459Y-93208628D02*
X65351316Y-93137200D01*
X65351316Y-93137200D02*
X65422745Y-93065771D01*
X67308458Y-70358628D02*
X68165601Y-70358628D01*
X67737030Y-70358628D02*
X67737030Y-68858628D01*
X67737030Y-68858628D02*
X67879887Y-69072914D01*
X67879887Y-69072914D02*
X68022744Y-69215771D01*
X68022744Y-69215771D02*
X68165601Y-69287200D01*
X66737030Y-69001485D02*
X66665602Y-68930057D01*
X66665602Y-68930057D02*
X66522745Y-68858628D01*
X66522745Y-68858628D02*
X66165602Y-68858628D01*
X66165602Y-68858628D02*
X66022745Y-68930057D01*
X66022745Y-68930057D02*
X65951316Y-69001485D01*
X65951316Y-69001485D02*
X65879887Y-69144342D01*
X65879887Y-69144342D02*
X65879887Y-69287200D01*
X65879887Y-69287200D02*
X65951316Y-69501485D01*
X65951316Y-69501485D02*
X66808459Y-70358628D01*
X66808459Y-70358628D02*
X65879887Y-70358628D01*
X65451316Y-68858628D02*
X64951316Y-70358628D01*
X64951316Y-70358628D02*
X64451316Y-68858628D01*
X67608458Y-109580057D02*
X67751316Y-109508628D01*
X67751316Y-109508628D02*
X67965601Y-109508628D01*
X67965601Y-109508628D02*
X68179887Y-109580057D01*
X68179887Y-109580057D02*
X68322744Y-109722914D01*
X68322744Y-109722914D02*
X68394173Y-109865771D01*
X68394173Y-109865771D02*
X68465601Y-110151485D01*
X68465601Y-110151485D02*
X68465601Y-110365771D01*
X68465601Y-110365771D02*
X68394173Y-110651485D01*
X68394173Y-110651485D02*
X68322744Y-110794342D01*
X68322744Y-110794342D02*
X68179887Y-110937200D01*
X68179887Y-110937200D02*
X67965601Y-111008628D01*
X67965601Y-111008628D02*
X67822744Y-111008628D01*
X67822744Y-111008628D02*
X67608458Y-110937200D01*
X67608458Y-110937200D02*
X67537030Y-110865771D01*
X67537030Y-110865771D02*
X67537030Y-110365771D01*
X67537030Y-110365771D02*
X67822744Y-110365771D01*
X66894173Y-111008628D02*
X66894173Y-109508628D01*
X66894173Y-109508628D02*
X66037030Y-111008628D01*
X66037030Y-111008628D02*
X66037030Y-109508628D01*
X65322744Y-111008628D02*
X65322744Y-109508628D01*
X65322744Y-109508628D02*
X64965601Y-109508628D01*
X64965601Y-109508628D02*
X64751315Y-109580057D01*
X64751315Y-109580057D02*
X64608458Y-109722914D01*
X64608458Y-109722914D02*
X64537029Y-109865771D01*
X64537029Y-109865771D02*
X64465601Y-110151485D01*
X64465601Y-110151485D02*
X64465601Y-110365771D01*
X64465601Y-110365771D02*
X64537029Y-110651485D01*
X64537029Y-110651485D02*
X64608458Y-110794342D01*
X64608458Y-110794342D02*
X64751315Y-110937200D01*
X64751315Y-110937200D02*
X64965601Y-111008628D01*
X64965601Y-111008628D02*
X65322744Y-111008628D01*
X67608458Y-129880057D02*
X67751316Y-129808628D01*
X67751316Y-129808628D02*
X67965601Y-129808628D01*
X67965601Y-129808628D02*
X68179887Y-129880057D01*
X68179887Y-129880057D02*
X68322744Y-130022914D01*
X68322744Y-130022914D02*
X68394173Y-130165771D01*
X68394173Y-130165771D02*
X68465601Y-130451485D01*
X68465601Y-130451485D02*
X68465601Y-130665771D01*
X68465601Y-130665771D02*
X68394173Y-130951485D01*
X68394173Y-130951485D02*
X68322744Y-131094342D01*
X68322744Y-131094342D02*
X68179887Y-131237200D01*
X68179887Y-131237200D02*
X67965601Y-131308628D01*
X67965601Y-131308628D02*
X67822744Y-131308628D01*
X67822744Y-131308628D02*
X67608458Y-131237200D01*
X67608458Y-131237200D02*
X67537030Y-131165771D01*
X67537030Y-131165771D02*
X67537030Y-130665771D01*
X67537030Y-130665771D02*
X67822744Y-130665771D01*
X66894173Y-131308628D02*
X66894173Y-129808628D01*
X66894173Y-129808628D02*
X66037030Y-131308628D01*
X66037030Y-131308628D02*
X66037030Y-129808628D01*
X65322744Y-131308628D02*
X65322744Y-129808628D01*
X65322744Y-129808628D02*
X64965601Y-129808628D01*
X64965601Y-129808628D02*
X64751315Y-129880057D01*
X64751315Y-129880057D02*
X64608458Y-130022914D01*
X64608458Y-130022914D02*
X64537029Y-130165771D01*
X64537029Y-130165771D02*
X64465601Y-130451485D01*
X64465601Y-130451485D02*
X64465601Y-130665771D01*
X64465601Y-130665771D02*
X64537029Y-130951485D01*
X64537029Y-130951485D02*
X64608458Y-131094342D01*
X64608458Y-131094342D02*
X64751315Y-131237200D01*
X64751315Y-131237200D02*
X64965601Y-131308628D01*
X64965601Y-131308628D02*
X65322744Y-131308628D01*
X68594173Y-72172914D02*
X68379887Y-72244342D01*
X68379887Y-72244342D02*
X68308458Y-72315771D01*
X68308458Y-72315771D02*
X68237030Y-72458628D01*
X68237030Y-72458628D02*
X68237030Y-72672914D01*
X68237030Y-72672914D02*
X68308458Y-72815771D01*
X68308458Y-72815771D02*
X68379887Y-72887200D01*
X68379887Y-72887200D02*
X68522744Y-72958628D01*
X68522744Y-72958628D02*
X69094173Y-72958628D01*
X69094173Y-72958628D02*
X69094173Y-71458628D01*
X69094173Y-71458628D02*
X68594173Y-71458628D01*
X68594173Y-71458628D02*
X68451316Y-71530057D01*
X68451316Y-71530057D02*
X68379887Y-71601485D01*
X68379887Y-71601485D02*
X68308458Y-71744342D01*
X68308458Y-71744342D02*
X68308458Y-71887200D01*
X68308458Y-71887200D02*
X68379887Y-72030057D01*
X68379887Y-72030057D02*
X68451316Y-72101485D01*
X68451316Y-72101485D02*
X68594173Y-72172914D01*
X68594173Y-72172914D02*
X69094173Y-72172914D01*
X67665601Y-72530057D02*
X66951316Y-72530057D01*
X67808458Y-72958628D02*
X67308458Y-71458628D01*
X67308458Y-71458628D02*
X66808458Y-72958628D01*
X66522744Y-71458628D02*
X65665602Y-71458628D01*
X66094173Y-72958628D02*
X66094173Y-71458628D01*
X65379887Y-71458628D02*
X64522745Y-71458628D01*
X64951316Y-72958628D02*
X64951316Y-71458628D01*
D10*
X89748468Y-83294414D02*
X89506563Y-83125080D01*
X89748468Y-83004128D02*
X89240468Y-83004128D01*
X89240468Y-83004128D02*
X89240468Y-83197652D01*
X89240468Y-83197652D02*
X89264658Y-83246033D01*
X89264658Y-83246033D02*
X89288849Y-83270223D01*
X89288849Y-83270223D02*
X89337230Y-83294414D01*
X89337230Y-83294414D02*
X89409801Y-83294414D01*
X89409801Y-83294414D02*
X89458182Y-83270223D01*
X89458182Y-83270223D02*
X89482373Y-83246033D01*
X89482373Y-83246033D02*
X89506563Y-83197652D01*
X89506563Y-83197652D02*
X89506563Y-83004128D01*
X89796849Y-83391176D02*
X89796849Y-83778223D01*
X89748468Y-83899176D02*
X89240468Y-83899176D01*
X89724278Y-84116890D02*
X89748468Y-84189462D01*
X89748468Y-84189462D02*
X89748468Y-84310414D01*
X89748468Y-84310414D02*
X89724278Y-84358795D01*
X89724278Y-84358795D02*
X89700087Y-84382986D01*
X89700087Y-84382986D02*
X89651706Y-84407176D01*
X89651706Y-84407176D02*
X89603325Y-84407176D01*
X89603325Y-84407176D02*
X89554944Y-84382986D01*
X89554944Y-84382986D02*
X89530754Y-84358795D01*
X89530754Y-84358795D02*
X89506563Y-84310414D01*
X89506563Y-84310414D02*
X89482373Y-84213652D01*
X89482373Y-84213652D02*
X89458182Y-84165271D01*
X89458182Y-84165271D02*
X89433992Y-84141081D01*
X89433992Y-84141081D02*
X89385611Y-84116890D01*
X89385611Y-84116890D02*
X89337230Y-84116890D01*
X89337230Y-84116890D02*
X89288849Y-84141081D01*
X89288849Y-84141081D02*
X89264658Y-84165271D01*
X89264658Y-84165271D02*
X89240468Y-84213652D01*
X89240468Y-84213652D02*
X89240468Y-84334605D01*
X89240468Y-84334605D02*
X89264658Y-84407176D01*
X89482373Y-84624891D02*
X89482373Y-84794224D01*
X89748468Y-84866796D02*
X89748468Y-84624891D01*
X89748468Y-84624891D02*
X89240468Y-84624891D01*
X89240468Y-84624891D02*
X89240468Y-84866796D01*
X89240468Y-85011938D02*
X89240468Y-85302224D01*
X89748468Y-85157081D02*
X89240468Y-85157081D01*
X89748468Y-85737653D02*
X89748468Y-85447367D01*
X89748468Y-85592510D02*
X89240468Y-85592510D01*
X89240468Y-85592510D02*
X89313039Y-85544129D01*
X89313039Y-85544129D02*
X89361420Y-85495748D01*
X89361420Y-85495748D02*
X89385611Y-85447367D01*
X98408406Y-127993666D02*
X98166501Y-127824332D01*
X98408406Y-127703380D02*
X97900406Y-127703380D01*
X97900406Y-127703380D02*
X97900406Y-127896904D01*
X97900406Y-127896904D02*
X97924596Y-127945285D01*
X97924596Y-127945285D02*
X97948787Y-127969475D01*
X97948787Y-127969475D02*
X97997168Y-127993666D01*
X97997168Y-127993666D02*
X98069739Y-127993666D01*
X98069739Y-127993666D02*
X98118120Y-127969475D01*
X98118120Y-127969475D02*
X98142311Y-127945285D01*
X98142311Y-127945285D02*
X98166501Y-127896904D01*
X98166501Y-127896904D02*
X98166501Y-127703380D01*
X98456787Y-128090428D02*
X98456787Y-128477475D01*
X98408406Y-128840333D02*
X98408406Y-128598428D01*
X98408406Y-128598428D02*
X97900406Y-128598428D01*
X97900406Y-128937094D02*
X97900406Y-129227380D01*
X98408406Y-129082237D02*
X97900406Y-129082237D01*
X98360025Y-129687000D02*
X98384216Y-129662809D01*
X98384216Y-129662809D02*
X98408406Y-129590238D01*
X98408406Y-129590238D02*
X98408406Y-129541857D01*
X98408406Y-129541857D02*
X98384216Y-129469285D01*
X98384216Y-129469285D02*
X98335835Y-129420904D01*
X98335835Y-129420904D02*
X98287454Y-129396714D01*
X98287454Y-129396714D02*
X98190692Y-129372523D01*
X98190692Y-129372523D02*
X98118120Y-129372523D01*
X98118120Y-129372523D02*
X98021358Y-129396714D01*
X98021358Y-129396714D02*
X97972977Y-129420904D01*
X97972977Y-129420904D02*
X97924596Y-129469285D01*
X97924596Y-129469285D02*
X97900406Y-129541857D01*
X97900406Y-129541857D02*
X97900406Y-129590238D01*
X97900406Y-129590238D02*
X97924596Y-129662809D01*
X97924596Y-129662809D02*
X97948787Y-129687000D01*
X98408406Y-130170809D02*
X98408406Y-129880523D01*
X98408406Y-130025666D02*
X97900406Y-130025666D01*
X97900406Y-130025666D02*
X97972977Y-129977285D01*
X97972977Y-129977285D02*
X98021358Y-129928904D01*
X98021358Y-129928904D02*
X98045549Y-129880523D01*
X103181333Y-127180025D02*
X103205524Y-127204216D01*
X103205524Y-127204216D02*
X103278095Y-127228406D01*
X103278095Y-127228406D02*
X103326476Y-127228406D01*
X103326476Y-127228406D02*
X103399048Y-127204216D01*
X103399048Y-127204216D02*
X103447429Y-127155835D01*
X103447429Y-127155835D02*
X103471619Y-127107454D01*
X103471619Y-127107454D02*
X103495810Y-127010692D01*
X103495810Y-127010692D02*
X103495810Y-126938120D01*
X103495810Y-126938120D02*
X103471619Y-126841358D01*
X103471619Y-126841358D02*
X103447429Y-126792977D01*
X103447429Y-126792977D02*
X103399048Y-126744596D01*
X103399048Y-126744596D02*
X103326476Y-126720406D01*
X103326476Y-126720406D02*
X103278095Y-126720406D01*
X103278095Y-126720406D02*
X103205524Y-126744596D01*
X103205524Y-126744596D02*
X103181333Y-126768787D01*
X103084572Y-127276787D02*
X102697524Y-127276787D01*
X102334666Y-127228406D02*
X102576571Y-127228406D01*
X102576571Y-127228406D02*
X102576571Y-126720406D01*
X102237905Y-126720406D02*
X101947619Y-126720406D01*
X102092762Y-127228406D02*
X102092762Y-126720406D01*
X101487999Y-127180025D02*
X101512190Y-127204216D01*
X101512190Y-127204216D02*
X101584761Y-127228406D01*
X101584761Y-127228406D02*
X101633142Y-127228406D01*
X101633142Y-127228406D02*
X101705714Y-127204216D01*
X101705714Y-127204216D02*
X101754095Y-127155835D01*
X101754095Y-127155835D02*
X101778285Y-127107454D01*
X101778285Y-127107454D02*
X101802476Y-127010692D01*
X101802476Y-127010692D02*
X101802476Y-126938120D01*
X101802476Y-126938120D02*
X101778285Y-126841358D01*
X101778285Y-126841358D02*
X101754095Y-126792977D01*
X101754095Y-126792977D02*
X101705714Y-126744596D01*
X101705714Y-126744596D02*
X101633142Y-126720406D01*
X101633142Y-126720406D02*
X101584761Y-126720406D01*
X101584761Y-126720406D02*
X101512190Y-126744596D01*
X101512190Y-126744596D02*
X101487999Y-126768787D01*
X101004190Y-127228406D02*
X101294476Y-127228406D01*
X101149333Y-127228406D02*
X101149333Y-126720406D01*
X101149333Y-126720406D02*
X101197714Y-126792977D01*
X101197714Y-126792977D02*
X101246095Y-126841358D01*
X101246095Y-126841358D02*
X101294476Y-126865549D01*
X95298406Y-127943666D02*
X95056501Y-127774332D01*
X95298406Y-127653380D02*
X94790406Y-127653380D01*
X94790406Y-127653380D02*
X94790406Y-127846904D01*
X94790406Y-127846904D02*
X94814596Y-127895285D01*
X94814596Y-127895285D02*
X94838787Y-127919475D01*
X94838787Y-127919475D02*
X94887168Y-127943666D01*
X94887168Y-127943666D02*
X94959739Y-127943666D01*
X94959739Y-127943666D02*
X95008120Y-127919475D01*
X95008120Y-127919475D02*
X95032311Y-127895285D01*
X95032311Y-127895285D02*
X95056501Y-127846904D01*
X95056501Y-127846904D02*
X95056501Y-127653380D01*
X95346787Y-128040428D02*
X95346787Y-128427475D01*
X95298406Y-128790333D02*
X95298406Y-128548428D01*
X95298406Y-128548428D02*
X94790406Y-128548428D01*
X94790406Y-128887094D02*
X94790406Y-129177380D01*
X95298406Y-129032237D02*
X94790406Y-129032237D01*
X95250025Y-129637000D02*
X95274216Y-129612809D01*
X95274216Y-129612809D02*
X95298406Y-129540238D01*
X95298406Y-129540238D02*
X95298406Y-129491857D01*
X95298406Y-129491857D02*
X95274216Y-129419285D01*
X95274216Y-129419285D02*
X95225835Y-129370904D01*
X95225835Y-129370904D02*
X95177454Y-129346714D01*
X95177454Y-129346714D02*
X95080692Y-129322523D01*
X95080692Y-129322523D02*
X95008120Y-129322523D01*
X95008120Y-129322523D02*
X94911358Y-129346714D01*
X94911358Y-129346714D02*
X94862977Y-129370904D01*
X94862977Y-129370904D02*
X94814596Y-129419285D01*
X94814596Y-129419285D02*
X94790406Y-129491857D01*
X94790406Y-129491857D02*
X94790406Y-129540238D01*
X94790406Y-129540238D02*
X94814596Y-129612809D01*
X94814596Y-129612809D02*
X94838787Y-129637000D01*
X94790406Y-130096619D02*
X94790406Y-129854714D01*
X94790406Y-129854714D02*
X95032311Y-129830523D01*
X95032311Y-129830523D02*
X95008120Y-129854714D01*
X95008120Y-129854714D02*
X94983930Y-129903095D01*
X94983930Y-129903095D02*
X94983930Y-130024047D01*
X94983930Y-130024047D02*
X95008120Y-130072428D01*
X95008120Y-130072428D02*
X95032311Y-130096619D01*
X95032311Y-130096619D02*
X95080692Y-130120809D01*
X95080692Y-130120809D02*
X95201644Y-130120809D01*
X95201644Y-130120809D02*
X95250025Y-130096619D01*
X95250025Y-130096619D02*
X95274216Y-130072428D01*
X95274216Y-130072428D02*
X95298406Y-130024047D01*
X95298406Y-130024047D02*
X95298406Y-129903095D01*
X95298406Y-129903095D02*
X95274216Y-129854714D01*
X95274216Y-129854714D02*
X95250025Y-129830523D01*
X116236952Y-70157202D02*
X116406286Y-69915297D01*
X116527238Y-70157202D02*
X116527238Y-69649202D01*
X116527238Y-69649202D02*
X116333714Y-69649202D01*
X116333714Y-69649202D02*
X116285333Y-69673392D01*
X116285333Y-69673392D02*
X116261143Y-69697583D01*
X116261143Y-69697583D02*
X116236952Y-69745964D01*
X116236952Y-69745964D02*
X116236952Y-69818535D01*
X116236952Y-69818535D02*
X116261143Y-69866916D01*
X116261143Y-69866916D02*
X116285333Y-69891107D01*
X116285333Y-69891107D02*
X116333714Y-69915297D01*
X116333714Y-69915297D02*
X116527238Y-69915297D01*
X116140191Y-70205583D02*
X115753143Y-70205583D01*
X115462857Y-69891107D02*
X115390285Y-69915297D01*
X115390285Y-69915297D02*
X115366095Y-69939488D01*
X115366095Y-69939488D02*
X115341904Y-69987869D01*
X115341904Y-69987869D02*
X115341904Y-70060440D01*
X115341904Y-70060440D02*
X115366095Y-70108821D01*
X115366095Y-70108821D02*
X115390285Y-70133012D01*
X115390285Y-70133012D02*
X115438666Y-70157202D01*
X115438666Y-70157202D02*
X115632190Y-70157202D01*
X115632190Y-70157202D02*
X115632190Y-69649202D01*
X115632190Y-69649202D02*
X115462857Y-69649202D01*
X115462857Y-69649202D02*
X115414476Y-69673392D01*
X115414476Y-69673392D02*
X115390285Y-69697583D01*
X115390285Y-69697583D02*
X115366095Y-69745964D01*
X115366095Y-69745964D02*
X115366095Y-69794345D01*
X115366095Y-69794345D02*
X115390285Y-69842726D01*
X115390285Y-69842726D02*
X115414476Y-69866916D01*
X115414476Y-69866916D02*
X115462857Y-69891107D01*
X115462857Y-69891107D02*
X115632190Y-69891107D01*
X115148381Y-70012059D02*
X114906476Y-70012059D01*
X115196762Y-70157202D02*
X115027428Y-69649202D01*
X115027428Y-69649202D02*
X114858095Y-70157202D01*
X114761333Y-69649202D02*
X114471047Y-69649202D01*
X114616190Y-70157202D02*
X114616190Y-69649202D01*
X114374285Y-69649202D02*
X114083999Y-69649202D01*
X114229142Y-70157202D02*
X114229142Y-69649202D01*
X113963046Y-69649202D02*
X113648570Y-69649202D01*
X113648570Y-69649202D02*
X113817903Y-69842726D01*
X113817903Y-69842726D02*
X113745332Y-69842726D01*
X113745332Y-69842726D02*
X113696951Y-69866916D01*
X113696951Y-69866916D02*
X113672760Y-69891107D01*
X113672760Y-69891107D02*
X113648570Y-69939488D01*
X113648570Y-69939488D02*
X113648570Y-70060440D01*
X113648570Y-70060440D02*
X113672760Y-70108821D01*
X113672760Y-70108821D02*
X113696951Y-70133012D01*
X113696951Y-70133012D02*
X113745332Y-70157202D01*
X113745332Y-70157202D02*
X113890475Y-70157202D01*
X113890475Y-70157202D02*
X113938856Y-70133012D01*
X113938856Y-70133012D02*
X113963046Y-70108821D01*
X116458468Y-101673428D02*
X116216563Y-101504094D01*
X116458468Y-101383142D02*
X115950468Y-101383142D01*
X115950468Y-101383142D02*
X115950468Y-101576666D01*
X115950468Y-101576666D02*
X115974658Y-101625047D01*
X115974658Y-101625047D02*
X115998849Y-101649237D01*
X115998849Y-101649237D02*
X116047230Y-101673428D01*
X116047230Y-101673428D02*
X116119801Y-101673428D01*
X116119801Y-101673428D02*
X116168182Y-101649237D01*
X116168182Y-101649237D02*
X116192373Y-101625047D01*
X116192373Y-101625047D02*
X116216563Y-101576666D01*
X116216563Y-101576666D02*
X116216563Y-101383142D01*
X116458468Y-102157237D02*
X116458468Y-101866951D01*
X116458468Y-102012094D02*
X115950468Y-102012094D01*
X115950468Y-102012094D02*
X116023039Y-101963713D01*
X116023039Y-101963713D02*
X116071420Y-101915332D01*
X116071420Y-101915332D02*
X116095611Y-101866951D01*
X115950468Y-102326571D02*
X115950468Y-102641047D01*
X115950468Y-102641047D02*
X116143992Y-102471714D01*
X116143992Y-102471714D02*
X116143992Y-102544285D01*
X116143992Y-102544285D02*
X116168182Y-102592666D01*
X116168182Y-102592666D02*
X116192373Y-102616857D01*
X116192373Y-102616857D02*
X116240754Y-102641047D01*
X116240754Y-102641047D02*
X116361706Y-102641047D01*
X116361706Y-102641047D02*
X116410087Y-102616857D01*
X116410087Y-102616857D02*
X116434278Y-102592666D01*
X116434278Y-102592666D02*
X116458468Y-102544285D01*
X116458468Y-102544285D02*
X116458468Y-102399142D01*
X116458468Y-102399142D02*
X116434278Y-102350761D01*
X116434278Y-102350761D02*
X116410087Y-102326571D01*
X77550025Y-79931433D02*
X77574216Y-79907242D01*
X77574216Y-79907242D02*
X77598406Y-79834671D01*
X77598406Y-79834671D02*
X77598406Y-79786290D01*
X77598406Y-79786290D02*
X77574216Y-79713718D01*
X77574216Y-79713718D02*
X77525835Y-79665337D01*
X77525835Y-79665337D02*
X77477454Y-79641147D01*
X77477454Y-79641147D02*
X77380692Y-79616956D01*
X77380692Y-79616956D02*
X77308120Y-79616956D01*
X77308120Y-79616956D02*
X77211358Y-79641147D01*
X77211358Y-79641147D02*
X77162977Y-79665337D01*
X77162977Y-79665337D02*
X77114596Y-79713718D01*
X77114596Y-79713718D02*
X77090406Y-79786290D01*
X77090406Y-79786290D02*
X77090406Y-79834671D01*
X77090406Y-79834671D02*
X77114596Y-79907242D01*
X77114596Y-79907242D02*
X77138787Y-79931433D01*
X77090406Y-80100766D02*
X77090406Y-80439433D01*
X77090406Y-80439433D02*
X77598406Y-80221718D01*
X104630663Y-68171844D02*
X104654854Y-68147653D01*
X104654854Y-68147653D02*
X104679044Y-68075082D01*
X104679044Y-68075082D02*
X104679044Y-68026701D01*
X104679044Y-68026701D02*
X104654854Y-67954129D01*
X104654854Y-67954129D02*
X104606473Y-67905748D01*
X104606473Y-67905748D02*
X104558092Y-67881558D01*
X104558092Y-67881558D02*
X104461330Y-67857367D01*
X104461330Y-67857367D02*
X104388758Y-67857367D01*
X104388758Y-67857367D02*
X104291996Y-67881558D01*
X104291996Y-67881558D02*
X104243615Y-67905748D01*
X104243615Y-67905748D02*
X104195234Y-67954129D01*
X104195234Y-67954129D02*
X104171044Y-68026701D01*
X104171044Y-68026701D02*
X104171044Y-68075082D01*
X104171044Y-68075082D02*
X104195234Y-68147653D01*
X104195234Y-68147653D02*
X104219425Y-68171844D01*
X104727425Y-68268606D02*
X104727425Y-68655653D01*
X104412949Y-68945939D02*
X104437139Y-69018511D01*
X104437139Y-69018511D02*
X104461330Y-69042701D01*
X104461330Y-69042701D02*
X104509711Y-69066892D01*
X104509711Y-69066892D02*
X104582282Y-69066892D01*
X104582282Y-69066892D02*
X104630663Y-69042701D01*
X104630663Y-69042701D02*
X104654854Y-69018511D01*
X104654854Y-69018511D02*
X104679044Y-68970130D01*
X104679044Y-68970130D02*
X104679044Y-68776606D01*
X104679044Y-68776606D02*
X104171044Y-68776606D01*
X104171044Y-68776606D02*
X104171044Y-68945939D01*
X104171044Y-68945939D02*
X104195234Y-68994320D01*
X104195234Y-68994320D02*
X104219425Y-69018511D01*
X104219425Y-69018511D02*
X104267806Y-69042701D01*
X104267806Y-69042701D02*
X104316187Y-69042701D01*
X104316187Y-69042701D02*
X104364568Y-69018511D01*
X104364568Y-69018511D02*
X104388758Y-68994320D01*
X104388758Y-68994320D02*
X104412949Y-68945939D01*
X104412949Y-68945939D02*
X104412949Y-68776606D01*
X104533901Y-69260415D02*
X104533901Y-69502320D01*
X104679044Y-69212034D02*
X104171044Y-69381368D01*
X104171044Y-69381368D02*
X104679044Y-69550701D01*
X104171044Y-69647463D02*
X104171044Y-69937749D01*
X104679044Y-69792606D02*
X104171044Y-69792606D01*
X104171044Y-70034511D02*
X104171044Y-70324797D01*
X104679044Y-70179654D02*
X104171044Y-70179654D01*
X104219425Y-70469940D02*
X104195234Y-70494131D01*
X104195234Y-70494131D02*
X104171044Y-70542512D01*
X104171044Y-70542512D02*
X104171044Y-70663464D01*
X104171044Y-70663464D02*
X104195234Y-70711845D01*
X104195234Y-70711845D02*
X104219425Y-70736036D01*
X104219425Y-70736036D02*
X104267806Y-70760226D01*
X104267806Y-70760226D02*
X104316187Y-70760226D01*
X104316187Y-70760226D02*
X104388758Y-70736036D01*
X104388758Y-70736036D02*
X104679044Y-70445750D01*
X104679044Y-70445750D02*
X104679044Y-70760226D01*
X101830025Y-114893666D02*
X101854216Y-114869475D01*
X101854216Y-114869475D02*
X101878406Y-114796904D01*
X101878406Y-114796904D02*
X101878406Y-114748523D01*
X101878406Y-114748523D02*
X101854216Y-114675951D01*
X101854216Y-114675951D02*
X101805835Y-114627570D01*
X101805835Y-114627570D02*
X101757454Y-114603380D01*
X101757454Y-114603380D02*
X101660692Y-114579189D01*
X101660692Y-114579189D02*
X101588120Y-114579189D01*
X101588120Y-114579189D02*
X101491358Y-114603380D01*
X101491358Y-114603380D02*
X101442977Y-114627570D01*
X101442977Y-114627570D02*
X101394596Y-114675951D01*
X101394596Y-114675951D02*
X101370406Y-114748523D01*
X101370406Y-114748523D02*
X101370406Y-114796904D01*
X101370406Y-114796904D02*
X101394596Y-114869475D01*
X101394596Y-114869475D02*
X101418787Y-114893666D01*
X101926787Y-114990428D02*
X101926787Y-115377475D01*
X101878406Y-115740333D02*
X101878406Y-115498428D01*
X101878406Y-115498428D02*
X101370406Y-115498428D01*
X101370406Y-115837094D02*
X101370406Y-116127380D01*
X101878406Y-115982237D02*
X101370406Y-115982237D01*
X101830025Y-116587000D02*
X101854216Y-116562809D01*
X101854216Y-116562809D02*
X101878406Y-116490238D01*
X101878406Y-116490238D02*
X101878406Y-116441857D01*
X101878406Y-116441857D02*
X101854216Y-116369285D01*
X101854216Y-116369285D02*
X101805835Y-116320904D01*
X101805835Y-116320904D02*
X101757454Y-116296714D01*
X101757454Y-116296714D02*
X101660692Y-116272523D01*
X101660692Y-116272523D02*
X101588120Y-116272523D01*
X101588120Y-116272523D02*
X101491358Y-116296714D01*
X101491358Y-116296714D02*
X101442977Y-116320904D01*
X101442977Y-116320904D02*
X101394596Y-116369285D01*
X101394596Y-116369285D02*
X101370406Y-116441857D01*
X101370406Y-116441857D02*
X101370406Y-116490238D01*
X101370406Y-116490238D02*
X101394596Y-116562809D01*
X101394596Y-116562809D02*
X101418787Y-116587000D01*
X101878406Y-116828904D02*
X101878406Y-116925666D01*
X101878406Y-116925666D02*
X101854216Y-116974047D01*
X101854216Y-116974047D02*
X101830025Y-116998238D01*
X101830025Y-116998238D02*
X101757454Y-117046619D01*
X101757454Y-117046619D02*
X101660692Y-117070809D01*
X101660692Y-117070809D02*
X101467168Y-117070809D01*
X101467168Y-117070809D02*
X101418787Y-117046619D01*
X101418787Y-117046619D02*
X101394596Y-117022428D01*
X101394596Y-117022428D02*
X101370406Y-116974047D01*
X101370406Y-116974047D02*
X101370406Y-116877285D01*
X101370406Y-116877285D02*
X101394596Y-116828904D01*
X101394596Y-116828904D02*
X101418787Y-116804714D01*
X101418787Y-116804714D02*
X101467168Y-116780523D01*
X101467168Y-116780523D02*
X101588120Y-116780523D01*
X101588120Y-116780523D02*
X101636501Y-116804714D01*
X101636501Y-116804714D02*
X101660692Y-116828904D01*
X101660692Y-116828904D02*
X101684882Y-116877285D01*
X101684882Y-116877285D02*
X101684882Y-116974047D01*
X101684882Y-116974047D02*
X101660692Y-117022428D01*
X101660692Y-117022428D02*
X101636501Y-117046619D01*
X101636501Y-117046619D02*
X101588120Y-117070809D01*
X75308406Y-82056433D02*
X75066501Y-81887099D01*
X75308406Y-81766147D02*
X74800406Y-81766147D01*
X74800406Y-81766147D02*
X74800406Y-81959671D01*
X74800406Y-81959671D02*
X74824596Y-82008052D01*
X74824596Y-82008052D02*
X74848787Y-82032242D01*
X74848787Y-82032242D02*
X74897168Y-82056433D01*
X74897168Y-82056433D02*
X74969739Y-82056433D01*
X74969739Y-82056433D02*
X75018120Y-82032242D01*
X75018120Y-82032242D02*
X75042311Y-82008052D01*
X75042311Y-82008052D02*
X75066501Y-81959671D01*
X75066501Y-81959671D02*
X75066501Y-81766147D01*
X74848787Y-82249956D02*
X74824596Y-82274147D01*
X74824596Y-82274147D02*
X74800406Y-82322528D01*
X74800406Y-82322528D02*
X74800406Y-82443480D01*
X74800406Y-82443480D02*
X74824596Y-82491861D01*
X74824596Y-82491861D02*
X74848787Y-82516052D01*
X74848787Y-82516052D02*
X74897168Y-82540242D01*
X74897168Y-82540242D02*
X74945549Y-82540242D01*
X74945549Y-82540242D02*
X75018120Y-82516052D01*
X75018120Y-82516052D02*
X75308406Y-82225766D01*
X75308406Y-82225766D02*
X75308406Y-82540242D01*
X82158406Y-81731433D02*
X81916501Y-81562099D01*
X82158406Y-81441147D02*
X81650406Y-81441147D01*
X81650406Y-81441147D02*
X81650406Y-81634671D01*
X81650406Y-81634671D02*
X81674596Y-81683052D01*
X81674596Y-81683052D02*
X81698787Y-81707242D01*
X81698787Y-81707242D02*
X81747168Y-81731433D01*
X81747168Y-81731433D02*
X81819739Y-81731433D01*
X81819739Y-81731433D02*
X81868120Y-81707242D01*
X81868120Y-81707242D02*
X81892311Y-81683052D01*
X81892311Y-81683052D02*
X81916501Y-81634671D01*
X81916501Y-81634671D02*
X81916501Y-81441147D01*
X81650406Y-81900766D02*
X81650406Y-82215242D01*
X81650406Y-82215242D02*
X81843930Y-82045909D01*
X81843930Y-82045909D02*
X81843930Y-82118480D01*
X81843930Y-82118480D02*
X81868120Y-82166861D01*
X81868120Y-82166861D02*
X81892311Y-82191052D01*
X81892311Y-82191052D02*
X81940692Y-82215242D01*
X81940692Y-82215242D02*
X82061644Y-82215242D01*
X82061644Y-82215242D02*
X82110025Y-82191052D01*
X82110025Y-82191052D02*
X82134216Y-82166861D01*
X82134216Y-82166861D02*
X82158406Y-82118480D01*
X82158406Y-82118480D02*
X82158406Y-81973337D01*
X82158406Y-81973337D02*
X82134216Y-81924956D01*
X82134216Y-81924956D02*
X82110025Y-81900766D01*
X118221714Y-83478406D02*
X118391048Y-83236501D01*
X118512000Y-83478406D02*
X118512000Y-82970406D01*
X118512000Y-82970406D02*
X118318476Y-82970406D01*
X118318476Y-82970406D02*
X118270095Y-82994596D01*
X118270095Y-82994596D02*
X118245905Y-83018787D01*
X118245905Y-83018787D02*
X118221714Y-83067168D01*
X118221714Y-83067168D02*
X118221714Y-83139739D01*
X118221714Y-83139739D02*
X118245905Y-83188120D01*
X118245905Y-83188120D02*
X118270095Y-83212311D01*
X118270095Y-83212311D02*
X118318476Y-83236501D01*
X118318476Y-83236501D02*
X118512000Y-83236501D01*
X118124953Y-83526787D02*
X117737905Y-83526787D01*
X117689524Y-82970406D02*
X117399238Y-82970406D01*
X117544381Y-83478406D02*
X117544381Y-82970406D01*
X116987999Y-82970406D02*
X117229904Y-82970406D01*
X117229904Y-82970406D02*
X117254095Y-83212311D01*
X117254095Y-83212311D02*
X117229904Y-83188120D01*
X117229904Y-83188120D02*
X117181523Y-83163930D01*
X117181523Y-83163930D02*
X117060571Y-83163930D01*
X117060571Y-83163930D02*
X117012190Y-83188120D01*
X117012190Y-83188120D02*
X116987999Y-83212311D01*
X116987999Y-83212311D02*
X116963809Y-83260692D01*
X116963809Y-83260692D02*
X116963809Y-83381644D01*
X116963809Y-83381644D02*
X116987999Y-83430025D01*
X116987999Y-83430025D02*
X117012190Y-83454216D01*
X117012190Y-83454216D02*
X117060571Y-83478406D01*
X117060571Y-83478406D02*
X117181523Y-83478406D01*
X117181523Y-83478406D02*
X117229904Y-83454216D01*
X117229904Y-83454216D02*
X117254095Y-83430025D01*
X128336968Y-112245010D02*
X128095063Y-112075676D01*
X128336968Y-111954724D02*
X127828968Y-111954724D01*
X127828968Y-111954724D02*
X127828968Y-112148248D01*
X127828968Y-112148248D02*
X127853158Y-112196629D01*
X127853158Y-112196629D02*
X127877349Y-112220819D01*
X127877349Y-112220819D02*
X127925730Y-112245010D01*
X127925730Y-112245010D02*
X127998301Y-112245010D01*
X127998301Y-112245010D02*
X128046682Y-112220819D01*
X128046682Y-112220819D02*
X128070873Y-112196629D01*
X128070873Y-112196629D02*
X128095063Y-112148248D01*
X128095063Y-112148248D02*
X128095063Y-111954724D01*
X128385349Y-112341772D02*
X128385349Y-112728819D01*
X128336968Y-112849772D02*
X127828968Y-112849772D01*
X128070873Y-112849772D02*
X128070873Y-113140058D01*
X128336968Y-113140058D02*
X127828968Y-113140058D01*
X127998301Y-113599676D02*
X128336968Y-113599676D01*
X127804778Y-113478724D02*
X128167635Y-113357771D01*
X128167635Y-113357771D02*
X128167635Y-113672248D01*
X86662014Y-125243821D02*
X86686205Y-125268012D01*
X86686205Y-125268012D02*
X86758776Y-125292202D01*
X86758776Y-125292202D02*
X86807157Y-125292202D01*
X86807157Y-125292202D02*
X86879729Y-125268012D01*
X86879729Y-125268012D02*
X86928110Y-125219631D01*
X86928110Y-125219631D02*
X86952300Y-125171250D01*
X86952300Y-125171250D02*
X86976491Y-125074488D01*
X86976491Y-125074488D02*
X86976491Y-125001916D01*
X86976491Y-125001916D02*
X86952300Y-124905154D01*
X86952300Y-124905154D02*
X86928110Y-124856773D01*
X86928110Y-124856773D02*
X86879729Y-124808392D01*
X86879729Y-124808392D02*
X86807157Y-124784202D01*
X86807157Y-124784202D02*
X86758776Y-124784202D01*
X86758776Y-124784202D02*
X86686205Y-124808392D01*
X86686205Y-124808392D02*
X86662014Y-124832583D01*
X86565253Y-125340583D02*
X86178205Y-125340583D01*
X85887919Y-125026107D02*
X85815347Y-125050297D01*
X85815347Y-125050297D02*
X85791157Y-125074488D01*
X85791157Y-125074488D02*
X85766966Y-125122869D01*
X85766966Y-125122869D02*
X85766966Y-125195440D01*
X85766966Y-125195440D02*
X85791157Y-125243821D01*
X85791157Y-125243821D02*
X85815347Y-125268012D01*
X85815347Y-125268012D02*
X85863728Y-125292202D01*
X85863728Y-125292202D02*
X86057252Y-125292202D01*
X86057252Y-125292202D02*
X86057252Y-124784202D01*
X86057252Y-124784202D02*
X85887919Y-124784202D01*
X85887919Y-124784202D02*
X85839538Y-124808392D01*
X85839538Y-124808392D02*
X85815347Y-124832583D01*
X85815347Y-124832583D02*
X85791157Y-124880964D01*
X85791157Y-124880964D02*
X85791157Y-124929345D01*
X85791157Y-124929345D02*
X85815347Y-124977726D01*
X85815347Y-124977726D02*
X85839538Y-125001916D01*
X85839538Y-125001916D02*
X85887919Y-125026107D01*
X85887919Y-125026107D02*
X86057252Y-125026107D01*
X85573443Y-125147059D02*
X85331538Y-125147059D01*
X85621824Y-125292202D02*
X85452490Y-124784202D01*
X85452490Y-124784202D02*
X85283157Y-125292202D01*
X85186395Y-124784202D02*
X84896109Y-124784202D01*
X85041252Y-125292202D02*
X85041252Y-124784202D01*
X84799347Y-124784202D02*
X84509061Y-124784202D01*
X84654204Y-125292202D02*
X84654204Y-124784202D01*
X84122013Y-124953535D02*
X84122013Y-125292202D01*
X84242965Y-124760012D02*
X84363918Y-125122869D01*
X84363918Y-125122869D02*
X84049441Y-125122869D01*
X95898406Y-122068666D02*
X95656501Y-121899332D01*
X95898406Y-121778380D02*
X95390406Y-121778380D01*
X95390406Y-121778380D02*
X95390406Y-121971904D01*
X95390406Y-121971904D02*
X95414596Y-122020285D01*
X95414596Y-122020285D02*
X95438787Y-122044475D01*
X95438787Y-122044475D02*
X95487168Y-122068666D01*
X95487168Y-122068666D02*
X95559739Y-122068666D01*
X95559739Y-122068666D02*
X95608120Y-122044475D01*
X95608120Y-122044475D02*
X95632311Y-122020285D01*
X95632311Y-122020285D02*
X95656501Y-121971904D01*
X95656501Y-121971904D02*
X95656501Y-121778380D01*
X95946787Y-122165428D02*
X95946787Y-122552475D01*
X95898406Y-122915333D02*
X95898406Y-122673428D01*
X95898406Y-122673428D02*
X95390406Y-122673428D01*
X95390406Y-123012094D02*
X95390406Y-123302380D01*
X95898406Y-123157237D02*
X95390406Y-123157237D01*
X95850025Y-123762000D02*
X95874216Y-123737809D01*
X95874216Y-123737809D02*
X95898406Y-123665238D01*
X95898406Y-123665238D02*
X95898406Y-123616857D01*
X95898406Y-123616857D02*
X95874216Y-123544285D01*
X95874216Y-123544285D02*
X95825835Y-123495904D01*
X95825835Y-123495904D02*
X95777454Y-123471714D01*
X95777454Y-123471714D02*
X95680692Y-123447523D01*
X95680692Y-123447523D02*
X95608120Y-123447523D01*
X95608120Y-123447523D02*
X95511358Y-123471714D01*
X95511358Y-123471714D02*
X95462977Y-123495904D01*
X95462977Y-123495904D02*
X95414596Y-123544285D01*
X95414596Y-123544285D02*
X95390406Y-123616857D01*
X95390406Y-123616857D02*
X95390406Y-123665238D01*
X95390406Y-123665238D02*
X95414596Y-123737809D01*
X95414596Y-123737809D02*
X95438787Y-123762000D01*
X95608120Y-124052285D02*
X95583930Y-124003904D01*
X95583930Y-124003904D02*
X95559739Y-123979714D01*
X95559739Y-123979714D02*
X95511358Y-123955523D01*
X95511358Y-123955523D02*
X95487168Y-123955523D01*
X95487168Y-123955523D02*
X95438787Y-123979714D01*
X95438787Y-123979714D02*
X95414596Y-124003904D01*
X95414596Y-124003904D02*
X95390406Y-124052285D01*
X95390406Y-124052285D02*
X95390406Y-124149047D01*
X95390406Y-124149047D02*
X95414596Y-124197428D01*
X95414596Y-124197428D02*
X95438787Y-124221619D01*
X95438787Y-124221619D02*
X95487168Y-124245809D01*
X95487168Y-124245809D02*
X95511358Y-124245809D01*
X95511358Y-124245809D02*
X95559739Y-124221619D01*
X95559739Y-124221619D02*
X95583930Y-124197428D01*
X95583930Y-124197428D02*
X95608120Y-124149047D01*
X95608120Y-124149047D02*
X95608120Y-124052285D01*
X95608120Y-124052285D02*
X95632311Y-124003904D01*
X95632311Y-124003904D02*
X95656501Y-123979714D01*
X95656501Y-123979714D02*
X95704882Y-123955523D01*
X95704882Y-123955523D02*
X95801644Y-123955523D01*
X95801644Y-123955523D02*
X95850025Y-123979714D01*
X95850025Y-123979714D02*
X95874216Y-124003904D01*
X95874216Y-124003904D02*
X95898406Y-124052285D01*
X95898406Y-124052285D02*
X95898406Y-124149047D01*
X95898406Y-124149047D02*
X95874216Y-124197428D01*
X95874216Y-124197428D02*
X95850025Y-124221619D01*
X95850025Y-124221619D02*
X95801644Y-124245809D01*
X95801644Y-124245809D02*
X95704882Y-124245809D01*
X95704882Y-124245809D02*
X95656501Y-124221619D01*
X95656501Y-124221619D02*
X95632311Y-124197428D01*
X95632311Y-124197428D02*
X95608120Y-124149047D01*
X82546776Y-117067202D02*
X82716110Y-116825297D01*
X82837062Y-117067202D02*
X82837062Y-116559202D01*
X82837062Y-116559202D02*
X82643538Y-116559202D01*
X82643538Y-116559202D02*
X82595157Y-116583392D01*
X82595157Y-116583392D02*
X82570967Y-116607583D01*
X82570967Y-116607583D02*
X82546776Y-116655964D01*
X82546776Y-116655964D02*
X82546776Y-116728535D01*
X82546776Y-116728535D02*
X82570967Y-116776916D01*
X82570967Y-116776916D02*
X82595157Y-116801107D01*
X82595157Y-116801107D02*
X82643538Y-116825297D01*
X82643538Y-116825297D02*
X82837062Y-116825297D01*
X82450015Y-117115583D02*
X82062967Y-117115583D01*
X82014586Y-116559202D02*
X81724300Y-116559202D01*
X81869443Y-117067202D02*
X81869443Y-116559202D01*
X81603347Y-116559202D02*
X81288871Y-116559202D01*
X81288871Y-116559202D02*
X81458204Y-116752726D01*
X81458204Y-116752726D02*
X81385633Y-116752726D01*
X81385633Y-116752726D02*
X81337252Y-116776916D01*
X81337252Y-116776916D02*
X81313061Y-116801107D01*
X81313061Y-116801107D02*
X81288871Y-116849488D01*
X81288871Y-116849488D02*
X81288871Y-116970440D01*
X81288871Y-116970440D02*
X81313061Y-117018821D01*
X81313061Y-117018821D02*
X81337252Y-117043012D01*
X81337252Y-117043012D02*
X81385633Y-117067202D01*
X81385633Y-117067202D02*
X81530776Y-117067202D01*
X81530776Y-117067202D02*
X81579157Y-117043012D01*
X81579157Y-117043012D02*
X81603347Y-117018821D01*
X125271714Y-115294702D02*
X125441048Y-115052797D01*
X125562000Y-115294702D02*
X125562000Y-114786702D01*
X125562000Y-114786702D02*
X125368476Y-114786702D01*
X125368476Y-114786702D02*
X125320095Y-114810892D01*
X125320095Y-114810892D02*
X125295905Y-114835083D01*
X125295905Y-114835083D02*
X125271714Y-114883464D01*
X125271714Y-114883464D02*
X125271714Y-114956035D01*
X125271714Y-114956035D02*
X125295905Y-115004416D01*
X125295905Y-115004416D02*
X125320095Y-115028607D01*
X125320095Y-115028607D02*
X125368476Y-115052797D01*
X125368476Y-115052797D02*
X125562000Y-115052797D01*
X125174953Y-115343083D02*
X124787905Y-115343083D01*
X124739524Y-114786702D02*
X124449238Y-114786702D01*
X124594381Y-115294702D02*
X124594381Y-114786702D01*
X124328285Y-114786702D02*
X123989618Y-114786702D01*
X123989618Y-114786702D02*
X124207333Y-115294702D01*
X86662014Y-129292202D02*
X86831348Y-129050297D01*
X86952300Y-129292202D02*
X86952300Y-128784202D01*
X86952300Y-128784202D02*
X86758776Y-128784202D01*
X86758776Y-128784202D02*
X86710395Y-128808392D01*
X86710395Y-128808392D02*
X86686205Y-128832583D01*
X86686205Y-128832583D02*
X86662014Y-128880964D01*
X86662014Y-128880964D02*
X86662014Y-128953535D01*
X86662014Y-128953535D02*
X86686205Y-129001916D01*
X86686205Y-129001916D02*
X86710395Y-129026107D01*
X86710395Y-129026107D02*
X86758776Y-129050297D01*
X86758776Y-129050297D02*
X86952300Y-129050297D01*
X86565253Y-129340583D02*
X86178205Y-129340583D01*
X85887919Y-129026107D02*
X85815347Y-129050297D01*
X85815347Y-129050297D02*
X85791157Y-129074488D01*
X85791157Y-129074488D02*
X85766966Y-129122869D01*
X85766966Y-129122869D02*
X85766966Y-129195440D01*
X85766966Y-129195440D02*
X85791157Y-129243821D01*
X85791157Y-129243821D02*
X85815347Y-129268012D01*
X85815347Y-129268012D02*
X85863728Y-129292202D01*
X85863728Y-129292202D02*
X86057252Y-129292202D01*
X86057252Y-129292202D02*
X86057252Y-128784202D01*
X86057252Y-128784202D02*
X85887919Y-128784202D01*
X85887919Y-128784202D02*
X85839538Y-128808392D01*
X85839538Y-128808392D02*
X85815347Y-128832583D01*
X85815347Y-128832583D02*
X85791157Y-128880964D01*
X85791157Y-128880964D02*
X85791157Y-128929345D01*
X85791157Y-128929345D02*
X85815347Y-128977726D01*
X85815347Y-128977726D02*
X85839538Y-129001916D01*
X85839538Y-129001916D02*
X85887919Y-129026107D01*
X85887919Y-129026107D02*
X86057252Y-129026107D01*
X85573443Y-129147059D02*
X85331538Y-129147059D01*
X85621824Y-129292202D02*
X85452490Y-128784202D01*
X85452490Y-128784202D02*
X85283157Y-129292202D01*
X85186395Y-128784202D02*
X84896109Y-128784202D01*
X85041252Y-129292202D02*
X85041252Y-128784202D01*
X84799347Y-128784202D02*
X84509061Y-128784202D01*
X84654204Y-129292202D02*
X84654204Y-128784202D01*
X84363918Y-128832583D02*
X84339727Y-128808392D01*
X84339727Y-128808392D02*
X84291346Y-128784202D01*
X84291346Y-128784202D02*
X84170394Y-128784202D01*
X84170394Y-128784202D02*
X84122013Y-128808392D01*
X84122013Y-128808392D02*
X84097822Y-128832583D01*
X84097822Y-128832583D02*
X84073632Y-128880964D01*
X84073632Y-128880964D02*
X84073632Y-128929345D01*
X84073632Y-128929345D02*
X84097822Y-129001916D01*
X84097822Y-129001916D02*
X84388108Y-129292202D01*
X84388108Y-129292202D02*
X84073632Y-129292202D01*
X100679044Y-68171844D02*
X100437139Y-68002510D01*
X100679044Y-67881558D02*
X100171044Y-67881558D01*
X100171044Y-67881558D02*
X100171044Y-68075082D01*
X100171044Y-68075082D02*
X100195234Y-68123463D01*
X100195234Y-68123463D02*
X100219425Y-68147653D01*
X100219425Y-68147653D02*
X100267806Y-68171844D01*
X100267806Y-68171844D02*
X100340377Y-68171844D01*
X100340377Y-68171844D02*
X100388758Y-68147653D01*
X100388758Y-68147653D02*
X100412949Y-68123463D01*
X100412949Y-68123463D02*
X100437139Y-68075082D01*
X100437139Y-68075082D02*
X100437139Y-67881558D01*
X100727425Y-68268606D02*
X100727425Y-68655653D01*
X100412949Y-68945939D02*
X100437139Y-69018511D01*
X100437139Y-69018511D02*
X100461330Y-69042701D01*
X100461330Y-69042701D02*
X100509711Y-69066892D01*
X100509711Y-69066892D02*
X100582282Y-69066892D01*
X100582282Y-69066892D02*
X100630663Y-69042701D01*
X100630663Y-69042701D02*
X100654854Y-69018511D01*
X100654854Y-69018511D02*
X100679044Y-68970130D01*
X100679044Y-68970130D02*
X100679044Y-68776606D01*
X100679044Y-68776606D02*
X100171044Y-68776606D01*
X100171044Y-68776606D02*
X100171044Y-68945939D01*
X100171044Y-68945939D02*
X100195234Y-68994320D01*
X100195234Y-68994320D02*
X100219425Y-69018511D01*
X100219425Y-69018511D02*
X100267806Y-69042701D01*
X100267806Y-69042701D02*
X100316187Y-69042701D01*
X100316187Y-69042701D02*
X100364568Y-69018511D01*
X100364568Y-69018511D02*
X100388758Y-68994320D01*
X100388758Y-68994320D02*
X100412949Y-68945939D01*
X100412949Y-68945939D02*
X100412949Y-68776606D01*
X100533901Y-69260415D02*
X100533901Y-69502320D01*
X100679044Y-69212034D02*
X100171044Y-69381368D01*
X100171044Y-69381368D02*
X100679044Y-69550701D01*
X100171044Y-69647463D02*
X100171044Y-69937749D01*
X100679044Y-69792606D02*
X100171044Y-69792606D01*
X100171044Y-70034511D02*
X100171044Y-70324797D01*
X100679044Y-70179654D02*
X100171044Y-70179654D01*
X100679044Y-70760226D02*
X100679044Y-70469940D01*
X100679044Y-70615083D02*
X100171044Y-70615083D01*
X100171044Y-70615083D02*
X100243615Y-70566702D01*
X100243615Y-70566702D02*
X100291996Y-70518321D01*
X100291996Y-70518321D02*
X100316187Y-70469940D01*
X106150025Y-128076761D02*
X106174216Y-128052570D01*
X106174216Y-128052570D02*
X106198406Y-127979999D01*
X106198406Y-127979999D02*
X106198406Y-127931618D01*
X106198406Y-127931618D02*
X106174216Y-127859046D01*
X106174216Y-127859046D02*
X106125835Y-127810665D01*
X106125835Y-127810665D02*
X106077454Y-127786475D01*
X106077454Y-127786475D02*
X105980692Y-127762284D01*
X105980692Y-127762284D02*
X105908120Y-127762284D01*
X105908120Y-127762284D02*
X105811358Y-127786475D01*
X105811358Y-127786475D02*
X105762977Y-127810665D01*
X105762977Y-127810665D02*
X105714596Y-127859046D01*
X105714596Y-127859046D02*
X105690406Y-127931618D01*
X105690406Y-127931618D02*
X105690406Y-127979999D01*
X105690406Y-127979999D02*
X105714596Y-128052570D01*
X105714596Y-128052570D02*
X105738787Y-128076761D01*
X106246787Y-128173523D02*
X106246787Y-128560570D01*
X106198406Y-128923428D02*
X106198406Y-128681523D01*
X106198406Y-128681523D02*
X105690406Y-128681523D01*
X105690406Y-129020189D02*
X105690406Y-129310475D01*
X106198406Y-129165332D02*
X105690406Y-129165332D01*
X106150025Y-129770095D02*
X106174216Y-129745904D01*
X106174216Y-129745904D02*
X106198406Y-129673333D01*
X106198406Y-129673333D02*
X106198406Y-129624952D01*
X106198406Y-129624952D02*
X106174216Y-129552380D01*
X106174216Y-129552380D02*
X106125835Y-129503999D01*
X106125835Y-129503999D02*
X106077454Y-129479809D01*
X106077454Y-129479809D02*
X105980692Y-129455618D01*
X105980692Y-129455618D02*
X105908120Y-129455618D01*
X105908120Y-129455618D02*
X105811358Y-129479809D01*
X105811358Y-129479809D02*
X105762977Y-129503999D01*
X105762977Y-129503999D02*
X105714596Y-129552380D01*
X105714596Y-129552380D02*
X105690406Y-129624952D01*
X105690406Y-129624952D02*
X105690406Y-129673333D01*
X105690406Y-129673333D02*
X105714596Y-129745904D01*
X105714596Y-129745904D02*
X105738787Y-129770095D01*
X106198406Y-130253904D02*
X106198406Y-129963618D01*
X106198406Y-130108761D02*
X105690406Y-130108761D01*
X105690406Y-130108761D02*
X105762977Y-130060380D01*
X105762977Y-130060380D02*
X105811358Y-130011999D01*
X105811358Y-130011999D02*
X105835549Y-129963618D01*
X105690406Y-130568381D02*
X105690406Y-130616762D01*
X105690406Y-130616762D02*
X105714596Y-130665143D01*
X105714596Y-130665143D02*
X105738787Y-130689333D01*
X105738787Y-130689333D02*
X105787168Y-130713524D01*
X105787168Y-130713524D02*
X105883930Y-130737714D01*
X105883930Y-130737714D02*
X106004882Y-130737714D01*
X106004882Y-130737714D02*
X106101644Y-130713524D01*
X106101644Y-130713524D02*
X106150025Y-130689333D01*
X106150025Y-130689333D02*
X106174216Y-130665143D01*
X106174216Y-130665143D02*
X106198406Y-130616762D01*
X106198406Y-130616762D02*
X106198406Y-130568381D01*
X106198406Y-130568381D02*
X106174216Y-130520000D01*
X106174216Y-130520000D02*
X106150025Y-130495809D01*
X106150025Y-130495809D02*
X106101644Y-130471619D01*
X106101644Y-130471619D02*
X106004882Y-130447428D01*
X106004882Y-130447428D02*
X105883930Y-130447428D01*
X105883930Y-130447428D02*
X105787168Y-130471619D01*
X105787168Y-130471619D02*
X105738787Y-130495809D01*
X105738787Y-130495809D02*
X105714596Y-130520000D01*
X105714596Y-130520000D02*
X105690406Y-130568381D01*
X121433468Y-80389510D02*
X121191563Y-80220176D01*
X121433468Y-80099224D02*
X120925468Y-80099224D01*
X120925468Y-80099224D02*
X120925468Y-80292748D01*
X120925468Y-80292748D02*
X120949658Y-80341129D01*
X120949658Y-80341129D02*
X120973849Y-80365319D01*
X120973849Y-80365319D02*
X121022230Y-80389510D01*
X121022230Y-80389510D02*
X121094801Y-80389510D01*
X121094801Y-80389510D02*
X121143182Y-80365319D01*
X121143182Y-80365319D02*
X121167373Y-80341129D01*
X121167373Y-80341129D02*
X121191563Y-80292748D01*
X121191563Y-80292748D02*
X121191563Y-80099224D01*
X121481849Y-80486272D02*
X121481849Y-80873319D01*
X121433468Y-80994272D02*
X120925468Y-80994272D01*
X121167373Y-80994272D02*
X121167373Y-81284558D01*
X121433468Y-81284558D02*
X120925468Y-81284558D01*
X120925468Y-81478081D02*
X120925468Y-81792557D01*
X120925468Y-81792557D02*
X121118992Y-81623224D01*
X121118992Y-81623224D02*
X121118992Y-81695795D01*
X121118992Y-81695795D02*
X121143182Y-81744176D01*
X121143182Y-81744176D02*
X121167373Y-81768367D01*
X121167373Y-81768367D02*
X121215754Y-81792557D01*
X121215754Y-81792557D02*
X121336706Y-81792557D01*
X121336706Y-81792557D02*
X121385087Y-81768367D01*
X121385087Y-81768367D02*
X121409278Y-81744176D01*
X121409278Y-81744176D02*
X121433468Y-81695795D01*
X121433468Y-81695795D02*
X121433468Y-81550652D01*
X121433468Y-81550652D02*
X121409278Y-81502271D01*
X121409278Y-81502271D02*
X121385087Y-81478081D01*
X90271776Y-81967202D02*
X90441110Y-81725297D01*
X90562062Y-81967202D02*
X90562062Y-81459202D01*
X90562062Y-81459202D02*
X90368538Y-81459202D01*
X90368538Y-81459202D02*
X90320157Y-81483392D01*
X90320157Y-81483392D02*
X90295967Y-81507583D01*
X90295967Y-81507583D02*
X90271776Y-81555964D01*
X90271776Y-81555964D02*
X90271776Y-81628535D01*
X90271776Y-81628535D02*
X90295967Y-81676916D01*
X90295967Y-81676916D02*
X90320157Y-81701107D01*
X90320157Y-81701107D02*
X90368538Y-81725297D01*
X90368538Y-81725297D02*
X90562062Y-81725297D01*
X90175015Y-82015583D02*
X89787967Y-82015583D01*
X89739586Y-81459202D02*
X89449300Y-81459202D01*
X89594443Y-81967202D02*
X89594443Y-81459202D01*
X89013871Y-81967202D02*
X89304157Y-81967202D01*
X89159014Y-81967202D02*
X89159014Y-81459202D01*
X89159014Y-81459202D02*
X89207395Y-81531773D01*
X89207395Y-81531773D02*
X89255776Y-81580154D01*
X89255776Y-81580154D02*
X89304157Y-81604345D01*
X121514244Y-119413048D02*
X121272339Y-119243714D01*
X121514244Y-119122762D02*
X121006244Y-119122762D01*
X121006244Y-119122762D02*
X121006244Y-119316286D01*
X121006244Y-119316286D02*
X121030434Y-119364667D01*
X121030434Y-119364667D02*
X121054625Y-119388857D01*
X121054625Y-119388857D02*
X121103006Y-119413048D01*
X121103006Y-119413048D02*
X121175577Y-119413048D01*
X121175577Y-119413048D02*
X121223958Y-119388857D01*
X121223958Y-119388857D02*
X121248149Y-119364667D01*
X121248149Y-119364667D02*
X121272339Y-119316286D01*
X121272339Y-119316286D02*
X121272339Y-119122762D01*
X121562625Y-119509810D02*
X121562625Y-119896857D01*
X121248149Y-120187143D02*
X121272339Y-120259715D01*
X121272339Y-120259715D02*
X121296530Y-120283905D01*
X121296530Y-120283905D02*
X121344911Y-120308096D01*
X121344911Y-120308096D02*
X121417482Y-120308096D01*
X121417482Y-120308096D02*
X121465863Y-120283905D01*
X121465863Y-120283905D02*
X121490054Y-120259715D01*
X121490054Y-120259715D02*
X121514244Y-120211334D01*
X121514244Y-120211334D02*
X121514244Y-120017810D01*
X121514244Y-120017810D02*
X121006244Y-120017810D01*
X121006244Y-120017810D02*
X121006244Y-120187143D01*
X121006244Y-120187143D02*
X121030434Y-120235524D01*
X121030434Y-120235524D02*
X121054625Y-120259715D01*
X121054625Y-120259715D02*
X121103006Y-120283905D01*
X121103006Y-120283905D02*
X121151387Y-120283905D01*
X121151387Y-120283905D02*
X121199768Y-120259715D01*
X121199768Y-120259715D02*
X121223958Y-120235524D01*
X121223958Y-120235524D02*
X121248149Y-120187143D01*
X121248149Y-120187143D02*
X121248149Y-120017810D01*
X121369101Y-120501619D02*
X121369101Y-120743524D01*
X121514244Y-120453238D02*
X121006244Y-120622572D01*
X121006244Y-120622572D02*
X121514244Y-120791905D01*
X121006244Y-120888667D02*
X121006244Y-121178953D01*
X121514244Y-121033810D02*
X121006244Y-121033810D01*
X121006244Y-121275715D02*
X121006244Y-121566001D01*
X121514244Y-121420858D02*
X121006244Y-121420858D01*
X121175577Y-121953049D02*
X121514244Y-121953049D01*
X120982054Y-121832097D02*
X121344911Y-121711144D01*
X121344911Y-121711144D02*
X121344911Y-122025621D01*
X93408468Y-78914510D02*
X93166563Y-78745176D01*
X93408468Y-78624224D02*
X92900468Y-78624224D01*
X92900468Y-78624224D02*
X92900468Y-78817748D01*
X92900468Y-78817748D02*
X92924658Y-78866129D01*
X92924658Y-78866129D02*
X92948849Y-78890319D01*
X92948849Y-78890319D02*
X92997230Y-78914510D01*
X92997230Y-78914510D02*
X93069801Y-78914510D01*
X93069801Y-78914510D02*
X93118182Y-78890319D01*
X93118182Y-78890319D02*
X93142373Y-78866129D01*
X93142373Y-78866129D02*
X93166563Y-78817748D01*
X93166563Y-78817748D02*
X93166563Y-78624224D01*
X93456849Y-79011272D02*
X93456849Y-79398319D01*
X93408468Y-79519272D02*
X92900468Y-79519272D01*
X93142373Y-79519272D02*
X93142373Y-79809558D01*
X93408468Y-79809558D02*
X92900468Y-79809558D01*
X93408468Y-80317557D02*
X93408468Y-80027271D01*
X93408468Y-80172414D02*
X92900468Y-80172414D01*
X92900468Y-80172414D02*
X92973039Y-80124033D01*
X92973039Y-80124033D02*
X93021420Y-80075652D01*
X93021420Y-80075652D02*
X93045611Y-80027271D01*
X121658468Y-100315333D02*
X121416563Y-100145999D01*
X121658468Y-100025047D02*
X121150468Y-100025047D01*
X121150468Y-100025047D02*
X121150468Y-100218571D01*
X121150468Y-100218571D02*
X121174658Y-100266952D01*
X121174658Y-100266952D02*
X121198849Y-100291142D01*
X121198849Y-100291142D02*
X121247230Y-100315333D01*
X121247230Y-100315333D02*
X121319801Y-100315333D01*
X121319801Y-100315333D02*
X121368182Y-100291142D01*
X121368182Y-100291142D02*
X121392373Y-100266952D01*
X121392373Y-100266952D02*
X121416563Y-100218571D01*
X121416563Y-100218571D02*
X121416563Y-100025047D01*
X121150468Y-100484666D02*
X121150468Y-100823333D01*
X121150468Y-100823333D02*
X121658468Y-100605618D01*
X117978406Y-84869414D02*
X117736501Y-84700080D01*
X117978406Y-84579128D02*
X117470406Y-84579128D01*
X117470406Y-84579128D02*
X117470406Y-84772652D01*
X117470406Y-84772652D02*
X117494596Y-84821033D01*
X117494596Y-84821033D02*
X117518787Y-84845223D01*
X117518787Y-84845223D02*
X117567168Y-84869414D01*
X117567168Y-84869414D02*
X117639739Y-84869414D01*
X117639739Y-84869414D02*
X117688120Y-84845223D01*
X117688120Y-84845223D02*
X117712311Y-84821033D01*
X117712311Y-84821033D02*
X117736501Y-84772652D01*
X117736501Y-84772652D02*
X117736501Y-84579128D01*
X118026787Y-84966176D02*
X118026787Y-85353223D01*
X117978406Y-85474176D02*
X117470406Y-85474176D01*
X117954216Y-85691890D02*
X117978406Y-85764462D01*
X117978406Y-85764462D02*
X117978406Y-85885414D01*
X117978406Y-85885414D02*
X117954216Y-85933795D01*
X117954216Y-85933795D02*
X117930025Y-85957986D01*
X117930025Y-85957986D02*
X117881644Y-85982176D01*
X117881644Y-85982176D02*
X117833263Y-85982176D01*
X117833263Y-85982176D02*
X117784882Y-85957986D01*
X117784882Y-85957986D02*
X117760692Y-85933795D01*
X117760692Y-85933795D02*
X117736501Y-85885414D01*
X117736501Y-85885414D02*
X117712311Y-85788652D01*
X117712311Y-85788652D02*
X117688120Y-85740271D01*
X117688120Y-85740271D02*
X117663930Y-85716081D01*
X117663930Y-85716081D02*
X117615549Y-85691890D01*
X117615549Y-85691890D02*
X117567168Y-85691890D01*
X117567168Y-85691890D02*
X117518787Y-85716081D01*
X117518787Y-85716081D02*
X117494596Y-85740271D01*
X117494596Y-85740271D02*
X117470406Y-85788652D01*
X117470406Y-85788652D02*
X117470406Y-85909605D01*
X117470406Y-85909605D02*
X117494596Y-85982176D01*
X117712311Y-86199891D02*
X117712311Y-86369224D01*
X117978406Y-86441796D02*
X117978406Y-86199891D01*
X117978406Y-86199891D02*
X117470406Y-86199891D01*
X117470406Y-86199891D02*
X117470406Y-86441796D01*
X117470406Y-86586938D02*
X117470406Y-86877224D01*
X117978406Y-86732081D02*
X117470406Y-86732081D01*
X117470406Y-86998177D02*
X117470406Y-87312653D01*
X117470406Y-87312653D02*
X117663930Y-87143320D01*
X117663930Y-87143320D02*
X117663930Y-87215891D01*
X117663930Y-87215891D02*
X117688120Y-87264272D01*
X117688120Y-87264272D02*
X117712311Y-87288463D01*
X117712311Y-87288463D02*
X117760692Y-87312653D01*
X117760692Y-87312653D02*
X117881644Y-87312653D01*
X117881644Y-87312653D02*
X117930025Y-87288463D01*
X117930025Y-87288463D02*
X117954216Y-87264272D01*
X117954216Y-87264272D02*
X117978406Y-87215891D01*
X117978406Y-87215891D02*
X117978406Y-87070748D01*
X117978406Y-87070748D02*
X117954216Y-87022367D01*
X117954216Y-87022367D02*
X117930025Y-86998177D01*
X82110025Y-78731433D02*
X82134216Y-78707242D01*
X82134216Y-78707242D02*
X82158406Y-78634671D01*
X82158406Y-78634671D02*
X82158406Y-78586290D01*
X82158406Y-78586290D02*
X82134216Y-78513718D01*
X82134216Y-78513718D02*
X82085835Y-78465337D01*
X82085835Y-78465337D02*
X82037454Y-78441147D01*
X82037454Y-78441147D02*
X81940692Y-78416956D01*
X81940692Y-78416956D02*
X81868120Y-78416956D01*
X81868120Y-78416956D02*
X81771358Y-78441147D01*
X81771358Y-78441147D02*
X81722977Y-78465337D01*
X81722977Y-78465337D02*
X81674596Y-78513718D01*
X81674596Y-78513718D02*
X81650406Y-78586290D01*
X81650406Y-78586290D02*
X81650406Y-78634671D01*
X81650406Y-78634671D02*
X81674596Y-78707242D01*
X81674596Y-78707242D02*
X81698787Y-78731433D01*
X81650406Y-79166861D02*
X81650406Y-79070099D01*
X81650406Y-79070099D02*
X81674596Y-79021718D01*
X81674596Y-79021718D02*
X81698787Y-78997528D01*
X81698787Y-78997528D02*
X81771358Y-78949147D01*
X81771358Y-78949147D02*
X81868120Y-78924956D01*
X81868120Y-78924956D02*
X82061644Y-78924956D01*
X82061644Y-78924956D02*
X82110025Y-78949147D01*
X82110025Y-78949147D02*
X82134216Y-78973337D01*
X82134216Y-78973337D02*
X82158406Y-79021718D01*
X82158406Y-79021718D02*
X82158406Y-79118480D01*
X82158406Y-79118480D02*
X82134216Y-79166861D01*
X82134216Y-79166861D02*
X82110025Y-79191052D01*
X82110025Y-79191052D02*
X82061644Y-79215242D01*
X82061644Y-79215242D02*
X81940692Y-79215242D01*
X81940692Y-79215242D02*
X81892311Y-79191052D01*
X81892311Y-79191052D02*
X81868120Y-79166861D01*
X81868120Y-79166861D02*
X81843930Y-79118480D01*
X81843930Y-79118480D02*
X81843930Y-79021718D01*
X81843930Y-79021718D02*
X81868120Y-78973337D01*
X81868120Y-78973337D02*
X81892311Y-78949147D01*
X81892311Y-78949147D02*
X81940692Y-78924956D01*
X85708468Y-114014510D02*
X85466563Y-113845176D01*
X85708468Y-113724224D02*
X85200468Y-113724224D01*
X85200468Y-113724224D02*
X85200468Y-113917748D01*
X85200468Y-113917748D02*
X85224658Y-113966129D01*
X85224658Y-113966129D02*
X85248849Y-113990319D01*
X85248849Y-113990319D02*
X85297230Y-114014510D01*
X85297230Y-114014510D02*
X85369801Y-114014510D01*
X85369801Y-114014510D02*
X85418182Y-113990319D01*
X85418182Y-113990319D02*
X85442373Y-113966129D01*
X85442373Y-113966129D02*
X85466563Y-113917748D01*
X85466563Y-113917748D02*
X85466563Y-113724224D01*
X85756849Y-114111272D02*
X85756849Y-114498319D01*
X85708468Y-114619272D02*
X85200468Y-114619272D01*
X85442373Y-114619272D02*
X85442373Y-114909558D01*
X85708468Y-114909558D02*
X85200468Y-114909558D01*
X85248849Y-115127271D02*
X85224658Y-115151462D01*
X85224658Y-115151462D02*
X85200468Y-115199843D01*
X85200468Y-115199843D02*
X85200468Y-115320795D01*
X85200468Y-115320795D02*
X85224658Y-115369176D01*
X85224658Y-115369176D02*
X85248849Y-115393367D01*
X85248849Y-115393367D02*
X85297230Y-115417557D01*
X85297230Y-115417557D02*
X85345611Y-115417557D01*
X85345611Y-115417557D02*
X85418182Y-115393367D01*
X85418182Y-115393367D02*
X85708468Y-115103081D01*
X85708468Y-115103081D02*
X85708468Y-115417557D01*
X119058468Y-103907772D02*
X118816563Y-103738438D01*
X119058468Y-103617486D02*
X118550468Y-103617486D01*
X118550468Y-103617486D02*
X118550468Y-103811010D01*
X118550468Y-103811010D02*
X118574658Y-103859391D01*
X118574658Y-103859391D02*
X118598849Y-103883581D01*
X118598849Y-103883581D02*
X118647230Y-103907772D01*
X118647230Y-103907772D02*
X118719801Y-103907772D01*
X118719801Y-103907772D02*
X118768182Y-103883581D01*
X118768182Y-103883581D02*
X118792373Y-103859391D01*
X118792373Y-103859391D02*
X118816563Y-103811010D01*
X118816563Y-103811010D02*
X118816563Y-103617486D01*
X119058468Y-104149676D02*
X119058468Y-104246438D01*
X119058468Y-104246438D02*
X119034278Y-104294819D01*
X119034278Y-104294819D02*
X119010087Y-104319010D01*
X119010087Y-104319010D02*
X118937516Y-104367391D01*
X118937516Y-104367391D02*
X118840754Y-104391581D01*
X118840754Y-104391581D02*
X118647230Y-104391581D01*
X118647230Y-104391581D02*
X118598849Y-104367391D01*
X118598849Y-104367391D02*
X118574658Y-104343200D01*
X118574658Y-104343200D02*
X118550468Y-104294819D01*
X118550468Y-104294819D02*
X118550468Y-104198057D01*
X118550468Y-104198057D02*
X118574658Y-104149676D01*
X118574658Y-104149676D02*
X118598849Y-104125486D01*
X118598849Y-104125486D02*
X118647230Y-104101295D01*
X118647230Y-104101295D02*
X118768182Y-104101295D01*
X118768182Y-104101295D02*
X118816563Y-104125486D01*
X118816563Y-104125486D02*
X118840754Y-104149676D01*
X118840754Y-104149676D02*
X118864944Y-104198057D01*
X118864944Y-104198057D02*
X118864944Y-104294819D01*
X118864944Y-104294819D02*
X118840754Y-104343200D01*
X118840754Y-104343200D02*
X118816563Y-104367391D01*
X118816563Y-104367391D02*
X118768182Y-104391581D01*
X81998468Y-118294414D02*
X81756563Y-118125080D01*
X81998468Y-118004128D02*
X81490468Y-118004128D01*
X81490468Y-118004128D02*
X81490468Y-118197652D01*
X81490468Y-118197652D02*
X81514658Y-118246033D01*
X81514658Y-118246033D02*
X81538849Y-118270223D01*
X81538849Y-118270223D02*
X81587230Y-118294414D01*
X81587230Y-118294414D02*
X81659801Y-118294414D01*
X81659801Y-118294414D02*
X81708182Y-118270223D01*
X81708182Y-118270223D02*
X81732373Y-118246033D01*
X81732373Y-118246033D02*
X81756563Y-118197652D01*
X81756563Y-118197652D02*
X81756563Y-118004128D01*
X82046849Y-118391176D02*
X82046849Y-118778223D01*
X81998468Y-118899176D02*
X81490468Y-118899176D01*
X81974278Y-119116890D02*
X81998468Y-119189462D01*
X81998468Y-119189462D02*
X81998468Y-119310414D01*
X81998468Y-119310414D02*
X81974278Y-119358795D01*
X81974278Y-119358795D02*
X81950087Y-119382986D01*
X81950087Y-119382986D02*
X81901706Y-119407176D01*
X81901706Y-119407176D02*
X81853325Y-119407176D01*
X81853325Y-119407176D02*
X81804944Y-119382986D01*
X81804944Y-119382986D02*
X81780754Y-119358795D01*
X81780754Y-119358795D02*
X81756563Y-119310414D01*
X81756563Y-119310414D02*
X81732373Y-119213652D01*
X81732373Y-119213652D02*
X81708182Y-119165271D01*
X81708182Y-119165271D02*
X81683992Y-119141081D01*
X81683992Y-119141081D02*
X81635611Y-119116890D01*
X81635611Y-119116890D02*
X81587230Y-119116890D01*
X81587230Y-119116890D02*
X81538849Y-119141081D01*
X81538849Y-119141081D02*
X81514658Y-119165271D01*
X81514658Y-119165271D02*
X81490468Y-119213652D01*
X81490468Y-119213652D02*
X81490468Y-119334605D01*
X81490468Y-119334605D02*
X81514658Y-119407176D01*
X81732373Y-119624891D02*
X81732373Y-119794224D01*
X81998468Y-119866796D02*
X81998468Y-119624891D01*
X81998468Y-119624891D02*
X81490468Y-119624891D01*
X81490468Y-119624891D02*
X81490468Y-119866796D01*
X81490468Y-120011938D02*
X81490468Y-120302224D01*
X81998468Y-120157081D02*
X81490468Y-120157081D01*
X81538849Y-120447367D02*
X81514658Y-120471558D01*
X81514658Y-120471558D02*
X81490468Y-120519939D01*
X81490468Y-120519939D02*
X81490468Y-120640891D01*
X81490468Y-120640891D02*
X81514658Y-120689272D01*
X81514658Y-120689272D02*
X81538849Y-120713463D01*
X81538849Y-120713463D02*
X81587230Y-120737653D01*
X81587230Y-120737653D02*
X81635611Y-120737653D01*
X81635611Y-120737653D02*
X81708182Y-120713463D01*
X81708182Y-120713463D02*
X81998468Y-120423177D01*
X81998468Y-120423177D02*
X81998468Y-120737653D01*
X124876968Y-116596914D02*
X124635063Y-116427580D01*
X124876968Y-116306628D02*
X124368968Y-116306628D01*
X124368968Y-116306628D02*
X124368968Y-116500152D01*
X124368968Y-116500152D02*
X124393158Y-116548533D01*
X124393158Y-116548533D02*
X124417349Y-116572723D01*
X124417349Y-116572723D02*
X124465730Y-116596914D01*
X124465730Y-116596914D02*
X124538301Y-116596914D01*
X124538301Y-116596914D02*
X124586682Y-116572723D01*
X124586682Y-116572723D02*
X124610873Y-116548533D01*
X124610873Y-116548533D02*
X124635063Y-116500152D01*
X124635063Y-116500152D02*
X124635063Y-116306628D01*
X124925349Y-116693676D02*
X124925349Y-117080723D01*
X124876968Y-117201676D02*
X124368968Y-117201676D01*
X124852778Y-117419390D02*
X124876968Y-117491962D01*
X124876968Y-117491962D02*
X124876968Y-117612914D01*
X124876968Y-117612914D02*
X124852778Y-117661295D01*
X124852778Y-117661295D02*
X124828587Y-117685486D01*
X124828587Y-117685486D02*
X124780206Y-117709676D01*
X124780206Y-117709676D02*
X124731825Y-117709676D01*
X124731825Y-117709676D02*
X124683444Y-117685486D01*
X124683444Y-117685486D02*
X124659254Y-117661295D01*
X124659254Y-117661295D02*
X124635063Y-117612914D01*
X124635063Y-117612914D02*
X124610873Y-117516152D01*
X124610873Y-117516152D02*
X124586682Y-117467771D01*
X124586682Y-117467771D02*
X124562492Y-117443581D01*
X124562492Y-117443581D02*
X124514111Y-117419390D01*
X124514111Y-117419390D02*
X124465730Y-117419390D01*
X124465730Y-117419390D02*
X124417349Y-117443581D01*
X124417349Y-117443581D02*
X124393158Y-117467771D01*
X124393158Y-117467771D02*
X124368968Y-117516152D01*
X124368968Y-117516152D02*
X124368968Y-117637105D01*
X124368968Y-117637105D02*
X124393158Y-117709676D01*
X124610873Y-117927391D02*
X124610873Y-118096724D01*
X124876968Y-118169296D02*
X124876968Y-117927391D01*
X124876968Y-117927391D02*
X124368968Y-117927391D01*
X124368968Y-117927391D02*
X124368968Y-118169296D01*
X124368968Y-118314438D02*
X124368968Y-118604724D01*
X124876968Y-118459581D02*
X124368968Y-118459581D01*
X124538301Y-118991772D02*
X124876968Y-118991772D01*
X124344778Y-118870820D02*
X124707635Y-118749867D01*
X124707635Y-118749867D02*
X124707635Y-119064344D01*
X106058406Y-131776761D02*
X105816501Y-131607427D01*
X106058406Y-131486475D02*
X105550406Y-131486475D01*
X105550406Y-131486475D02*
X105550406Y-131679999D01*
X105550406Y-131679999D02*
X105574596Y-131728380D01*
X105574596Y-131728380D02*
X105598787Y-131752570D01*
X105598787Y-131752570D02*
X105647168Y-131776761D01*
X105647168Y-131776761D02*
X105719739Y-131776761D01*
X105719739Y-131776761D02*
X105768120Y-131752570D01*
X105768120Y-131752570D02*
X105792311Y-131728380D01*
X105792311Y-131728380D02*
X105816501Y-131679999D01*
X105816501Y-131679999D02*
X105816501Y-131486475D01*
X106106787Y-131873523D02*
X106106787Y-132260570D01*
X106058406Y-132623428D02*
X106058406Y-132381523D01*
X106058406Y-132381523D02*
X105550406Y-132381523D01*
X105550406Y-132720189D02*
X105550406Y-133010475D01*
X106058406Y-132865332D02*
X105550406Y-132865332D01*
X106010025Y-133470095D02*
X106034216Y-133445904D01*
X106034216Y-133445904D02*
X106058406Y-133373333D01*
X106058406Y-133373333D02*
X106058406Y-133324952D01*
X106058406Y-133324952D02*
X106034216Y-133252380D01*
X106034216Y-133252380D02*
X105985835Y-133203999D01*
X105985835Y-133203999D02*
X105937454Y-133179809D01*
X105937454Y-133179809D02*
X105840692Y-133155618D01*
X105840692Y-133155618D02*
X105768120Y-133155618D01*
X105768120Y-133155618D02*
X105671358Y-133179809D01*
X105671358Y-133179809D02*
X105622977Y-133203999D01*
X105622977Y-133203999D02*
X105574596Y-133252380D01*
X105574596Y-133252380D02*
X105550406Y-133324952D01*
X105550406Y-133324952D02*
X105550406Y-133373333D01*
X105550406Y-133373333D02*
X105574596Y-133445904D01*
X105574596Y-133445904D02*
X105598787Y-133470095D01*
X106058406Y-133953904D02*
X106058406Y-133663618D01*
X106058406Y-133808761D02*
X105550406Y-133808761D01*
X105550406Y-133808761D02*
X105622977Y-133760380D01*
X105622977Y-133760380D02*
X105671358Y-133711999D01*
X105671358Y-133711999D02*
X105695549Y-133663618D01*
X105550406Y-134268381D02*
X105550406Y-134316762D01*
X105550406Y-134316762D02*
X105574596Y-134365143D01*
X105574596Y-134365143D02*
X105598787Y-134389333D01*
X105598787Y-134389333D02*
X105647168Y-134413524D01*
X105647168Y-134413524D02*
X105743930Y-134437714D01*
X105743930Y-134437714D02*
X105864882Y-134437714D01*
X105864882Y-134437714D02*
X105961644Y-134413524D01*
X105961644Y-134413524D02*
X106010025Y-134389333D01*
X106010025Y-134389333D02*
X106034216Y-134365143D01*
X106034216Y-134365143D02*
X106058406Y-134316762D01*
X106058406Y-134316762D02*
X106058406Y-134268381D01*
X106058406Y-134268381D02*
X106034216Y-134220000D01*
X106034216Y-134220000D02*
X106010025Y-134195809D01*
X106010025Y-134195809D02*
X105961644Y-134171619D01*
X105961644Y-134171619D02*
X105864882Y-134147428D01*
X105864882Y-134147428D02*
X105743930Y-134147428D01*
X105743930Y-134147428D02*
X105647168Y-134171619D01*
X105647168Y-134171619D02*
X105598787Y-134195809D01*
X105598787Y-134195809D02*
X105574596Y-134220000D01*
X105574596Y-134220000D02*
X105550406Y-134268381D01*
X116236952Y-74108821D02*
X116261143Y-74133012D01*
X116261143Y-74133012D02*
X116333714Y-74157202D01*
X116333714Y-74157202D02*
X116382095Y-74157202D01*
X116382095Y-74157202D02*
X116454667Y-74133012D01*
X116454667Y-74133012D02*
X116503048Y-74084631D01*
X116503048Y-74084631D02*
X116527238Y-74036250D01*
X116527238Y-74036250D02*
X116551429Y-73939488D01*
X116551429Y-73939488D02*
X116551429Y-73866916D01*
X116551429Y-73866916D02*
X116527238Y-73770154D01*
X116527238Y-73770154D02*
X116503048Y-73721773D01*
X116503048Y-73721773D02*
X116454667Y-73673392D01*
X116454667Y-73673392D02*
X116382095Y-73649202D01*
X116382095Y-73649202D02*
X116333714Y-73649202D01*
X116333714Y-73649202D02*
X116261143Y-73673392D01*
X116261143Y-73673392D02*
X116236952Y-73697583D01*
X116140191Y-74205583D02*
X115753143Y-74205583D01*
X115462857Y-73891107D02*
X115390285Y-73915297D01*
X115390285Y-73915297D02*
X115366095Y-73939488D01*
X115366095Y-73939488D02*
X115341904Y-73987869D01*
X115341904Y-73987869D02*
X115341904Y-74060440D01*
X115341904Y-74060440D02*
X115366095Y-74108821D01*
X115366095Y-74108821D02*
X115390285Y-74133012D01*
X115390285Y-74133012D02*
X115438666Y-74157202D01*
X115438666Y-74157202D02*
X115632190Y-74157202D01*
X115632190Y-74157202D02*
X115632190Y-73649202D01*
X115632190Y-73649202D02*
X115462857Y-73649202D01*
X115462857Y-73649202D02*
X115414476Y-73673392D01*
X115414476Y-73673392D02*
X115390285Y-73697583D01*
X115390285Y-73697583D02*
X115366095Y-73745964D01*
X115366095Y-73745964D02*
X115366095Y-73794345D01*
X115366095Y-73794345D02*
X115390285Y-73842726D01*
X115390285Y-73842726D02*
X115414476Y-73866916D01*
X115414476Y-73866916D02*
X115462857Y-73891107D01*
X115462857Y-73891107D02*
X115632190Y-73891107D01*
X115148381Y-74012059D02*
X114906476Y-74012059D01*
X115196762Y-74157202D02*
X115027428Y-73649202D01*
X115027428Y-73649202D02*
X114858095Y-74157202D01*
X114761333Y-73649202D02*
X114471047Y-73649202D01*
X114616190Y-74157202D02*
X114616190Y-73649202D01*
X114374285Y-73649202D02*
X114083999Y-73649202D01*
X114229142Y-74157202D02*
X114229142Y-73649202D01*
X113696951Y-73649202D02*
X113793713Y-73649202D01*
X113793713Y-73649202D02*
X113842094Y-73673392D01*
X113842094Y-73673392D02*
X113866284Y-73697583D01*
X113866284Y-73697583D02*
X113914665Y-73770154D01*
X113914665Y-73770154D02*
X113938856Y-73866916D01*
X113938856Y-73866916D02*
X113938856Y-74060440D01*
X113938856Y-74060440D02*
X113914665Y-74108821D01*
X113914665Y-74108821D02*
X113890475Y-74133012D01*
X113890475Y-74133012D02*
X113842094Y-74157202D01*
X113842094Y-74157202D02*
X113745332Y-74157202D01*
X113745332Y-74157202D02*
X113696951Y-74133012D01*
X113696951Y-74133012D02*
X113672760Y-74108821D01*
X113672760Y-74108821D02*
X113648570Y-74060440D01*
X113648570Y-74060440D02*
X113648570Y-73939488D01*
X113648570Y-73939488D02*
X113672760Y-73891107D01*
X113672760Y-73891107D02*
X113696951Y-73866916D01*
X113696951Y-73866916D02*
X113745332Y-73842726D01*
X113745332Y-73842726D02*
X113842094Y-73842726D01*
X113842094Y-73842726D02*
X113890475Y-73866916D01*
X113890475Y-73866916D02*
X113914665Y-73891107D01*
X113914665Y-73891107D02*
X113938856Y-73939488D01*
X71734666Y-82774506D02*
X71904000Y-82532601D01*
X72024952Y-82774506D02*
X72024952Y-82266506D01*
X72024952Y-82266506D02*
X71831428Y-82266506D01*
X71831428Y-82266506D02*
X71783047Y-82290696D01*
X71783047Y-82290696D02*
X71758857Y-82314887D01*
X71758857Y-82314887D02*
X71734666Y-82363268D01*
X71734666Y-82363268D02*
X71734666Y-82435839D01*
X71734666Y-82435839D02*
X71758857Y-82484220D01*
X71758857Y-82484220D02*
X71783047Y-82508411D01*
X71783047Y-82508411D02*
X71831428Y-82532601D01*
X71831428Y-82532601D02*
X72024952Y-82532601D01*
X71250857Y-82774506D02*
X71541143Y-82774506D01*
X71396000Y-82774506D02*
X71396000Y-82266506D01*
X71396000Y-82266506D02*
X71444381Y-82339077D01*
X71444381Y-82339077D02*
X71492762Y-82387458D01*
X71492762Y-82387458D02*
X71541143Y-82411649D01*
X117461425Y-119413048D02*
X117485616Y-119388857D01*
X117485616Y-119388857D02*
X117509806Y-119316286D01*
X117509806Y-119316286D02*
X117509806Y-119267905D01*
X117509806Y-119267905D02*
X117485616Y-119195333D01*
X117485616Y-119195333D02*
X117437235Y-119146952D01*
X117437235Y-119146952D02*
X117388854Y-119122762D01*
X117388854Y-119122762D02*
X117292092Y-119098571D01*
X117292092Y-119098571D02*
X117219520Y-119098571D01*
X117219520Y-119098571D02*
X117122758Y-119122762D01*
X117122758Y-119122762D02*
X117074377Y-119146952D01*
X117074377Y-119146952D02*
X117025996Y-119195333D01*
X117025996Y-119195333D02*
X117001806Y-119267905D01*
X117001806Y-119267905D02*
X117001806Y-119316286D01*
X117001806Y-119316286D02*
X117025996Y-119388857D01*
X117025996Y-119388857D02*
X117050187Y-119413048D01*
X117558187Y-119509810D02*
X117558187Y-119896857D01*
X117243711Y-120187143D02*
X117267901Y-120259715D01*
X117267901Y-120259715D02*
X117292092Y-120283905D01*
X117292092Y-120283905D02*
X117340473Y-120308096D01*
X117340473Y-120308096D02*
X117413044Y-120308096D01*
X117413044Y-120308096D02*
X117461425Y-120283905D01*
X117461425Y-120283905D02*
X117485616Y-120259715D01*
X117485616Y-120259715D02*
X117509806Y-120211334D01*
X117509806Y-120211334D02*
X117509806Y-120017810D01*
X117509806Y-120017810D02*
X117001806Y-120017810D01*
X117001806Y-120017810D02*
X117001806Y-120187143D01*
X117001806Y-120187143D02*
X117025996Y-120235524D01*
X117025996Y-120235524D02*
X117050187Y-120259715D01*
X117050187Y-120259715D02*
X117098568Y-120283905D01*
X117098568Y-120283905D02*
X117146949Y-120283905D01*
X117146949Y-120283905D02*
X117195330Y-120259715D01*
X117195330Y-120259715D02*
X117219520Y-120235524D01*
X117219520Y-120235524D02*
X117243711Y-120187143D01*
X117243711Y-120187143D02*
X117243711Y-120017810D01*
X117364663Y-120501619D02*
X117364663Y-120743524D01*
X117509806Y-120453238D02*
X117001806Y-120622572D01*
X117001806Y-120622572D02*
X117509806Y-120791905D01*
X117001806Y-120888667D02*
X117001806Y-121178953D01*
X117509806Y-121033810D02*
X117001806Y-121033810D01*
X117001806Y-121275715D02*
X117001806Y-121566001D01*
X117509806Y-121420858D02*
X117001806Y-121420858D01*
X117219520Y-121807906D02*
X117195330Y-121759525D01*
X117195330Y-121759525D02*
X117171139Y-121735335D01*
X117171139Y-121735335D02*
X117122758Y-121711144D01*
X117122758Y-121711144D02*
X117098568Y-121711144D01*
X117098568Y-121711144D02*
X117050187Y-121735335D01*
X117050187Y-121735335D02*
X117025996Y-121759525D01*
X117025996Y-121759525D02*
X117001806Y-121807906D01*
X117001806Y-121807906D02*
X117001806Y-121904668D01*
X117001806Y-121904668D02*
X117025996Y-121953049D01*
X117025996Y-121953049D02*
X117050187Y-121977240D01*
X117050187Y-121977240D02*
X117098568Y-122001430D01*
X117098568Y-122001430D02*
X117122758Y-122001430D01*
X117122758Y-122001430D02*
X117171139Y-121977240D01*
X117171139Y-121977240D02*
X117195330Y-121953049D01*
X117195330Y-121953049D02*
X117219520Y-121904668D01*
X117219520Y-121904668D02*
X117219520Y-121807906D01*
X117219520Y-121807906D02*
X117243711Y-121759525D01*
X117243711Y-121759525D02*
X117267901Y-121735335D01*
X117267901Y-121735335D02*
X117316282Y-121711144D01*
X117316282Y-121711144D02*
X117413044Y-121711144D01*
X117413044Y-121711144D02*
X117461425Y-121735335D01*
X117461425Y-121735335D02*
X117485616Y-121759525D01*
X117485616Y-121759525D02*
X117509806Y-121807906D01*
X117509806Y-121807906D02*
X117509806Y-121904668D01*
X117509806Y-121904668D02*
X117485616Y-121953049D01*
X117485616Y-121953049D02*
X117461425Y-121977240D01*
X117461425Y-121977240D02*
X117413044Y-122001430D01*
X117413044Y-122001430D02*
X117316282Y-122001430D01*
X117316282Y-122001430D02*
X117267901Y-121977240D01*
X117267901Y-121977240D02*
X117243711Y-121953049D01*
X117243711Y-121953049D02*
X117219520Y-121904668D01*
%TO.C,R_ISET1*%
D12*
X90177562Y-84121538D02*
X90177562Y-84596054D01*
X91222562Y-84121538D02*
X91222562Y-84596054D01*
%TO.C,R_LTC1*%
X98977500Y-129162258D02*
X98977500Y-128687742D01*
X100022500Y-129162258D02*
X100022500Y-128687742D01*
%TO.C,C_LTC1*%
X101515000Y-128988748D02*
X101515000Y-129511252D01*
X102985000Y-128988748D02*
X102985000Y-129511252D01*
%TO.C,R_LTC5*%
X95977500Y-128637742D02*
X95977500Y-129112258D01*
X97022500Y-128637742D02*
X97022500Y-129112258D01*
%TO.C,R_BATT3*%
X115331636Y-70736296D02*
X114857120Y-70736296D01*
X115331636Y-71781296D02*
X114857120Y-71781296D01*
%TO.C,R13*%
X116777562Y-102246054D02*
X116777562Y-101771538D01*
X117822562Y-102246054D02*
X117822562Y-101771538D01*
%TO.C,C7*%
X78040000Y-79875520D02*
X78040000Y-80156680D01*
X79060000Y-79875520D02*
X79060000Y-80156680D01*
%TO.C,C_BATT2*%
X102770638Y-69168217D02*
X102770638Y-69449377D01*
X103790638Y-69168217D02*
X103790638Y-69449377D01*
%TO.C,C_LTC9*%
X102590000Y-115113748D02*
X102590000Y-116536252D01*
X105310000Y-115113748D02*
X105310000Y-116536252D01*
%TO.C,R2*%
X73377500Y-82378358D02*
X73377500Y-81903842D01*
X74422500Y-82378358D02*
X74422500Y-81903842D01*
%TO.C,R3*%
X80227500Y-82053358D02*
X80227500Y-81578842D01*
X81272500Y-82053358D02*
X81272500Y-81578842D01*
%TO.C,R_T5*%
X119987804Y-82661296D02*
X120462320Y-82661296D01*
X119987804Y-83706296D02*
X120462320Y-83706296D01*
%TO.C,R_H4*%
X126456062Y-113026554D02*
X126456062Y-112552038D01*
X127501062Y-113026554D02*
X127501062Y-112552038D01*
%TO.C,C_BATT4*%
X85384482Y-125723796D02*
X85665642Y-125723796D01*
X85384482Y-126743796D02*
X85665642Y-126743796D01*
%TO.C,R_LTC8*%
X96577500Y-122762742D02*
X96577500Y-123237258D01*
X97622500Y-122762742D02*
X97622500Y-123237258D01*
%TO.C,R_T3*%
X84237804Y-116286296D02*
X84712320Y-116286296D01*
X84237804Y-117331296D02*
X84712320Y-117331296D01*
%TO.C,R_T7*%
X126953304Y-114513796D02*
X127427820Y-114513796D01*
X126953304Y-115558796D02*
X127427820Y-115558796D01*
%TO.C,R_BATT2*%
X85287804Y-127211296D02*
X85762320Y-127211296D01*
X85287804Y-128256296D02*
X85762320Y-128256296D01*
%TO.C,R_BATT1*%
X101258138Y-69071539D02*
X101258138Y-69546055D01*
X102303138Y-69071539D02*
X102303138Y-69546055D01*
%TO.C,C_LTC10*%
X103665000Y-128988748D02*
X103665000Y-129511252D01*
X105135000Y-128988748D02*
X105135000Y-129511252D01*
%TO.C,R_H3*%
X119502562Y-81171054D02*
X119502562Y-80696538D01*
X120547562Y-81171054D02*
X120547562Y-80696538D01*
%TO.C,R_T1*%
X91962804Y-81186296D02*
X92437320Y-81186296D01*
X91962804Y-82231296D02*
X92437320Y-82231296D01*
%TO.C,R_BATT4*%
X119428900Y-120787259D02*
X119428900Y-120312743D01*
X120473900Y-120787259D02*
X120473900Y-120312743D01*
%TO.C,R_H1*%
X91527562Y-79696054D02*
X91527562Y-79221538D01*
X92572562Y-79696054D02*
X92572562Y-79221538D01*
%TO.C,R7*%
X119777562Y-100646054D02*
X119777562Y-100171538D01*
X120822562Y-100646054D02*
X120822562Y-100171538D01*
%TO.C,R_ISET3*%
X118402562Y-85696538D02*
X118402562Y-86171054D01*
X119447562Y-85696538D02*
X119447562Y-86171054D01*
%TO.C,C6*%
X80240000Y-78956680D02*
X80240000Y-78675520D01*
X81260000Y-78956680D02*
X81260000Y-78675520D01*
%TO.C,R_H2*%
X83827562Y-114796054D02*
X83827562Y-114321538D01*
X84872562Y-114796054D02*
X84872562Y-114321538D01*
%TO.C,R9*%
X118277562Y-102246054D02*
X118277562Y-101771538D01*
X119322562Y-102246054D02*
X119322562Y-101771538D01*
%TO.C,R_ISET2*%
X82377562Y-119121538D02*
X82377562Y-119596054D01*
X83422562Y-119121538D02*
X83422562Y-119596054D01*
%TO.C,R_ISET4*%
X125256062Y-117424038D02*
X125256062Y-117898554D01*
X126301062Y-117424038D02*
X126301062Y-117898554D01*
%TO.C,R_LTC10*%
X103877500Y-132687258D02*
X103877500Y-132212742D01*
X104922500Y-132687258D02*
X104922500Y-132212742D01*
%TO.C,C_BATT6*%
X115234958Y-72248796D02*
X114953798Y-72248796D01*
X115234958Y-73268796D02*
X114953798Y-73268796D01*
%TO.C,R1*%
X71412742Y-80843600D02*
X71887258Y-80843600D01*
X71412742Y-81888600D02*
X71887258Y-81888600D01*
%TO.C,C_BATT8*%
X117941400Y-120690581D02*
X117941400Y-120409421D01*
X118961400Y-120690581D02*
X118961400Y-120409421D01*
%TD*%
M02*
